<svg version="1.0" xmlns="http://www.w3.org/2000/svg" viewBox="0 0 359 522" xml:space="preserve">
    <path
        d="M169.038 168.083v150.385a9.23 9.23 0 0 1-4.979 8.204c-.516.284-.851.8-.851 1.393v27.76H100.67l-11.661 11.068V328.09c0-.593-.31-1.135-.851-1.419-3.07-1.574-4.979-4.721-4.979-8.204V167.8c.155-3.354 2.657-6.089 5.882-6.527h74.019c3.378.464 5.958 3.38 5.958 6.81m102.889-25.644H85.68c4.154-20.33 15.067-39.035 30.83-52.708 17.26-15.015 39.396-23.271 62.28-23.271a94.97 94.97 0 0 1 62.306 23.271c15.738 13.673 26.677 32.378 30.831 52.708" />
    <path fill="#FFF"
        d="M0 0v382.039c0 72.884 91.175 124.173 179.384 139.137 88.208-14.964 179.358-66.253 179.358-139.137V0zm342.566 382.039c0 35.578-27.064 62.074-49.741 78.043-29.618 20.846-70.82 37.048-113.44 44.659-42.621-7.611-83.823-23.813-113.44-44.659-22.704-15.97-49.741-42.466-49.741-78.043v-8.643h41.64v30.701c0 .877.696 1.574 1.574 1.574h28.018c.877 0 1.574-.697 1.574-1.574v-30.701h74.199v30.701c0 .877.697 1.574 1.574 1.574H192.8c.877 0 1.6-.697 1.6-1.574v-30.701h74.174v30.701c0 .877.697 1.574 1.574 1.574h28.018c.877 0 1.6-.697 1.6-1.574v-30.701h42.801v8.643zm-149.044-55.366c-3.07-1.574-4.979-4.721-4.979-8.204V167.8c.155-3.354 2.657-6.089 5.882-6.527h74.019c3.38.464 5.96 3.38 5.96 6.811v150.385a9.23 9.23 0 0 1-4.979 8.204c-.516.284-.851.8-.851 1.393v27.76h-62.512l-11.661 11.068v-38.803a1.61 1.61 0 0 0-.879-1.418M85.68 142.439c4.154-20.33 15.067-39.035 30.83-52.708 17.26-15.015 39.396-23.271 62.28-23.271a94.97 94.97 0 0 1 62.306 23.271c15.738 13.674 26.677 32.378 30.83 52.708zm3.38 18.834h74.019c3.38.464 5.96 3.38 5.96 6.811v150.385a9.23 9.23 0 0 1-4.979 8.204c-.516.284-.851.8-.851 1.393v27.76H100.67l-11.661 11.068v-38.803c0-.593-.31-1.135-.851-1.419-3.07-1.574-4.979-4.721-4.979-8.204V167.8c.154-3.354 2.656-6.089 5.881-6.527m253.506 194.554h-31.14v.026l-11.661 11.042v-38.803a1.63 1.63 0 0 0-.851-1.419c-3.096-1.574-5.005-4.721-5.005-8.204V167.8a6.92 6.92 0 0 1 5.934-6.527 1.58 1.58 0 0 0 1.367-1.548v-15.711a1.58 1.58 0 0 0-1.574-1.574h-11.352c-4.334-25.077-17.337-48.09-36.635-64.86a111.13 111.13 0 0 0-72.858-27.219 111 111 0 0 0-72.832 27.219c-19.298 16.77-32.327 39.783-36.661 64.86H57.972c-.877 0-1.574.697-1.574 1.574v15.711c0 .774.568 1.445 1.341 1.574 3.38.464 5.934 3.38 5.934 6.785v150.385a9.23 9.23 0 0 1-4.979 8.204c-.516.284-.851.8-.851 1.393v27.76h-41.64V16.176h326.364v339.651z" />
    <path
        d="M274.404 168.083v150.385a9.23 9.23 0 0 1-4.979 8.204c-.516.284-.851.8-.851 1.393v27.76h-62.512l-11.661 11.068V328.09c0-.593-.335-1.135-.877-1.419-3.07-1.574-4.979-4.721-4.979-8.204V167.8c.155-3.354 2.657-6.089 5.882-6.527h74.019c3.378.464 5.958 3.38 5.958 6.81" />
    <path fill="#C10230"
        d="M299.764 373.396v30.701c0 .877-.722 1.574-1.6 1.574h-28.018a1.564 1.564 0 0 1-1.574-1.574v-30.701h-74.174v30.701c0 .877-.722 1.574-1.6 1.574H164.78a1.564 1.564 0 0 1-1.574-1.574v-30.701H89.008v30.701c0 .877-.696 1.574-1.574 1.574H59.416a1.564 1.564 0 0 1-1.574-1.574v-30.701h-41.64v8.643c0 35.578 27.038 62.074 49.741 78.043 29.618 20.846 70.82 37.048 113.44 44.659 42.621-7.611 83.823-23.813 113.44-44.659 22.678-15.97 49.741-42.466 49.741-78.043v-8.643zm-163.749 92.285H114.06v-2.142c4.257-.155 6.295-.619 6.295-2.657v-22.188c0-1.677-.31-2.683-1.032-3.406-.929-.877-2.502-1.29-5.16-1.29h-.387v-2.064l15.892-1.109v30.056c0 2.038 2.038 2.503 6.347 2.657zm36.867-31.089-9.804 17.389-7.069 14.19h-7.25v-1.909l18.653-25.67.232-.31h-12.59c-5.005 0-6.114 1.212-7.121 5.392h-1.987l.335-12.745h26.599v3.663zm22.936 32.044c-9.365 0-14.732-3.251-14.732-8.901 0-3.483 2.296-6.166 6.837-7.946l.387-.155-.361-.207c-3.844-2.219-5.805-5.108-5.805-8.539 0-6.605 5.315-10.862 13.545-10.862 8.849 0 12.9 4.334 12.9 8.333 0 3.199-2.322 5.676-6.889 7.405l-.49.18.464.18c5.392 2.322 8.024 5.444 8.024 9.598 0 6.218-5.959 10.914-13.88 10.914m38.055-.129c-8.617 0-13.777-2.967-13.777-7.972 0-2.89 2.012-4.799 4.979-4.799 3.07 0 4.437 2.322 4.437 4.618 0 1.935-1.29 3.612-2.58 4.257l-.284.155.258.18c.8.619 3.225 1.212 4.902 1.212 4.824 0 7.275-2.889 7.275-8.617 0-5.134-2.683-8.05-7.327-8.05-3.096 0-5.186.774-7.688 2.142l-1.729-1.367.722-17.337h22.962l-.542 7.069h-19.143l-.413 8.152-.026.336.31-.129c2.58-1.187 5.057-1.677 8.23-1.677 6.424 0 13.287 2.735 13.287 10.371.001 5.522-4.333 11.456-13.853 11.456" />
    <path
        d="M342.566 16.176v339.65h-31.14v.026l-11.661 11.042v-38.803a1.63 1.63 0 0 0-.851-1.419c-3.096-1.574-5.005-4.721-5.005-8.204V167.8a6.92 6.92 0 0 1 5.934-6.527 1.58 1.58 0 0 0 1.367-1.548v-15.711a1.58 1.58 0 0 0-1.574-1.574h-11.352c-4.334-25.077-17.337-48.09-36.635-64.86a111.13 111.13 0 0 0-72.858-27.219 111 111 0 0 0-72.832 27.219c-19.298 16.77-32.327 39.783-36.661 64.86H57.972c-.877 0-1.574.697-1.574 1.574v15.711c0 .774.568 1.445 1.341 1.574 3.38.464 5.934 3.38 5.934 6.785v150.385a9.23 9.23 0 0 1-4.979 8.204c-.516.284-.851.8-.851 1.393v27.76h-41.64V16.176z" />
    <path fill="#FFF"
        d="M136.015 463.539v2.142H114.06v-2.142c4.257-.155 6.295-.619 6.295-2.657v-22.188c0-1.677-.31-2.683-1.032-3.406-.929-.877-2.502-1.29-5.16-1.29h-.387v-2.064l15.892-1.109v30.056c0 2.039 2.039 2.504 6.347 2.658m36.867-32.61v3.663l-9.804 17.389-7.069 14.19h-7.25v-1.909l18.653-25.67.232-.31h-12.59c-5.005 0-6.114 1.212-7.121 5.392h-1.987l.335-12.745zm28.793 15.196-.464-.18.49-.18c4.567-1.729 6.889-4.206 6.889-7.405 0-3.999-4.051-8.333-12.9-8.333-8.23 0-13.545 4.257-13.545 10.862 0 3.431 1.961 6.321 5.805 8.539l.361.207-.387.155c-4.541 1.78-6.837 4.464-6.837 7.946 0 5.65 5.366 8.901 14.732 8.901 7.92 0 13.88-4.695 13.88-10.913-.001-4.155-2.632-7.277-8.024-9.599m-6.76-13.751c4.076 0 6.708 2.348 6.708 5.985 0 2.554-.774 4.515-2.632 6.605l-.103.103-.103-.052c-4.592-1.677-9.081-3.663-9.081-7.766 0-3.198 2.631-4.875 5.211-4.875m.852 31.914c-4.618 0-7.456-3.792-7.456-7.275 0-2.296.774-4.231 2.477-6.037l.077-.103.155.052c.542.258 1.187.49 1.857.671 6.63 2.193 8.978 4.076 8.978 7.198 0 3.327-2.399 5.494-6.088 5.494" />
    <path fill="#C10230"
        d="M201.855 458.792c0 3.328-2.399 5.495-6.089 5.495-4.618 0-7.456-3.792-7.456-7.275 0-2.296.774-4.231 2.477-6.037l.077-.103.155.052c.542.258 1.187.49 1.857.671 6.632 2.192 8.979 4.076 8.979 7.197m-.232-20.433c0 2.554-.774 4.515-2.632 6.605l-.103.103-.103-.052c-4.592-1.677-9.081-3.663-9.081-7.766 0-3.199 2.632-4.876 5.212-4.876 4.076.001 6.707 2.349 6.707 5.986" />
    <path fill="#FFF"
        d="M247.727 455.052c0 5.521-4.334 11.455-13.854 11.455-8.617 0-13.777-2.967-13.777-7.972 0-2.89 2.012-4.799 4.979-4.799 3.07 0 4.437 2.322 4.437 4.618 0 1.935-1.29 3.612-2.58 4.257l-.284.155.258.18c.8.619 3.225 1.212 4.902 1.212 4.824 0 7.275-2.889 7.275-8.617 0-5.134-2.683-8.05-7.327-8.05-3.096 0-5.186.774-7.688 2.142l-1.729-1.367.722-17.337h22.962l-.542 7.069h-19.143l-.413 8.152-.026.336.31-.129c2.58-1.187 5.057-1.677 8.23-1.677 6.425 0 13.288 2.735 13.288 10.372" />
</svg>