<svg xmlns="http://www.w3.org/2000/svg" viewBox="0 0 842.3 1000"><path fill="#fff" d="M824.7 779.3Q802 831.7 770.9 876q-42.5 60.5-69.3 83.7-41.4 38-89 39.2-34.1 0-82.2-19.7a236 236 0 0 0-88.5-19.5 244 244 0 0 0-91 19.5q-48.7 19.7-78.7 20.7-45.6 2-91-40.2-29-25.4-72.4-86.7a599 599 0 0 1-76.6-152.2A557 557 0 0 1 0 539.5Q0 439 43.5 366.3q34.2-58.4 91-92.2 57-33.7 123.2-34.7 36.3.1 95.2 22.1 59 22.3 75.6 22.3 12.4 0 83.7-26.2 67.4-24.3 113.9-20.2 126.2 10.2 189.4 99.7-112.9 68.4-111.8 191.4 1.1 95.8 69.4 159a228 228 0 0 0 69.2 45.4 749 749 0 0 1-17.6 46.4M631.7 20q0 75-54.7 140c-44 51.3-97 81-154.7 76.3q-1.2-9-1.2-19c0-48 21-99.3 58-141.3q27.9-32 70.7-53.1A211 211 0 0 1 630.7 0q1 10 1 20"/></svg>