<?xml version="1.0" standalone="no"?>
<!DOCTYPE svg PUBLIC "-//W3C//DTD SVG 20010904//EN"
 "http://www.w3.org/TR/2001/REC-SVG-20010904/DTD/svg10.dtd">
<svg version="1.0" xmlns="http://www.w3.org/2000/svg"
 width="578.000000pt" height="612.000000pt" viewBox="0 0 578.000000 612.000000"
 preserveAspectRatio="xMidYMid meet">
<metadata>
Created by potrace 1.15, written by Peter Selinger 2001-2017
</metadata>
<g transform="translate(0.000000,612.000000) scale(0.100000,-0.100000)"
fill="#000000" stroke="none">
<path d="M2734 6101 c-42 -19 -86 -68 -98 -108 l-7 -22 -32 19 c-43 27 -125
26 -177 0 -50 -25 -88 -81 -96 -140 l-6 -45 -49 3 c-128 9 -222 -113 -186
-240 6 -24 4 -28 -20 -34 -48 -11 -97 -44 -122 -79 -42 -63 -40 -160 5 -214
l25 -30 -30 -15 c-45 -24 -83 -79 -88 -130 -9 -76 4 -114 57 -167 42 -42 46
-50 33 -61 -42 -35 -56 -142 -27 -204 22 -46 67 -82 119 -96 l43 -11 -14 -33
c-19 -44 -17 -81 5 -129 36 -80 111 -123 196 -113 l35 4 0 -44 c0 -50 16 -86
57 -124 53 -51 139 -63 204 -30 l35 18 19 -44 c47 -115 198 -144 293 -58 l36
33 25 -30 c71 -84 222 -74 286 20 14 21 25 44 25 51 0 10 6 12 18 7 9 -4 35
-14 57 -22 109 -40 235 49 235 166 l0 39 35 -8 c35 -8 90 0 116 16 8 4 -31
-34 -85 -86 -88 -84 -191 -206 -240 -281 l-17 -27 93 -82 c118 -103 137 -113
205 -108 44 4 53 2 53 -12 0 -8 -13 -24 -30 -33 -56 -33 -201 -215 -222 -279
-5 -13 -118 102 -118 120 0 7 10 32 22 55 25 48 29 127 8 152 -12 15 -12 19 4
31 10 7 24 15 30 18 26 11 -114 104 -218 145 -97 39 -268 74 -318 66 -28 -5
-47 -17 -71 -47 l-34 -41 -115 -1 c-126 -1 -140 -6 -159 -61 -9 -25 -23 -37
-59 -52 -55 -23 -82 -58 -90 -116 l-5 -40 -32 51 -32 51 47 44 c26 25 70 64
99 88 28 24 52 47 52 50 2 13 -78 122 -145 200 -177 205 -409 359 -671 445
l-114 38 2 88 c1 55 -3 93 -10 102 -7 8 -68 47 -136 88 l-125 73 0 66 c0 47 4
70 15 79 18 15 19 69 2 90 -38 49 -110 65 -139 33 -17 -19 -112 -293 -123
-355 -4 -20 -4 -51 0 -68 9 -40 65 -104 124 -141 l44 -29 5 -110 c2 -60 1
-110 -3 -110 -3 0 -37 17 -73 39 -270 157 -679 310 -754 282 -18 -6 -17 -9 10
-47 36 -49 123 -119 267 -213 l109 -72 -59 5 c-67 7 -126 -3 -133 -22 -7 -21
113 -135 208 -197 l91 -60 -53 -6 c-67 -8 -88 -17 -88 -37 0 -25 93 -107 170
-150 71 -39 71 -39 40 -46 -47 -9 -90 -43 -90 -71 0 -25 44 -68 97 -93 l32
-15 -49 -17 c-28 -9 -59 -25 -70 -35 -19 -17 -19 -19 -2 -48 9 -16 34 -41 54
-54 l37 -25 -51 -27 c-29 -14 -56 -33 -62 -42 -13 -23 14 -64 60 -91 l34 -20
-40 -29 c-22 -16 -40 -33 -40 -39 0 -19 47 -61 83 -73 l39 -13 -52 -32 -51
-32 22 -31 c22 -32 88 -68 123 -69 16 0 15 -3 -6 -20 -30 -23 -62 -86 -54
-106 8 -21 67 -54 97 -54 37 0 41 -9 18 -40 -11 -15 -23 -45 -26 -67 -5 -36
-2 -43 18 -54 13 -7 49 -13 80 -13 l55 -1 -17 -30 c-9 -16 -20 -44 -23 -61 -6
-29 -5 -31 32 -42 22 -7 51 -12 65 -12 24 0 26 -2 17 -26 -6 -14 -10 -46 -10
-71 l0 -46 68 6 67 5 -3 -61 c-4 -84 2 -90 64 -73 27 7 57 17 66 21 16 6 17 1
11 -59 l-6 -66 40 0 c22 0 59 6 81 14 l40 14 4 -63 c2 -36 7 -67 10 -71 10 -9
77 15 120 42 l38 24 0 -30 c0 -17 5 -51 11 -75 11 -42 13 -44 38 -38 39 9 83
32 113 60 l26 25 6 -31 c3 -17 9 -45 12 -62 3 -17 12 -33 19 -35 20 -8 88 31
123 70 33 38 42 37 42 -4 0 -15 7 -47 15 -70 16 -46 13 -60 -13 -60 -29 0
-172 -50 -237 -82 -81 -41 -157 -99 -175 -134 -8 -16 -41 -54 -74 -84 -49 -47
-59 -61 -59 -89 0 -21 -9 -43 -24 -59 -13 -14 -23 -31 -23 -38 0 -11 -30 -14
-144 -14 l-145 0 6 53 c14 138 -99 177 -207 72 -28 -27 -41 -32 -63 -28 -22 4
-26 9 -21 22 14 29 8 80 -11 101 -10 11 -13 20 -8 20 6 0 33 20 60 45 53 47
108 140 138 235 10 30 24 65 32 77 19 29 6 34 -59 23 -57 -9 -108 -28 -144
-55 -21 -15 -21 -15 -28 77 -3 51 -10 109 -14 128 l-8 35 -58 -55 c-68 -64
-112 -125 -137 -189 l-18 -46 6 90 c5 87 -5 188 -28 269 l-11 39 -50 -49 c-27
-27 -62 -71 -78 -98 -25 -43 -29 -46 -35 -27 -7 24 -60 55 -76 46 -5 -4 4 20
21 52 16 33 36 88 44 124 19 80 32 259 20 259 -5 0 -27 -14 -48 -32 -30 -25
-37 -27 -33 -12 29 93 34 196 16 301 -6 35 -16 63 -23 63 -17 0 -100 -70 -131
-112 l-28 -37 -33 67 c-32 66 -88 142 -103 142 -15 0 -49 -93 -62 -164 -12
-69 -8 -245 6 -279 6 -15 1 -14 -30 7 -39 27 -151 66 -187 66 -19 0 -20 -4
-14 -58 13 -115 92 -234 187 -282 22 -12 73 -30 112 -40 40 -10 61 -19 47 -19
-30 -1 -70 -27 -70 -45 0 -10 -30 -14 -118 -18 -168 -7 -170 -9 -80 -100 40
-41 88 -81 107 -90 l34 -16 -57 -12 c-31 -6 -56 -15 -56 -19 0 -19 82 -98 129
-126 36 -21 49 -34 44 -45 -16 -39 -15 -78 5 -98 19 -19 19 -20 -16 -36 l-35
-17 28 -29 c16 -16 52 -39 82 -52 52 -21 53 -22 35 -42 -28 -31 -62 -91 -62
-109 0 -29 162 -36 249 -11 l24 7 -25 -34 c-37 -49 -58 -120 -58 -194 0 -36 2
-65 5 -65 12 0 122 45 140 56 11 8 22 14 25 14 3 0 6 -42 7 -93 2 -50 7 -105
11 -122 l9 -30 75 75 c80 80 114 145 125 242 l6 47 27 -29 c16 -17 37 -30 49
-30 18 0 21 -6 21 -40 0 -46 34 -90 70 -90 15 0 20 -6 20 -29 0 -43 9 -60 42
-77 42 -22 83 -9 138 42 l46 43 33 -50 c52 -80 72 -150 78 -277 5 -100 9 -117
33 -155 33 -53 84 -79 143 -75 37 3 42 6 45 30 5 44 -26 205 -59 303 -32 97
-87 198 -154 285 -34 44 -41 59 -34 78 8 21 13 22 126 22 88 -1 123 -4 137
-15 11 -8 30 -15 43 -15 13 0 23 -4 23 -9 0 -37 89 -55 144 -29 21 9 29 8 44
-5 28 -26 89 -21 161 13 35 17 76 39 91 50 16 11 37 20 47 20 38 0 146 63 209
123 l65 60 69 2 c76 2 75 4 26 -59 -24 -29 -31 -48 -32 -85 0 -46 -2 -47 -123
-166 -172 -169 -216 -240 -237 -387 -6 -43 -4 -48 12 -48 24 0 122 46 148 68
18 16 19 16 12 -3 -14 -39 -26 -118 -26 -176 0 -50 3 -59 18 -59 26 0 100 49
151 101 38 38 43 40 37 19 -22 -76 -18 -300 5 -300 19 0 89 76 124 134 l35 60
0 -80 c0 -79 22 -210 38 -226 9 -9 55 51 97 124 23 39 25 41 25 17 0 -31 32
-139 61 -207 l20 -47 24 52 c26 56 55 157 55 194 1 28 2 27 65 -76 22 -36 43
-65 47 -65 14 0 38 142 38 227 l0 88 28 -46 c52 -86 123 -162 138 -146 2 2 9
30 15 62 10 55 0 194 -18 243 -4 9 18 -6 49 -34 30 -29 78 -64 106 -78 l52
-26 0 78 c0 43 -6 101 -13 129 l-14 51 36 -24 c40 -27 129 -59 139 -50 12 13
-19 150 -46 202 -37 73 -119 169 -227 267 -79 72 -90 86 -87 111 5 43 -4 68
-42 118 l-34 45 67 -1 67 -1 65 -59 c73 -67 146 -111 197 -121 19 -3 53 -18
75 -32 113 -72 214 -94 239 -54 11 18 14 18 39 5 53 -27 149 -13 149 21 0 9 9
15 23 15 13 0 32 7 43 15 14 11 50 14 140 15 165 0 166 -7 16 -104 -113 -73
-119 -76 -178 -76 -55 0 -67 -4 -144 -53 -46 -30 -85 -58 -88 -65 -2 -6 16
-13 42 -17 41 -7 46 -10 46 -33 0 -16 -13 -39 -32 -59 -35 -36 -31 -40 37 -45
l40 -3 3 -52 c3 -57 22 -71 42 -33 6 12 21 20 35 20 21 0 26 -7 36 -45 6 -25
15 -45 19 -45 5 0 22 17 40 38 17 20 24 26 16 12 -27 -42 -21 -53 24 -47 39 5
40 5 50 -34 12 -42 23 -49 40 -21 9 16 11 16 21 -1 8 -14 14 -16 25 -6 8 6 14
18 14 25 0 25 18 15 29 -16 12 -35 17 -37 39 -10 10 10 29 22 43 25 22 6 28 1
44 -34 16 -36 45 -57 45 -33 0 5 9 59 20 120 20 109 20 113 2 150 -17 34 -17
43 -4 112 13 74 14 75 44 76 43 2 82 47 74 86 -5 24 -3 28 18 28 37 0 79 55
74 97 -3 28 -1 33 17 33 27 0 63 33 71 65 9 36 -3 75 -36 117 l-30 36 165 106
c91 58 170 106 175 106 6 0 10 -9 10 -20 0 -34 17 -23 80 52 69 85 75 103 28
94 l-33 -6 30 25 29 24 11 -27 c11 -27 12 -26 88 77 66 90 89 131 73 131 -2 0
-48 -25 -101 -55 -54 -30 -100 -55 -102 -55 -3 0 49 51 114 114 112 109 118
113 126 90 5 -13 13 -24 17 -24 9 0 140 225 140 241 0 16 -18 10 -63 -21 -25
-16 -47 -30 -49 -30 -3 0 16 40 41 89 25 49 43 93 39 96 -8 8 -218 -123 -218
-135 0 -5 12 -12 26 -17 25 -8 25 -9 -50 -93 -41 -47 -93 -96 -116 -110 -28
-17 -40 -30 -36 -42 2 -10 -3 -23 -11 -29 -12 -11 -13 -8 -7 17 5 23 251 401
285 438 6 6 15 2 23 -10 20 -27 28 -15 65 96 48 147 45 149 -69 49 -81 -72
-97 -99 -60 -99 11 0 20 -3 20 -7 0 -10 -122 -194 -126 -190 -2 1 8 45 22 96
14 51 23 95 20 99 -4 3 -36 -23 -71 -58 -36 -36 -65 -62 -65 -59 0 4 23 50 51
103 49 94 52 97 70 80 11 -9 21 -15 24 -13 10 11 53 235 46 242 -9 9 -171
-164 -171 -182 0 -6 11 -11 25 -11 14 0 25 -6 24 -12 0 -16 -138 -286 -138
-273 -1 6 6 35 14 65 8 30 15 58 15 63 0 15 -22 6 -46 -21 l-25 -27 5 60 c4
33 9 81 12 108 10 71 -11 60 -89 -49 -86 -121 -87 -124 -48 -124 17 0 31 -2
31 -4 0 -9 -63 -171 -69 -178 -3 -4 -5 47 -3 112 2 73 -1 120 -7 120 -5 0 -39
-48 -75 -107 -36 -60 -66 -102 -66 -95 0 6 -6 12 -14 12 -17 0 -140 -205 -132
-219 4 -6 18 -6 36 -1 21 6 30 5 30 -3 1 -42 -97 -530 -107 -534 -7 -3 -34 13
-59 36 -113 99 -212 65 -202 -69 l4 -60 -143 0 -142 0 -15 28 c-8 16 -21 34
-29 41 -8 6 -13 20 -10 31 7 27 -28 79 -76 115 -22 17 -45 42 -52 57 -6 15
-29 44 -51 64 -51 46 -222 129 -313 151 -38 10 -72 19 -74 20 -2 1 5 38 15 83
l18 80 28 -34 c30 -36 111 -82 127 -71 6 3 16 32 22 64 l13 59 36 -30 c21 -16
58 -35 83 -43 l46 -14 10 31 c6 17 11 50 11 74 l0 43 66 -35 c36 -19 72 -34
79 -34 18 0 27 32 27 92 0 26 1 48 3 48 1 0 19 -7 38 -15 20 -8 55 -15 78 -15
l41 0 -4 65 c-3 56 -2 65 12 59 47 -20 115 -33 125 -23 5 5 10 38 10 73 l0 63
63 -5 62 -5 0 52 c0 29 -5 61 -10 72 -10 17 -7 19 23 19 49 0 97 19 97 38 0
10 -9 37 -20 61 -11 24 -20 44 -20 45 0 0 24 1 54 2 32 0 64 7 79 17 22 14 24
20 17 53 -5 21 -18 50 -29 65 -12 16 -21 30 -21 31 0 2 14 5 32 6 44 4 108 41
108 64 0 28 -26 73 -55 96 l-25 20 42 7 c47 8 126 75 113 96 -4 6 -27 23 -51
39 l-43 27 37 11 c21 7 49 23 62 37 28 30 22 47 -28 82 l-32 21 34 20 c46 27
73 68 60 91 -6 9 -33 28 -61 42 l-51 26 29 17 c16 9 41 33 55 52 l27 35 -20
21 c-12 11 -44 28 -72 38 l-51 17 40 18 c38 17 100 75 100 94 0 15 -47 51 -85
64 l-39 14 64 34 c35 18 88 56 117 83 80 73 67 102 -46 105 l-44 1 82 55 c107
72 166 121 202 170 27 36 28 40 12 49 -10 6 -53 10 -95 11 -42 0 -76 0 -75 1
1 1 58 39 126 85 117 77 261 203 261 227 0 68 -425 -77 -732 -248 -59 -33
-109 -60 -112 -60 -8 0 6 225 15 228 37 15 107 74 130 111 38 59 37 105 -2
218 -17 48 -42 124 -54 168 -26 87 -42 105 -93 105 -68 0 -128 -94 -88 -139 8
-9 16 -44 17 -80 l4 -63 -90 -54 c-49 -29 -110 -65 -135 -81 l-45 -28 -3 -96
-3 -97 -97 -30 c-110 -35 -280 -115 -362 -171 -82 -56 -85 -57 -59 -22 26 35
38 135 21 168 -10 17 -6 20 33 31 126 34 181 176 110 283 l-24 37 37 23 c21
14 47 43 60 69 45 90 19 182 -69 244 -21 14 -22 17 -6 34 24 27 47 87 47 124
-1 77 -64 158 -141 178 -34 9 -38 13 -29 30 5 10 10 42 10 70 0 108 -74 184
-181 185 l-59 0 0 34 c0 53 -37 119 -83 149 -33 22 -52 27 -102 27 -40 0 -70
-6 -86 -17 -26 -16 -26 -16 -47 27 -54 111 -201 141 -291 60 l-38 -34 -33 34
c-54 56 -132 69 -206 36z m153 -28 c19 -9 46 -33 60 -55 l26 -38 39 45 c44 50
96 70 154 59 63 -12 124 -80 124 -139 0 -31 13 -32 52 -3 42 29 115 35 162 13
58 -28 86 -77 86 -152 l0 -62 31 11 c41 14 115 5 148 -19 42 -31 73 -101 66
-148 -3 -22 -13 -50 -21 -62 -22 -34 -18 -40 32 -46 140 -15 193 -180 90 -276
-14 -14 -26 -27 -26 -31 0 -3 18 -14 40 -24 55 -24 83 -67 88 -135 5 -71 -22
-116 -91 -150 l-47 -23 34 -39 c96 -105 31 -269 -106 -269 -19 0 -37 -3 -40
-6 -4 -3 3 -26 14 -51 24 -54 19 -100 -17 -154 -40 -61 -111 -80 -204 -53 -22
7 -23 5 -16 -34 9 -53 -20 -120 -65 -152 -61 -43 -152 -36 -204 15 -19 19 -36
12 -36 -16 0 -53 -55 -112 -121 -129 -60 -17 -110 1 -159 57 l-41 47 -30 -37
c-55 -67 -124 -84 -195 -51 -43 21 -71 55 -86 108 -6 22 -13 42 -14 44 -1 2
-19 -8 -39 -23 -41 -27 -63 -31 -137 -26 -28 2 -96 69 -108 107 -7 19 -9 52
-5 74 l7 39 -70 -6 c-61 -5 -75 -3 -106 17 -70 43 -95 134 -56 209 10 21 16
41 13 45 -4 3 -23 6 -43 6 -51 0 -100 35 -128 92 -33 65 -24 116 30 174 l41
44 -34 14 c-41 17 -84 61 -99 101 -26 70 22 170 95 196 19 7 35 16 35 20 0 4
-13 21 -29 37 -34 33 -55 98 -45 139 18 76 86 133 159 133 39 0 43 10 20 50
-35 60 -5 160 60 200 40 24 117 30 152 12 27 -15 31 -9 26 41 -14 117 101 205
212 163 24 -10 49 -24 55 -32 18 -21 28 -17 35 14 23 107 133 162 232 115z
m-1617 -938 c54 -28 66 -80 23 -95 -52 -19 -75 -35 -83 -55 -6 -17 -9 -14 -19
20 -14 51 -14 81 0 108 21 40 36 44 79 22z m3440 -5 c23 -23 27 -90 9 -137
l-11 -28 -9 23 c-5 13 -26 30 -46 38 -58 25 -63 31 -51 66 7 19 22 35 42 44
41 17 43 17 66 -6z m-3428 -173 l-7 -48 -23 21 c-28 26 -25 50 8 67 13 6 25
11 27 10 1 -2 -1 -24 -5 -50z m3393 3 c0 -12 -10 -29 -22 -37 -23 -15 -23 -15
-23 37 0 52 0 52 23 38 12 -9 22 -26 22 -38z m-3501 15 c9 -33 63 -76 228
-175 208 -125 209 -140 5 -140 -135 0 -167 -8 -167 -40 0 -28 -19 -25 -68 10
-53 40 -82 87 -82 136 0 39 59 234 71 234 4 0 10 -11 13 -25z m3645 -200 c1
-63 -22 -103 -86 -149 l-47 -34 -12 27 c-7 16 -19 31 -29 35 -9 3 -72 6 -139
6 -89 0 -127 4 -141 14 -28 20 -16 31 145 126 154 91 216 139 232 179 9 24 12
20 44 -64 20 -56 33 -109 33 -140z m-4271 -160 c265 -71 648 -264 895 -452
116 -88 423 -389 515 -506 57 -72 62 -82 62 -128 0 -44 -5 -55 -51 -111 -96
-117 -128 -235 -99 -359 43 -184 173 -290 383 -314 l57 -6 0 -135 c0 -125 -1
-134 -19 -134 -21 0 -31 19 -31 56 0 24 -1 24 -24 8 -14 -8 -35 -14 -48 -12
-19 2 -23 9 -23 35 l0 32 -31 -20 c-55 -33 -94 -20 -94 32 0 27 -1 27 -36 16
-33 -10 -38 -9 -55 12 -12 15 -17 31 -13 47 6 22 4 24 -17 16 -45 -17 -73 6
-63 51 5 24 3 27 -23 27 -40 0 -53 16 -43 50 8 26 6 29 -18 32 -24 3 -27 7
-25 41 2 31 -1 37 -17 37 -29 0 -42 31 -25 64 13 24 12 29 -5 46 -24 24 -25
47 -4 71 14 16 14 20 -1 43 -14 21 -15 29 -5 41 7 8 19 15 26 15 12 0 11 5 -3
26 -17 26 -16 27 10 48 25 20 26 23 10 39 -23 23 -7 71 25 75 27 4 28 14 2 37
-38 34 -21 59 39 57 l35 -2 -37 31 c-20 17 -37 37 -37 45 0 8 19 23 41 33 l41
19 -54 16 c-93 27 -111 67 -54 121 l35 32 -57 6 c-52 5 -61 10 -97 51 -22 24
-50 57 -61 73 -14 18 -102 72 -240 147 -285 155 -479 269 -637 373 -127 84
-265 202 -237 203 8 0 57 -11 108 -25z m1005 -22 c-3 -27 -6 -49 -7 -49 -1 -1
-46 7 -101 17 -55 10 -119 18 -143 19 -39 0 -43 2 -40 23 3 23 4 23 255 35
l43 2 -7 -47z m3085 31 c6 -2 12 -13 12 -24 0 -16 -6 -20 -34 -20 -31 0 -181
-24 -233 -37 -22 -5 -23 -2 -23 46 l0 51 133 -6 c72 -3 138 -7 145 -10z m783
-45 c-110 -105 -346 -253 -796 -500 -247 -135 -251 -138 -294 -199 -48 -68
-85 -90 -151 -90 l-41 0 36 -31 c60 -53 41 -98 -54 -126 l-56 -16 32 -11 c18
-6 37 -16 44 -22 17 -18 2 -50 -34 -73 l-32 -21 35 2 c20 1 41 -2 48 -6 19
-11 14 -44 -8 -58 -25 -16 -26 -28 -2 -28 10 0 23 -5 30 -12 18 -18 15 -66 -5
-77 -16 -8 -15 -11 10 -20 30 -12 36 -41 11 -62 -14 -12 -14 -14 5 -21 29 -10
37 -35 18 -56 -13 -15 -14 -20 -1 -36 20 -29 17 -63 -8 -80 -20 -15 -21 -16
-5 -34 29 -32 15 -72 -25 -72 -21 0 -22 -4 -7 -31 13 -26 -4 -49 -38 -49 -21
0 -22 -2 -13 -20 18 -35 3 -60 -35 -60 -33 0 -34 -1 -28 -34 4 -28 1 -36 -16
-45 -15 -8 -27 -9 -40 -1 -29 15 -31 13 -25 -18 4 -19 0 -34 -11 -45 -19 -19
-33 -21 -68 -8 -22 8 -24 7 -24 -21 0 -16 -6 -34 -14 -39 -19 -13 -68 -3 -91
18 -17 15 -18 14 -18 -20 0 -31 -4 -37 -20 -37 -12 0 -34 7 -50 15 l-29 15 -3
-37 c-2 -27 -8 -39 -20 -41 -16 -3 -18 8 -18 132 l0 135 48 6 c130 16 219 54
283 122 81 85 113 177 107 302 -3 74 -9 95 -38 149 -18 35 -51 83 -72 106 -35
41 -38 49 -38 105 l0 60 77 93 c107 130 339 360 458 454 255 202 627 394 930
480 125 35 129 32 56 -37z m-3958 -50 c203 -37 417 -121 577 -227 145 -96 323
-271 413 -406 l26 -38 -71 -62 c-39 -33 -71 -61 -73 -61 -1 0 -26 29 -55 65
-110 132 -244 245 -436 365 -134 85 -357 162 -523 183 l-56 7 -3 102 -3 103
48 -6 c26 -3 97 -14 156 -25z m3185 -71 l-3 -102 -80 -13 c-265 -45 -452 -130
-705 -323 -75 -57 -199 -181 -254 -252 l-28 -38 -69 62 c-38 33 -69 64 -69 69
0 19 131 179 212 259 191 188 424 318 693 386 81 21 230 48 293 53 10 1 12
-23 10 -101z m-3213 -160 c105 -24 239 -69 310 -106 69 -34 236 -147 328 -222
83 -67 190 -185 184 -204 -2 -6 -30 -13 -63 -16 -65 -5 -109 -28 -119 -60 -9
-27 8 -46 60 -69 66 -29 122 -114 132 -202 5 -40 11 -53 29 -61 50 -23 204 85
219 154 4 15 4 43 0 61 -5 29 -5 30 9 14 14 -18 15 -18 31 7 17 26 46 33 79
20 21 -8 21 -59 0 -189 -9 -55 -17 -141 -18 -192 -3 -90 -4 -93 -40 -135 -46
-53 -100 -148 -117 -205 l-12 -43 -69 0 -68 0 0 -40 c0 -40 0 -40 -38 -40 -54
0 -147 26 -204 57 -96 52 -162 155 -176 274 -14 116 18 209 103 306 44 50 45
52 45 122 l0 70 -77 93 c-184 220 -424 444 -612 570 l-105 70 50 -7 c27 -4 90
-16 139 -27z m3142 -25 c-47 -32 -123 -87 -168 -123 -107 -84 -351 -327 -457
-454 l-82 -99 0 -70 c0 -68 1 -70 46 -121 54 -58 100 -150 110 -213 3 -24 1
-72 -6 -106 -35 -181 -163 -294 -353 -314 l-57 -6 0 42 c0 36 -3 41 -23 41
-19 0 -25 8 -36 48 -6 26 -22 73 -35 104 l-23 57 51 17 c59 19 86 45 86 84 0
47 38 153 70 197 17 23 54 59 81 79 l50 37 -5 127 c-6 167 -24 196 -102 156
-31 -17 -64 -6 -64 21 0 43 238 250 425 368 113 73 295 139 465 170 117 21
119 19 27 -42z m-3762 22 c40 -9 121 -49 245 -120 176 -100 183 -105 145 -106
-93 -2 -107 -22 -59 -86 13 -17 24 -35 24 -38 0 -12 -214 106 -325 180 -107
71 -205 155 -205 175 0 15 105 12 175 -5z m4459 6 c17 -27 -218 -197 -419
-302 l-115 -61 32 51 c38 62 32 72 -48 79 l-57 5 29 15 c16 8 99 54 185 103
85 49 180 95 210 103 61 16 175 21 183 7z m-3970 -272 c21 -6 80 -33 130 -61
73 -40 99 -60 120 -94 36 -57 91 -104 121 -104 23 0 24 -2 13 -25 -6 -14 -14
-25 -18 -25 -11 0 -177 74 -311 138 -101 48 -135 70 -168 108 -22 26 -41 53
-41 60 0 17 96 19 154 3z m3456 -3 c0 -7 -19 -34 -42 -60 -33 -39 -67 -60
-182 -116 -154 -74 -280 -130 -293 -130 -4 0 -13 11 -20 25 -10 23 -9 25 16
25 31 0 76 40 122 107 31 44 111 95 218 140 65 26 181 33 181 9z m-3637 -91
c158 -79 158 -79 125 -90 -37 -12 -39 -31 -7 -76 l19 -27 -53 19 c-28 11 -111
49 -184 85 -130 64 -240 145 -227 166 4 6 38 9 88 6 77 -5 89 -9 239 -83z
m3991 76 c7 -11 -36 -54 -92 -93 -43 -30 -252 -132 -329 -162 l-42 -15 24 36
c34 49 31 61 -12 69 l-37 7 120 60 c185 94 220 106 296 107 37 0 69 -4 72 -9z
m-2067 -125 c105 -22 211 -63 292 -114 l74 -45 -32 -16 -31 -17 20 -20 c36
-36 36 -84 1 -161 -31 -66 -32 -69 -25 -170 6 -99 6 -103 -21 -148 -26 -46
-27 -46 -47 -28 -11 10 -26 30 -34 45 -19 37 -30 35 -49 -6 -9 -19 -25 -42
-35 -51 -18 -16 -20 -15 -45 34 -14 28 -29 51 -33 51 -4 0 -25 -23 -46 -51
-43 -58 -53 -56 -83 17 -10 24 -21 44 -24 44 -3 0 -23 -16 -43 -35 -45 -42
-60 -44 -75 -7 -18 44 -17 65 8 98 23 31 61 157 61 201 0 18 -8 27 -30 34 -16
6 -32 20 -36 31 -8 26 2 34 21 18 25 -21 29 -3 7 25 -49 63 -93 105 -102 100
-6 -4 -8 -11 -4 -16 4 -7 -16 -8 -56 -3 -61 7 -61 7 -101 -32 l-39 -38 0 44
c0 62 17 118 40 130 10 5 66 10 125 10 l106 0 43 45 c51 52 75 56 193 31z
m-1540 -126 c108 -49 165 -81 188 -105 18 -19 40 -35 49 -35 20 0 21 -14 2
-29 -11 -9 -23 -8 -52 3 -22 8 -103 37 -181 65 -164 58 -197 73 -235 109 -46
43 -36 60 35 61 28 1 83 -19 194 -69z m3151 61 c10 -6 7 -15 -13 -39 -40 -47
-74 -64 -279 -136 -147 -52 -191 -64 -197 -54 -12 18 -11 28 2 28 5 0 27 16
47 36 53 50 321 173 382 173 25 0 51 -3 58 -8z m-3498 -68 c47 -19 96 -38 109
-44 l24 -10 -32 -20 c-31 -19 -31 -20 -16 -49 8 -16 23 -34 32 -40 14 -9 11
-10 -17 -5 -122 22 -296 93 -338 137 l-22 25 20 18 c23 21 82 34 125 27 17 -3
68 -20 115 -39z m3823 18 c15 -8 27 -18 27 -21 0 -14 -58 -60 -106 -83 -46
-23 -242 -87 -266 -87 -5 0 2 15 16 33 33 43 33 52 -5 67 -16 7 -26 16 -22 20
13 11 216 89 243 93 36 5 81 -3 113 -22z m-1292 -51 c16 0 41 7 54 16 31 20
43 12 51 -32 7 -40 -10 -70 -21 -35 -6 18 -14 21 -71 21 -36 0 -74 5 -85 10
-18 10 -18 12 -3 36 17 24 17 24 31 4 9 -12 25 -20 44 -20z m-1381 -6 c0 -22
-20 -27 -41 -9 -18 17 -18 19 -1 31 19 14 42 2 42 -22z m-107 3 c75 -32 166
-167 184 -274 5 -29 2 -34 -30 -49 -48 -23 -67 -14 -67 34 0 86 -90 209 -167
228 -32 9 -29 31 10 54 38 24 30 23 70 7z m317 -34 c0 -16 -7 -37 -15 -47 -9
-12 -15 -42 -15 -77 0 -53 -3 -61 -37 -96 l-37 -38 -8 45 c-21 108 4 197 63
227 37 19 49 16 49 -14z m-976 -64 c100 -34 187 -69 193 -77 10 -13 10 -19 -2
-33 -17 -18 -8 -19 -230 28 -190 40 -288 102 -207 131 45 17 58 14 246 -49z
m3093 39 c11 -9 9 -16 -13 -39 -37 -38 -80 -53 -269 -94 -145 -31 -161 -33
-176 -19 -36 33 -30 37 236 129 133 47 187 52 222 23z m-1997 -3 c0 -8 -9 -15
-20 -15 -20 0 -26 11 -13 23 12 13 33 7 33 -8z m133 -2 c14 -8 6 -129 -13
-203 -11 -41 -20 -100 -20 -130 0 -54 -2 -58 -50 -105 l-50 -49 0 59 c0 33 7
101 15 150 8 50 15 136 15 193 l0 103 48 -7 c26 -3 50 -8 55 -11z m1027 -96
l0 -73 -41 -32 c-88 -67 -137 -157 -155 -284 -6 -45 -8 -47 -52 -62 -59 -21
-67 -12 -67 72 0 60 5 77 48 164 32 64 69 119 110 164 59 64 130 124 149 124
4 0 8 -33 8 -73z m-2669 33 c41 -11 107 -28 147 -37 73 -16 73 -16 48 -32 -33
-20 -33 -32 1 -71 l26 -32 -69 7 c-202 19 -314 52 -354 103 -25 32 -25 39 3
53 58 32 105 34 198 9z m3804 9 c22 -6 48 -17 58 -24 17 -12 16 -14 -10 -45
-15 -18 -46 -41 -68 -51 -44 -19 -172 -43 -289 -54 l-70 -6 27 27 c33 33 34
57 5 76 -22 15 -20 16 47 32 39 9 102 25 140 35 82 23 106 25 160 10z m-2100
-83 c18 -13 19 -18 6 -77 -13 -66 -54 -149 -73 -149 -7 0 -8 15 -4 43 11 72
41 197 46 197 4 0 15 -6 25 -14z m-1253 -23 c108 -22 131 -30 138 -47 15 -40
-4 -44 -165 -31 -82 6 -159 16 -170 22 -23 13 -60 51 -54 57 39 33 88 33 251
-1z m2973 15 c28 -13 30 -18 13 -39 -31 -37 -52 -42 -206 -54 -169 -13 -188
-10 -170 30 9 20 27 26 132 48 137 28 194 32 231 15z m-3375 -98 c30 -4 86 -9
124 -9 l69 -1 -23 -25 -24 -25 23 -31 23 -31 -194 4 c-204 4 -228 9 -272 56
-22 26 -15 39 38 64 43 20 107 20 236 -2z m3786 1 c58 -27 63 -39 26 -72 -46
-41 -90 -49 -281 -49 l-174 0 21 23 c26 27 27 40 7 57 -27 23 -16 30 48 31 34
0 98 6 142 13 115 19 164 18 211 -3z m-1502 -155 c-4 -28 -8 -66 -8 -83 0 -18
0 -33 -1 -33 -1 0 -18 26 -38 58 -31 51 -37 71 -43 142 l-7 84 53 -58 52 -59
-8 -51z m-1843 128 l74 -7 0 -41 0 -41 -115 -3 c-123 -3 -176 6 -204 37 -18
19 -17 21 15 40 37 23 94 26 230 15z m2900 -11 c34 -20 33 -29 -5 -57 -24 -18
-45 -21 -158 -24 -72 -2 -134 0 -139 5 -5 5 -6 25 -3 45 6 36 8 37 53 41 133
10 223 7 252 -10z m-3188 -113 c48 0 49 -1 34 -18 -24 -26 -21 -37 15 -60 l31
-20 -89 -7 c-144 -12 -305 -11 -345 3 -20 7 -44 21 -53 31 -15 16 -15 19 4 36
37 34 106 45 234 40 66 -3 142 -5 169 -5z m308 0 c31 0 39 -4 39 -17 -1 -42
-25 -55 -122 -63 -81 -7 -99 -6 -137 11 l-45 20 21 20 c28 28 76 39 147 34 32
-3 76 -5 97 -5z m2860 -15 c35 -19 36 -28 7 -47 -37 -23 -60 -26 -158 -17 -95
9 -123 23 -117 59 5 31 211 34 268 5z m415 10 c27 -8 58 -22 68 -30 19 -14 19
-15 1 -34 -9 -11 -34 -26 -54 -33 -39 -14 -194 -15 -337 -3 l-88 7 27 20 c31
23 34 40 10 59 -14 12 -3 15 83 20 188 10 240 9 290 -6z m-2128 -57 l21 -48
-26 -30 c-29 -35 -79 -64 -93 -55 -6 3 -10 26 -10 51 0 38 6 51 41 89 23 25
43 44 44 43 1 -2 12 -24 23 -50z m642 -110 c0 -20 -4 -40 -10 -43 -5 -3 -31
14 -56 38 l-47 44 28 47 28 48 28 -49 c17 -29 29 -63 29 -85z m-500 103 c0 -4
11 -24 25 -44 l24 -37 -25 -30 c-14 -16 -39 -39 -54 -50 l-29 -21 -14 28 c-8
15 -17 45 -20 65 -5 35 -3 39 36 68 42 31 57 36 57 21z m180 -47 l25 -45 -26
-47 c-14 -26 -33 -48 -41 -50 -15 -3 -58 65 -58 93 0 17 56 95 69 95 3 0 18
-21 31 -46z m180 -40 c0 -31 -23 -94 -34 -94 -18 1 -42 23 -69 64 l-26 38 30
37 30 38 34 -33 c19 -18 35 -40 35 -50z m-1625 46 c3 -5 3 -20 -1 -34 -5 -21
-18 -27 -87 -46 -83 -23 -145 -23 -172 0 -19 16 -11 32 27 55 44 26 220 45
233 25z m2801 -20 c55 -24 63 -39 33 -63 -28 -23 -89 -20 -182 7 -59 18 -82
41 -70 71 5 15 17 16 92 10 47 -4 105 -15 127 -25z m-1802 -78 c6 -18 -2 -32
-43 -74 l-49 -53 -7 28 c-11 44 3 92 43 141 l37 46 6 -33 c3 -17 9 -42 13 -55z
m-1287 60 c-23 -25 -21 -39 8 -58 14 -9 24 -18 22 -20 -9 -10 -262 -44 -323
-44 -57 0 -78 4 -105 23 -19 12 -34 29 -34 37 0 8 22 25 49 39 50 26 104 32
345 39 52 2 53 1 38 -16z m3498 -8 c97 -27 117 -66 50 -98 -45 -22 -144 -20
-290 4 -66 11 -124 20 -128 20 -5 0 5 12 22 26 29 24 30 26 15 50 l-16 24 148
-6 c82 -3 172 -12 199 -20z m-2035 -88 c6 -6 10 -13 10 -16 0 -16 -93 -100
-110 -100 -9 0 -26 54 -32 102 -2 22 5 32 47 60 l50 34 13 -35 c7 -20 17 -40
22 -45z m558 5 c15 -8 22 -21 22 -41 0 -32 -28 -110 -39 -110 -9 0 -63 57 -84
88 -13 21 -13 28 -1 58 8 18 14 43 14 56 0 21 1 21 33 -9 17 -17 42 -36 55
-42z m-364 -30 c13 -11 14 -17 2 -40 -8 -14 -29 -39 -46 -56 l-32 -30 -28 34
c-34 40 -49 93 -30 99 8 3 29 20 49 38 l36 33 17 -33 c9 -18 24 -38 32 -45z
m182 -59 c-45 -65 -53 -69 -80 -42 -14 12 -30 35 -36 51 -11 25 -9 33 19 76
l32 49 48 -46 47 -45 -30 -43z m278 54 c15 -38 25 -70 23 -73 -3 -2 -20 21
-40 51 -24 39 -33 64 -29 82 6 33 13 24 46 -60z m-1827 51 c6 -13 9 -35 6 -48
-4 -21 -16 -29 -72 -47 -71 -23 -136 -28 -161 -12 -12 7 -12 12 0 34 18 34 44
50 121 74 84 26 94 26 106 -1z m2698 -5 c65 -22 84 -33 103 -61 17 -27 19 -36
10 -43 -43 -26 -224 19 -239 60 -10 26 11 72 31 71 8 0 51 -12 95 -27z m-2944
-48 c-32 -41 -28 -72 12 -82 31 -9 27 -10 -68 -40 -217 -68 -275 -74 -330 -38
-34 23 -31 40 14 85 42 42 50 45 256 80 147 25 140 25 116 -5z m3234 -5 c77
-12 149 -26 160 -31 31 -16 65 -50 81 -81 15 -28 15 -28 -32 -49 -35 -15 -59
-19 -93 -15 -53 7 -292 74 -304 86 -5 5 3 11 17 15 30 8 34 32 10 77 -15 29
-14 31 3 25 10 -2 81 -15 158 -27z m-1935 -104 c15 -18 36 -8 97 48 36 33 46
38 54 26 5 -8 9 -18 9 -23 0 -5 11 -24 26 -43 l25 -33 -225 0 c-192 0 -226 2
-226 15 0 8 12 40 27 72 l26 58 7 -43 c11 -72 24 -74 83 -12 l52 55 17 -53 c9
-29 21 -59 28 -67z m787 9 c13 -12 23 -24 23 -28 0 -3 -27 -6 -60 -6 -33 0
-60 3 -60 8 1 4 7 18 15 32 8 14 15 36 15 50 l1 25 22 -30 c12 -16 32 -40 44
-51z m-198 -32 c-22 -2 -57 -2 -79 0 l-39 3 37 47 36 48 42 -48 42 -47 -39 -3z
m-1617 71 c38 -34 24 -57 -60 -96 -43 -21 -87 -37 -97 -37 -109 1 -72 75 60
123 85 31 75 30 97 10z m1412 -35 l27 -38 -71 0 -71 0 38 45 c20 25 40 42 43
37 3 -4 18 -24 34 -44z m1203 28 c85 -29 116 -48 131 -81 10 -21 8 -26 -8 -35
-32 -17 -62 -12 -147 27 -88 39 -100 55 -65 92 9 11 17 20 18 20 0 1 32 -10
71 -23z m-3976 -102 c17 -25 41 -71 54 -101 l22 -56 -20 -56 c-18 -47 -21 -80
-21 -203 l-1 -146 -28 56 c-16 31 -35 64 -42 72 -54 60 -65 295 -19 433 9 26
17 47 19 47 2 0 18 -21 36 -46z m1119 27 c-17 -33 -11 -51 22 -65 l32 -14 -40
-20 c-195 -99 -286 -126 -348 -102 -22 8 -24 12 -16 41 10 34 42 74 73 91 18
9 263 86 280 87 4 1 3 -8 -3 -18z m3150 -23 c144 -42 172 -58 201 -112 28 -54
21 -66 -44 -73 -54 -6 -86 3 -234 74 l-116 55 33 14 c30 13 32 17 27 50 -5 31
-4 35 11 29 9 -3 64 -20 122 -37z m-2859 12 c40 -22 23 -53 -58 -108 -75 -50
-113 -62 -141 -43 -17 11 -6 54 20 78 15 13 134 76 156 82 2 1 12 -4 23 -9z
m2531 -28 c61 -28 87 -46 96 -66 22 -48 11 -66 -39 -66 -38 0 -179 103 -179
130 0 15 21 38 37 40 2 0 40 -17 85 -38z m-692 -217 l0 -245 -625 0 -625 0 0
245 0 245 625 0 625 0 0 -245z m-2994 170 c3 -25 4 -87 2 -138 -5 -109 -27
-165 -92 -238 -43 -48 -76 -120 -76 -166 0 -13 -4 -23 -9 -23 -25 0 -29 285
-5 375 8 33 27 80 41 104 26 45 107 131 123 131 5 0 12 -20 16 -45z m1244 -40
c0 -12 -25 -45 -59 -79 -54 -53 -64 -59 -110 -64 -49 -4 -51 -4 -51 21 0 32
29 65 105 120 53 39 63 42 87 33 18 -7 28 -18 28 -31z m2432 -53 c27 -25 51
-76 41 -86 -10 -10 -73 -7 -96 5 -12 6 -45 34 -73 61 -55 54 -62 87 -21 106
18 8 31 3 72 -26 28 -19 62 -47 77 -60z m396 -66 c10 -14 25 -39 32 -57 17
-41 2 -51 -65 -46 -41 3 -71 17 -162 73 -109 67 -129 84 -99 84 27 0 46 29 39
61 l-6 31 120 -61 c67 -33 130 -71 141 -85z m-3148 99 c0 -29 4 -36 25 -41 14
-3 25 -9 25 -13 0 -3 -53 -39 -119 -78 -100 -62 -125 -73 -162 -73 -69 0 -76
10 -50 63 12 25 29 51 38 59 16 13 222 116 236 117 4 1 7 -15 7 -34z m380 -35
c11 0 19 -9 23 -25 3 -21 -7 -38 -57 -91 -55 -60 -66 -67 -108 -71 -45 -5 -48
-4 -48 18 0 32 8 44 82 117 35 34 69 60 76 57 8 -3 22 -5 32 -5z m2241 -52
c38 -34 71 -69 73 -78 3 -8 7 -25 11 -37 6 -21 3 -23 -30 -23 -51 0 -83 20
-141 87 -55 63 -59 91 -13 104 13 4 25 7 27 8 2 1 35 -27 73 -61z m1393 -51
c-13 -55 -18 -65 -27 -53 -7 8 -22 16 -34 18 -20 3 -19 7 24 56 25 29 47 51
49 50 2 -2 -4 -34 -12 -71z m-3942 30 c-4 -32 -2 -34 37 -43 l41 -9 -93 -71
c-116 -89 -161 -114 -209 -114 -38 0 -38 0 -38 40 0 54 30 85 160 165 58 36
105 65 105 65 1 0 -1 -15 -3 -33z m2867 -42 c121 -75 137 -92 147 -154 l7 -41
-42 0 c-54 0 -94 21 -214 113 l-98 75 42 7 c40 7 41 8 37 41 -2 19 -1 33 2 32
4 -2 57 -34 119 -73z m-2432 23 c9 -20 3 -34 -38 -94 -48 -69 -94 -104 -139
-104 -17 0 -20 7 -20 44 0 39 6 52 56 110 51 59 60 66 94 66 29 0 39 -5 47
-22z m2004 -25 c57 -65 79 -103 79 -136 0 -34 -19 -42 -64 -27 -60 19 -151
140 -140 185 5 21 12 25 44 25 33 0 44 -7 81 -47z m-175 -17 c14 3 33 -16 74
-76 60 -86 65 -99 56 -136 -8 -30 -43 -32 -79 -4 -34 27 -128 194 -121 214 4
11 12 13 29 6 12 -5 31 -7 41 -4z m-1706 -8 c0 -23 -93 -179 -121 -203 -43
-35 -75 -33 -82 5 -8 37 -1 56 34 98 16 17 38 49 50 70 21 36 26 39 71 40 27
0 48 -4 48 -10z m-422 -78 l47 -1 -93 -89 c-89 -87 -138 -120 -193 -134 -30
-7 -39 6 -39 52 1 54 26 85 125 161 l100 77 3 -33 c3 -32 4 -33 50 -33z m2731
-94 c8 -10 17 -45 19 -78 l5 -60 -34 7 c-60 13 -102 42 -197 134 l-94 91 46 0
c46 0 46 0 46 35 l0 36 98 -74 c53 -41 104 -82 111 -91z m1237 118 c-8 -22
-17 -47 -20 -58 -6 -17 -8 -18 -24 -2 -10 9 -25 16 -33 16 -8 1 8 21 36 45 27
24 51 42 53 41 1 -2 -4 -21 -12 -42z m-5548 5 c92 -40 154 -112 206 -238 l26
-64 -47 7 c-147 20 -270 139 -289 280 l-7 48 34 -7 c18 -4 53 -16 77 -26z
m2107 3 c4 -21 -5 -51 -33 -113 -42 -90 -53 -104 -94 -114 -20 -5 -29 -2 -37
13 -19 35 -13 61 34 147 46 85 47 85 112 94 6 0 14 -12 18 -27z m1501 13 c20
-6 94 -155 94 -188 0 -47 -13 -61 -45 -53 -38 10 -61 39 -100 128 -28 63 -33
83 -25 103 10 25 20 27 76 10z m-3109 -169 c-9 -47 -27 -111 -42 -143 -26 -58
-89 -133 -111 -133 -23 0 -47 89 -40 153 10 101 62 179 166 251 l35 24 3 -34
c2 -18 -3 -72 -11 -118z m1673 50 c0 -66 -3 -78 -26 -106 -34 -40 -47 -28 -47
42 -1 59 33 138 58 138 12 0 15 -15 15 -74z m1350 17 c21 -55 23 -134 4 -152
-3 -3 -17 7 -30 22 -21 25 -24 38 -24 108 0 99 18 107 50 22z m1596 40 c-2
-10 -7 -44 -11 -76 -6 -56 -7 -58 -25 -42 -12 11 -26 14 -41 10 -25 -8 -24 -4
34 73 42 55 51 63 43 35z m-3460 -62 c5 -21 9 -23 45 -17 l41 7 -20 -28 c-47
-64 -134 -164 -157 -179 -14 -9 -45 -19 -70 -22 l-45 -5 0 39 c1 61 20 93 111
184 68 69 85 81 87 65 1 -11 5 -31 8 -44z m2421 -23 c87 -88 103 -116 103
-179 0 -35 -3 -39 -25 -39 -57 0 -104 31 -172 114 -37 44 -73 89 -81 98 -13
16 -11 17 29 15 44 -2 44 -2 47 36 2 20 6 37 10 37 4 0 44 -37 89 -82z m-2254
-72 c20 1 37 -1 37 -5 -2 -22 -132 -190 -165 -212 -64 -44 -81 -45 -89 -8 -11
56 12 109 87 201 l71 88 11 -32 c9 -30 14 -33 48 -32z m2112 -17 c72 -87 95
-131 95 -181 0 -58 -11 -63 -69 -33 -52 26 -103 85 -166 192 l-25 41 39 -5
c39 -5 40 -5 46 31 4 20 9 36 10 36 2 0 33 -36 70 -81z m1388 29 c-8 -29 -16
-59 -19 -66 -3 -10 -10 -9 -31 5 -16 9 -29 18 -31 19 -4 2 82 92 89 93 4 1 0
-23 -8 -51z m-3055 -450 c-3 -477 -3 -483 -23 -480 -11 2 -28 12 -37 24 -17
19 -18 57 -18 479 l0 459 40 0 40 0 -2 -482z m92 -3 l0 -485 -35 0 -35 0 0
485 0 485 35 0 35 0 0 -485z m100 0 l0 -485 -35 0 -35 0 0 485 0 485 35 0 35
0 0 -485z m90 0 l0 -485 -35 0 -35 0 0 485 0 485 35 0 35 0 0 -485z m100 0 l0
-485 -35 0 -35 0 0 485 0 485 35 0 35 0 0 -485z m100 0 l0 -485 -35 0 -35 0 0
485 0 485 35 0 35 0 0 -485z m110 1 l0 -484 -23 -15 c-20 -13 -25 -13 -45 1
l-22 14 0 484 0 484 45 0 45 0 0 -484z m100 -1 l0 -485 -35 0 -35 0 0 485 0
485 35 0 35 0 0 -485z m90 0 l0 -485 -35 0 -35 0 0 485 0 485 35 0 35 0 0
-485z m100 0 l0 -485 -35 0 -35 0 0 485 0 485 35 0 35 0 0 -485z m92 0 l3
-485 -35 0 -35 0 2 477 c2 263 3 481 3 486 0 4 13 7 30 7 l30 0 2 -485z m98 0
l0 -485 -35 0 -35 0 0 485 0 485 35 0 35 0 0 -485z m100 23 c0 -255 -4 -468
-8 -475 -4 -6 -20 -16 -35 -22 l-27 -11 0 485 0 485 35 0 35 0 0 -462z m-1494
362 c8 0 30 6 49 14 40 17 41 23 -20 -109 -46 -99 -79 -139 -140 -166 -49 -22
-55 -16 -55 72 0 63 2 68 62 162 l62 98 14 -36 c8 -19 21 -35 28 -35z m1845
-27 c63 -95 64 -97 63 -165 0 -37 -4 -72 -10 -78 -15 -15 -88 24 -123 66 -29
35 -116 212 -108 220 2 2 20 -2 41 -8 34 -11 40 -10 52 7 8 10 14 27 14 37 0
10 2 18 4 18 2 0 32 -44 67 -97z m1351 30 c-16 -74 -20 -82 -30 -67 -4 5 -18
14 -32 20 l-24 11 48 51 c27 29 50 52 51 52 1 0 -5 -30 -13 -67z m387 5 c-26
-52 -33 -59 -39 -43 -4 11 -17 22 -30 25 -20 5 -17 9 31 42 30 20 57 37 62 37
4 1 -7 -27 -24 -61z m-587 -24 c-3 -56 -7 -73 -15 -65 -6 6 -24 11 -39 11
l-28 0 26 43 c46 73 54 87 57 87 1 0 1 -34 -1 -76z m141 68 c3 -4 -6 -21 -19
-37 -27 -34 -29 -32 -13 14 11 30 23 39 32 23z m-3002 -32 c13 -36 21 -37 61
-8 l31 21 -5 -70 c-8 -113 -72 -228 -150 -269 -33 -17 -38 -10 -45 64 -5 51 0
69 43 174 27 65 50 118 52 118 2 0 8 -13 13 -30z m1534 -85 c43 -101 46 -115
43 -177 -2 -37 -7 -70 -11 -74 -12 -12 -84 44 -115 88 -44 66 -62 121 -62 194
l0 65 22 -21 c30 -28 47 -25 60 11 6 16 12 29 13 27 1 -2 24 -52 50 -113z
m1623 61 c15 -8 35 -23 46 -35 18 -20 18 -21 -14 -68 -19 -29 -30 -39 -27 -26
9 39 -13 37 -56 -4 -106 -98 -105 -99 -41 29 33 65 60 118 62 118 2 0 15 -6
30 -14z m-4931 -165 c28 -59 122 -221 176 -300 27 -40 44 -71 38 -67 -42 26
-251 389 -265 461 -5 24 -2 21 14 -14 11 -24 28 -60 37 -80z m390 -48 c5 -94
2 -127 -16 -207 -20 -88 -52 -155 -76 -163 -11 -3 -47 85 -66 160 -27 109 11
244 92 332 l43 47 9 -29 c4 -15 11 -78 14 -140z m4781 122 c-73 -47 -83 -63
-48 -72 11 -3 20 -8 20 -12 0 -4 -27 -33 -61 -66 l-60 -60 31 74 c17 40 29 75
26 78 -3 3 13 28 36 56 40 47 42 48 50 27 5 -13 7 -24 6 -25z m-408 20 c0 -5
-210 -409 -210 -404 0 5 69 188 150 395 7 16 15 20 34 17 14 -3 26 -6 26 -8z
m474 -60 c-34 -61 -38 -66 -46 -46 -4 13 -17 25 -28 28 -17 5 -10 13 42 48 35
24 64 41 66 40 2 -1 -14 -33 -34 -70z m-668 11 c-4 -17 -15 -58 -25 -91 -16
-50 -19 -55 -20 -29 -1 17 -4 58 -7 90 l-6 59 32 1 c30 1 31 0 26 -30z m239
18 c0 -19 -300 -603 -342 -666 -25 -38 -47 -68 -49 -68 -11 0 55 139 203 428
142 276 188 352 188 306z m-4869 -30 c13 -53 -56 -77 -78 -28 -11 23 -10 29
10 44 28 23 60 15 68 -16z m4686 -74 c-13 -36 -59 -156 -101 -267 -42 -111
-77 -200 -79 -198 -3 2 72 269 139 498 l20 67 23 -17 23 -18 -25 -65z m-132
38 c0 -29 3 -64 7 -78 6 -24 6 -24 -18 -8 -15 9 -36 14 -52 11 l-27 -5 38 66
c20 36 40 66 45 66 4 0 7 -24 7 -52z m-4310 2 c24 -24 26 -53 4 -74 -18 -19
-65 -21 -82 -4 -29 29 -1 98 40 98 10 0 27 -9 38 -20z m-342 -18 c8 -12 21
-22 28 -22 16 0 19 -16 4 -25 -16 -10 -11 -77 8 -98 17 -19 16 -20 -21 -13
-68 13 -127 45 -188 102 -32 32 -59 61 -59 65 0 10 76 17 154 14 49 -1 62 -5
74 -23z m781 -116 c1 -78 -2 -95 -28 -150 -16 -33 -35 -87 -41 -118 -13 -55
-14 -57 -34 -43 -11 8 -28 15 -36 15 -9 0 -26 10 -38 23 -18 19 -20 31 -16 89
2 37 12 90 23 117 22 59 99 171 133 193 22 15 23 14 29 -11 4 -14 7 -66 8
-115z m4271 122 c0 -6 -9 -31 -21 -55 -20 -42 -21 -42 -46 -26 l-25 16 39 38
c40 40 53 47 53 27z m-3033 -65 c-2 -16 -4 -5 -4 22 0 28 2 40 4 28 2 -13 2
-35 0 -50z m-1797 35 c0 -18 -2 -20 -9 -8 -6 8 -7 18 -5 22 9 14 14 9 14 -14z
m4954 -37 c-15 -38 -34 -55 -34 -31 0 6 -7 10 -15 10 -8 0 -15 3 -15 8 1 7 73
61 78 57 2 -1 -5 -21 -14 -44z m-5040 8 c14 -11 26 -27 26 -35 0 -17 -44 -64
-60 -64 -14 0 -60 46 -60 60 0 13 45 60 58 60 5 0 21 -9 36 -21z m4816 -41 c0
-9 -122 -191 -143 -213 -5 -5 18 45 52 112 46 92 65 121 76 117 8 -4 15 -10
15 -16z m-4663 -20 c-18 -12 -25 -10 -37 11 -9 18 -8 18 20 8 20 -8 25 -14 17
-19z m73 22 c0 -5 -8 -10 -17 -10 -15 0 -16 2 -3 10 19 12 20 12 20 0z m4310
-41 c0 -4 -27 -101 -59 -216 -33 -114 -64 -228 -71 -252 -6 -23 -13 -41 -16
-38 -2 2 18 125 46 272 27 147 50 269 50 271 0 3 11 -3 25 -12 14 -9 25 -20
25 -25z m220 -127 c-91 -133 -164 -231 -143 -192 24 46 228 340 235 340 5 0
-36 -66 -92 -148z m-4690 119 c15 -29 13 -31 -30 -31 l-39 0 22 24 c28 30 34
31 47 7z m800 9 c0 -15 -45 -131 -70 -179 -26 -52 -94 -127 -131 -147 -16 -8
-39 -14 -53 -14 -23 0 -25 3 -20 33 23 135 82 240 156 278 69 35 118 47 118
29z m3978 -122 c-63 -73 -139 -163 -171 -201 -72 -85 -75 -74 -4 14 58 73 277
319 284 319 2 0 -47 -60 -109 -132z m162 109 c0 -7 -57 -68 -126 -137 -144
-142 -143 -135 5 38 95 111 121 132 121 99z m-4785 -33 c4 -29 3 -50 -4 -57
-6 -6 -12 -9 -14 -6 -58 82 -61 109 -11 109 18 0 23 -7 29 -46z m4666 33 c0
-5 -18 -28 -40 -52 -23 -25 -41 -42 -41 -40 0 13 66 104 73 102 5 -1 8 -6 8
-10z m-4840 -89 c40 -20 97 -58 124 -85 l50 -48 -84 -3 c-145 -5 -277 40 -373
126 -29 26 -36 37 -26 44 7 5 63 8 124 6 104 -3 114 -5 185 -40z m5023 -11
l-38 -52 -22 20 -22 19 56 33 c32 18 58 33 60 33 2 0 -14 -24 -34 -53z m-4956
23 c13 -21 12 -21 -20 -4 -44 22 -45 24 -17 24 14 0 30 -9 37 -20z m319 -12
c-3 -8 -6 -5 -6 6 -1 11 2 17 5 13 3 -3 4 -12 1 -19z m1453 -217 l0 -210 26
-20 c15 -12 34 -21 42 -21 23 0 -15 -40 -55 -56 -42 -18 -58 -18 -77 2 -22 21
-21 26 20 79 19 26 34 49 31 51 -2 2 -29 -2 -60 -8 -51 -11 -59 -10 -74 5 -17
16 -16 19 2 54 11 20 43 54 70 76 28 22 41 37 31 33 -84 -31 -166 -29 -166 4
0 17 56 80 72 80 4 0 8 7 8 15 0 13 -9 15 -50 9 -55 -7 -62 1 -27 33 36 33
143 77 200 82 4 1 7 -93 7 -208z m1408 177 c53 -20 112 -62 112 -80 0 -7 -20
-8 -55 -3 -30 3 -55 2 -55 -2 0 -5 20 -23 45 -41 32 -23 45 -38 45 -56 0 -30
-20 -38 -81 -30 -27 4 -49 3 -49 -1 0 -4 18 -27 40 -52 22 -25 40 -54 40 -63
0 -41 -50 -49 -122 -21 l-28 11 0 185 0 185 28 -6 c15 -4 51 -16 80 -26z
m-2868 -33 c0 -42 -3 -55 -15 -55 -8 0 -15 4 -15 10 0 13 23 100 27 100 2 0 3
-25 3 -55z m-190 35 c0 -5 -2 -10 -4 -10 -3 0 -8 5 -11 10 -3 6 -1 10 4 10 6
0 11 -4 11 -10z m4740 -20 c-1 -9 -135 -97 -160 -105 -19 -5 -8 10 44 62 63
63 72 68 93 59 12 -6 23 -13 23 -16z m-1407 -130 c44 -46 51 -90 15 -90 -33 0
-143 55 -175 86 l-27 27 28 14 c22 12 27 19 22 39 l-6 24 52 -31 c29 -16 70
-48 91 -69z m-1937 75 c-6 -17 19 -45 42 -45 31 0 -38 -57 -109 -90 -76 -35
-102 -36 -107 -3 -4 27 67 101 124 132 47 24 58 26 50 6z m-1682 -47 c15 -24
-3 -52 -37 -56 -33 -4 -53 28 -37 59 14 25 58 23 74 -3z m65 2 c5 0 6 -11 3
-25 -7 -37 -37 -33 -37 5 0 21 4 29 13 25 8 -3 17 -5 21 -5z m427 -4 c19 -14
18 -15 -8 -43 -16 -16 -28 -39 -28 -51 0 -29 -34 -29 -54 0 -23 33 -19 64 10
87 31 25 53 26 80 7z m-312 -16 c17 -16 -3 -26 -43 -22 -32 3 -41 8 -41 22 0
16 6 18 38 13 20 -3 41 -9 46 -13z m155 -36 c24 -30 42 -57 39 -59 -3 -3 -35
8 -71 25 -37 16 -73 30 -82 30 -9 0 -15 9 -15 24 0 24 12 30 70 34 8 1 35 -24
59 -54z m4629 15 c-29 -36 -33 -38 -39 -21 -4 11 -14 24 -21 28 -9 6 -1 12 27
20 64 20 68 16 33 -27z m-128 12 c0 -5 -15 -20 -32 -32 l-33 -22 29 31 c32 34
36 37 36 23z m-4245 -41 c16 -18 17 -22 3 -37 -9 -10 -19 -28 -22 -40 l-7 -21
-24 24 c-13 13 -33 24 -45 24 -11 0 -20 3 -20 6 0 11 23 49 34 56 21 14 63 8
81 -12z m4290 11 c-23 -21 -227 -152 -214 -137 20 22 196 145 209 146 8 0 10
-3 5 -9z m-4644 -33 l64 -22 -65 -13 c-36 -7 -93 -27 -127 -43 l-61 -30 -55
20 c-54 20 -86 45 -74 56 3 3 34 17 69 30 82 30 164 31 249 2z m1515 -28 c19
-1 19 -1 -1 -15 -29 -22 -150 -59 -169 -52 -27 11 -3 43 57 77 51 29 52 29 72
10 12 -11 30 -20 41 -20z m1830 -35 c9 -14 14 -29 10 -32 -9 -9 -92 12 -151
38 l-50 22 29 8 c17 5 34 15 38 24 8 13 15 12 58 -10 27 -14 57 -37 66 -50z
m-2882 34 c45 -36 30 -95 -30 -113 -31 -9 -74 28 -74 64 0 29 38 70 65 70 7 0
24 -9 39 -21z m799 -13 c17 -13 17 -15 -7 -41 -14 -15 -28 -36 -32 -47 -4 -15
-13 -18 -37 -16 -47 4 -45 30 4 77 46 46 47 46 72 27z m2237 -25 c47 -44 50
-74 10 -79 -20 -2 -32 8 -61 46 -32 43 -34 50 -20 60 24 16 27 15 71 -27z
m-3320 0 c-5 -11 -10 -29 -10 -40 0 -13 -20 -33 -60 -60 -93 -62 -160 -83
-272 -89 -54 -2 -98 -1 -98 2 0 18 32 65 67 98 70 68 179 104 326 107 54 1 57
0 47 -18z m117 -17 c15 -24 15 -29 2 -53 -11 -20 -22 -26 -49 -26 -27 0 -38 6
-49 26 -13 24 -13 29 2 53 12 18 26 26 47 26 21 0 35 -8 47 -26z m1033 -34
c12 -7 34 -7 60 -1 l41 9 -24 -31 c-27 -36 -73 -56 -129 -56 -32 -1 -38 2 -38
20 0 25 16 56 44 87 21 24 21 24 24 3 2 -12 12 -26 22 -31z m193 10 c-4 -24
-1 -46 7 -55 10 -12 7 -17 -16 -26 -49 -19 -88 -17 -92 6 -3 14 11 33 49 67
30 26 55 48 56 48 0 0 -1 -18 -4 -40z m1737 -47 c16 -20 18 -29 8 -40 -12 -15
-38 -12 -90 8 -26 11 -26 12 -12 35 13 19 14 30 5 54 l-10 31 39 -31 c22 -17
49 -43 60 -57z m185 11 c20 -42 13 -54 -27 -54 -56 0 -107 22 -134 58 -28 37
-30 35 34 17 36 -10 62 3 62 32 l0 26 24 -22 c14 -13 32 -39 41 -57z m-2695
46 c30 -30 27 -105 -6 -154 -26 -38 -27 -38 -38 -18 -12 22 -12 22 -28 2 -10
-11 -30 -22 -45 -25 -56 -12 -115 -38 -165 -71 -61 -41 -101 -44 -124 -9 -22
34 -11 74 34 118 38 37 113 76 145 77 13 0 16 -5 12 -23 -5 -17 1 -33 20 -55
33 -39 41 -40 59 -3 20 37 40 44 82 26 19 -8 34 -10 34 -5 0 17 -86 100 -104
100 -23 0 -11 17 28 41 40 24 71 24 96 -1z m3303 -6 l39 -26 -39 -19 c-21 -11
-51 -37 -66 -59 -31 -44 -30 -47 14 -24 28 14 33 14 56 -1 14 -10 28 -26 30
-36 3 -10 11 -19 18 -19 21 0 55 50 55 81 0 37 19 38 88 3 65 -32 112 -85 112
-125 0 -78 -53 -92 -135 -34 -27 20 -79 45 -114 56 -36 11 -76 27 -89 35 -20
13 -23 13 -28 -1 -17 -44 -82 81 -69 132 16 66 65 80 128 37z m-3699 -31 c19
-23 19 -23 -2 -23 -17 0 -22 6 -22 27 0 14 1 24 3 22 1 -2 11 -14 21 -26z
m287 -43 c21 -17 21 -19 6 -20 -10 0 -29 -12 -43 -27 -21 -23 -27 -25 -34 -13
-14 22 -12 41 7 62 21 23 35 23 64 -2z m2398 -17 c36 -44 39 -68 10 -83 -25
-14 -63 -6 -101 21 -35 26 -35 31 3 48 18 8 34 22 36 32 8 27 18 24 52 -18z
m1081 17 c24 -24 24 -30 6 -56 -14 -18 -15 -18 -35 8 -12 15 -31 28 -44 30
-21 3 -20 4 8 20 38 22 41 22 65 -2z m-2909 -9 c8 -19 -23 -79 -44 -87 -19 -6
-67 20 -67 37 0 6 12 23 28 38 29 30 73 36 83 12z m2353 -12 c32 -38 33 -53 2
-67 -32 -14 -63 -5 -69 21 -3 12 -8 32 -12 44 -6 17 -2 22 17 26 12 2 26 5 30
6 3 0 18 -13 32 -30z m-1945 5 c-7 -9 -15 -34 -18 -57 -5 -37 -12 -46 -54 -74
-58 -39 -124 -60 -140 -44 -7 7 3 24 32 56 23 25 46 55 52 68 11 23 78 60 118
64 20 3 22 1 10 -13z m1544 -15 c20 -11 37 -24 37 -29 0 -5 21 -35 46 -66 30
-36 42 -60 36 -66 -15 -15 -80 7 -139 47 -43 29 -52 39 -51 64 1 17 -7 42 -16
56 l-18 27 34 -7 c18 -4 50 -16 71 -26z m-2938 -6 c-26 -104 -126 -231 -219
-276 -83 -41 -90 -38 -82 30 18 152 135 269 275 272 31 1 33 -1 26 -26z m55
-70 c-1 -166 -37 -271 -123 -355 -41 -40 -42 -40 -48 -17 -4 13 -7 61 -8 106
l-1 82 42 48 c38 44 98 154 111 203 3 11 10 20 16 20 7 0 11 -31 11 -87z m69
67 l25 0 -26 -27 c-14 -16 -28 -35 -31 -43 -4 -10 -6 -8 -6 6 -1 12 -4 37 -7
55 -6 28 -4 32 7 22 7 -7 24 -13 38 -13z m1040 -7 c-19 -22 -105 -63 -133 -63
-30 0 -40 13 -32 45 5 20 11 24 34 19 15 -2 50 1 77 9 56 15 72 12 54 -10z
m2043 1 c31 6 53 -20 42 -48 -12 -32 -83 -16 -157 36 -40 28 -25 37 35 21 29
-8 65 -12 80 -9z m-1584 -3 c-2 -5 -28 -30 -58 -56 -116 -99 -244 -132 -184
-47 12 17 25 22 62 22 50 0 112 32 131 68 9 17 55 29 49 13z m239 -32 c-2 -40
0 -43 42 -66 11 -7 -94 -82 -116 -83 -21 0 -41 28 -36 53 5 27 88 137 103 137
5 0 8 -18 7 -41z m153 34 c0 -9 -57 -53 -83 -64 -35 -15 -52 -1 -43 35 4 15
14 26 29 28 35 5 97 6 97 1z m338 -21 c14 -21 13 -25 -1 -39 -13 -13 -20 -14
-45 -4 -16 7 -42 25 -57 41 l-27 28 58 -2 c47 -2 60 -6 72 -24z m75 -11 c39
-43 67 -91 67 -115 0 -8 -9 -20 -19 -26 -26 -13 -58 0 -105 41 l-37 32 23 11
c19 10 23 20 22 54 0 23 3 42 6 42 4 0 24 -18 43 -39z m250 7 c36 -39 83 -60
129 -57 34 3 42 0 54 -21 31 -57 0 -66 -85 -24 -67 34 -176 132 -144 130 12 0
32 -13 46 -28z m-1444 5 c-78 -104 -162 -156 -197 -121 -18 18 3 45 52 67 24
10 61 31 82 45 46 31 84 36 63 9z m817 -54 c-9 -60 -15 -73 -33 -80 -26 -10
-53 12 -53 42 0 18 74 109 90 109 4 0 2 -32 -4 -71z m1018 46 c18 -13 53 -33
78 -45 53 -23 71 -41 62 -64 -9 -22 -50 -20 -90 5 -34 21 -114 105 -114 120 0
17 32 9 64 -16z m-944 -25 c4 0 10 9 13 20 11 43 27 19 27 -40 0 -75 -21 -130
-50 -130 -35 0 -50 75 -33 161 6 33 6 33 21 11 8 -12 18 -22 22 -22z m150 -61
c0 -40 -24 -55 -55 -35 -22 15 -25 23 -25 78 l0 62 40 -39 c27 -26 40 -48 40
-66z m-1411 68 c8 -11 6 -18 -9 -32 -11 -10 -25 -36 -32 -57 l-11 -38 -112 0
-112 0 -12 56 -13 56 -30 -36 c-52 -64 -61 -35 -9 31 l26 33 151 0 c115 0 154
-3 163 -13z m2861 -19 c16 -18 30 -42 30 -52 0 -17 -5 -15 -35 14 l-34 33 -11
-27 c-5 -15 -10 -38 -10 -52 l0 -24 -120 0 c-105 0 -120 2 -120 17 0 9 -11 36
-26 60 -14 24 -22 48 -19 53 4 6 70 10 161 10 l154 0 30 -32z m-3264 -74 c-8
-29 -29 -31 -56 -4 -28 28 -25 35 18 52 35 13 37 13 40 -5 2 -10 1 -30 -2 -43z
m535 55 c19 -10 19 -10 -1 -39 -47 -65 -141 -92 -148 -42 -2 12 6 38 18 57 20
32 26 35 66 35 25 0 54 -5 65 -11z m2379 -21 c11 -18 19 -44 18 -58 -2 -20 -9
-26 -36 -28 -27 -3 -40 5 -85 47 l-52 50 25 10 c14 5 44 10 68 10 37 1 45 -3
62 -31z m490 -8 c0 -3 -11 -17 -24 -30 -35 -32 -56 -21 -56 29 l0 39 40 -15
c22 -9 40 -19 40 -23z m-3498 -26 c7 -14 23 -31 37 -39 l26 -13 -45 -42 c-59
-55 -122 -85 -150 -70 -22 12 -40 41 -40 64 0 24 50 75 99 101 58 30 59 30 73
-1z m1578 7 c0 -10 7 -24 15 -31 23 -19 18 -35 -19 -74 -36 -38 -74 -47 -96
-21 -17 20 -4 51 42 101 44 48 58 54 58 25z m457 -89 c7 -28 -12 -52 -41 -52
-25 1 -43 14 -74 54 l-22 28 20 25 c11 14 20 33 20 41 0 22 89 -67 97 -96z
m1560 78 c28 -16 59 -40 67 -52 37 -52 3 -125 -52 -112 -50 13 -188 124 -152
124 18 0 60 40 60 57 0 20 20 16 77 -17z m-3422 -86 c-17 -26 -35 -30 -53 -12
-24 24 -13 62 26 90 l37 26 3 -40 c2 -24 -3 -49 -13 -64z m800 79 c0 -25 -10
-33 -75 -66 -81 -41 -142 -53 -147 -27 -3 19 70 70 100 70 13 0 43 11 67 24
58 30 56 30 55 -1z m1609 2 c27 -14 60 -25 74 -25 31 0 103 -51 99 -70 -5 -26
-66 -14 -146 27 -64 33 -75 42 -76 66 0 15 -1 27 0 27 0 0 22 -11 49 -25z
m819 -41 c20 -34 -33 -85 -54 -53 -16 24 -27 78 -22 99 5 19 6 19 37 -6 17
-15 35 -33 39 -40z m-2743 21 c16 -19 53 -19 91 1 17 8 34 12 37 9 18 -18
-126 -95 -178 -95 -10 0 -26 7 -35 16 -14 15 -13 19 22 50 44 38 46 39 63 19z
m2103 0 c46 -19 72 -19 91 1 14 14 20 12 56 -18 22 -18 40 -36 40 -41 0 -20
-51 -30 -92 -18 -47 14 -138 68 -138 82 0 12 1 12 43 -6z m-1073 -105 c-25
-68 -49 -93 -82 -88 -49 7 -31 92 34 159 l41 42 14 -28 c13 -24 13 -33 -7 -85z
m188 71 c48 -60 68 -146 36 -158 -32 -12 -61 14 -89 81 -24 56 -26 70 -17 91
11 23 14 24 34 14 13 -7 29 -19 36 -28z m-428 -20 c0 -11 -36 -67 -80 -126
-44 -58 -101 -142 -127 -186 -25 -44 -60 -92 -77 -106 -39 -33 -130 -76 -134
-63 -6 18 29 135 54 178 34 57 117 150 221 244 65 60 92 78 114 78 22 0 29 -5
29 -19z m802 -103 c69 -68 142 -148 161 -178 37 -57 71 -156 65 -190 -3 -19
-4 -19 -43 -1 -72 33 -123 79 -151 133 -30 59 -118 190 -175 259 -21 25 -41
57 -44 72 -7 25 -5 27 27 27 31 0 49 -14 160 -122z m-2160 90 c2 -13 13 -27
26 -33 12 -5 22 -13 22 -17 0 -4 -28 -36 -63 -72 -45 -48 -70 -66 -88 -66 -72
0 -83 77 -16 119 18 11 48 36 66 55 41 42 48 44 53 14z m3451 -72 c50 -40 59
-66 30 -98 -9 -10 -27 -18 -40 -18 -25 0 -99 62 -135 112 l-20 29 26 20 c14
11 26 28 26 37 0 12 8 8 33 -14 17 -17 53 -47 80 -68z m-1753 38 c19 -57 -2
-174 -31 -174 -18 0 -39 68 -39 124 0 70 7 86 35 86 18 0 26 -8 35 -36z m1500
-25 c-102 -91 -130 -111 -146 -105 -9 4 -27 -1 -40 -9 -14 -9 -24 -11 -24 -5
0 13 220 159 240 159 8 0 -5 -18 -30 -40z m-3026 -73 c65 -98 107 -193 135
-303 12 -45 21 -86 21 -91 0 -6 -15 5 -34 24 -37 37 -75 44 -97 18 -12 -14
-15 -2 -26 84 -14 111 -38 181 -85 250 -36 53 -37 59 -13 95 22 35 29 30 99
-77z m1928 -94 c99 -146 162 -323 143 -399 l-6 -24 -43 30 c-80 55 -151 144
-186 234 -18 45 -56 128 -86 185 -63 120 -67 144 -26 136 16 -3 35 1 47 9 18
14 22 11 63 -42 25 -31 67 -89 94 -129z m-671 165 c32 1 36 -2 32 -21 -5 -18
-58 -132 -170 -364 -28 -57 -119 -155 -171 -185 l-32 -18 0 68 c1 120 61 251
207 448 51 69 68 85 81 79 9 -5 33 -8 53 -7z m1764 -87 c-44 -44 -81 -76 -83
-70 -2 6 18 30 44 53 27 23 62 54 79 69 58 53 39 27 -40 -52z m38 -41 c-51
-59 -74 -79 -93 -79 -22 0 -14 10 59 84 47 47 88 83 93 80 4 -3 -22 -41 -59
-85z m-1627 -108 c-21 -126 -39 -346 -33 -394 3 -21 1 -54 -5 -73 -13 -50 -78
-158 -89 -147 -17 17 -28 179 -19 275 16 162 85 459 118 503 l17 23 14 -45
c11 -40 11 -60 -3 -142z m150 164 c21 -21 91 -305 110 -447 19 -144 10 -338
-16 -338 -4 0 -25 34 -46 76 l-39 76 -7 162 c-4 88 -16 212 -27 275 -16 95
-17 122 -8 162 7 27 13 49 15 49 2 0 10 -7 18 -15z m-253 -17 c12 -7 23 -13
25 -14 1 -1 -9 -43 -23 -95 -14 -52 -34 -139 -45 -194 -30 -155 -67 -244 -137
-324 l-38 -45 -7 40 c-11 60 11 208 47 320 30 91 138 324 150 324 3 0 15 -6
28 -12z m428 -124 c90 -186 144 -407 125 -509 l-8 -40 -39 45 c-58 66 -104
170 -129 290 -22 105 -65 285 -75 312 -4 9 5 18 22 24 36 14 41 8 104 -122z
m1394 16 c-42 -87 -61 -104 -67 -61 -3 18 9 51 35 100 36 66 41 71 55 57 15
-14 13 -23 -23 -96z m-366 67 c-6 -13 -23 -28 -37 -34 -15 -7 -46 -28 -69 -49
l-43 -37 0 27 c0 18 -5 26 -17 26 -10 0 -24 4 -31 9 -10 6 2 18 45 44 47 30
68 37 110 37 51 0 52 -1 42 -23z m306 -27 c-22 -43 -60 -77 -74 -64 -3 3 90
114 96 114 2 0 -8 -23 -22 -50z m-235 10 c-14 -11 -29 -20 -35 -20 -5 0 1 9
15 20 14 11 30 20 35 20 6 0 -1 -9 -15 -20z m53 -10 c-6 -22 -40 -46 -51 -36
-6 7 37 56 49 56 4 0 5 -9 2 -20z m313 3 c-3 -10 -10 -46 -17 -80 -11 -62 -38
-101 -58 -88 -6 3 -11 13 -11 20 0 21 73 165 83 165 5 0 6 -8 3 -17z m-1697
-87 c52 -299 51 -480 -3 -649 l-22 -72 -22 58 c-56 147 -65 371 -26 623 16
106 18 110 40 106 19 -3 24 -14 33 -66z m1307 29 c8 -33 8 -33 -72 -118 l-72
-75 -6 39 c-6 35 -9 39 -36 39 -16 0 -31 4 -34 9 -3 5 27 36 67 69 59 50 79
61 109 62 32 0 39 -4 44 -25z m84 -24 c0 -10 -23 -48 -51 -85 -50 -66 -51 -67
-63 -44 -11 20 -8 28 23 66 20 23 36 48 37 55 2 25 5 27 29 27 18 0 25 -5 25
-19z m46 -106 c-41 -71 -56 -87 -56 -55 0 13 -8 24 -19 27 -18 5 -17 9 15 53
19 26 34 54 34 63 0 26 44 26 53 -1 7 -17 0 -37 -27 -87z m74 86 c0 -6 -4 -13
-10 -16 -5 -3 -10 1 -10 9 0 9 5 16 10 16 6 0 10 -4 10 -9z m30 -31 c0 -5 -5
-10 -11 -10 -5 0 -7 5 -4 10 3 6 8 10 11 10 2 0 4 -4 4 -10z m-35 -39 c4 -13
-11 -53 -41 -113 -34 -66 -49 -87 -52 -73 -2 11 -8 25 -13 31 -8 10 79 174 93
174 4 0 9 -9 13 -19z m88 -7 c4 -24 -28 -139 -51 -179 -7 -14 -11 -12 -22 15
-8 19 -18 29 -26 26 -19 -7 -18 -4 16 65 17 33 28 64 25 69 -6 9 22 29 41 30
7 0 14 -12 17 -26z m103 -83 c-4 -20 -12 -61 -18 -91 l-10 -54 -14 27 c-16 29
-33 33 -66 16 -17 -9 -20 -9 -16 2 3 8 16 46 28 85 17 52 30 76 49 87 25 15
27 15 39 -10 9 -16 11 -39 8 -62z m-441 29 c3 -5 -3 -10 -14 -10 -12 0 -21 5
-21 10 0 6 6 10 14 10 8 0 18 -4 21 -10z m35 -55 c-7 -8 -17 -12 -23 -8 -6 4
-3 9 9 14 27 11 28 11 14 -6z m-2712 -17 c17 -19 62 -108 62 -124 0 -2 -15 -4
-32 -4 -42 0 -93 31 -112 69 -14 27 -14 31 5 55 25 32 49 33 77 4z m2795 2 c4
-15 0 -20 -14 -20 -17 0 -18 3 -9 20 6 11 12 20 14 20 2 0 6 -9 9 -20z m99
-62 c-7 -7 -12 -8 -12 -2 0 14 12 26 19 19 2 -3 -1 -11 -7 -17z"/>
<path d="M2933 5826 c-11 -18 -37 -40 -56 -49 -60 -29 -89 -23 -169 35 -21 15
-48 -5 -48 -36 0 -64 -81 -123 -154 -111 -85 14 -80 16 -86 -50 -8 -95 -49
-142 -131 -149 -24 -2 -47 -4 -51 -5 -13 -2 -8 -35 7 -55 22 -29 19 -105 -5
-144 -13 -20 -38 -41 -65 -53 -25 -11 -45 -25 -45 -30 0 -6 16 -29 35 -52 31
-35 35 -47 35 -94 0 -49 -4 -57 -41 -98 -22 -24 -38 -49 -34 -55 3 -6 21 -16
38 -24 18 -7 43 -26 57 -41 21 -22 25 -36 25 -83 -1 -31 -7 -71 -15 -89 -8
-18 -11 -35 -8 -38 3 -3 25 -8 48 -10 83 -9 122 -55 130 -155 4 -58 7 -65 25
-62 93 13 103 13 132 -2 41 -21 71 -60 79 -103 8 -44 26 -50 65 -22 69 49 167
29 207 -41 21 -37 38 -44 54 -23 37 46 81 82 106 85 41 5 92 -8 124 -32 36
-27 53 -21 61 20 10 48 42 86 89 104 35 14 49 15 89 6 60 -15 71 -8 63 35 -8
45 10 95 46 130 22 21 42 29 82 33 29 3 56 9 59 15 4 5 -2 30 -13 54 -35 79
-5 153 77 192 25 12 45 25 45 29 0 4 -16 25 -35 46 -58 64 -56 142 5 201 40
38 37 56 -12 80 -23 11 -51 32 -62 47 -26 36 -27 115 -2 153 23 35 14 55 -24
55 -47 0 -94 24 -121 61 -19 27 -24 47 -24 94 l0 60 -73 -4 c-65 -3 -76 -1
-106 22 -32 25 -48 54 -60 110 -8 33 -17 34 -64 2 -69 -47 -171 -25 -207 45
-20 39 -45 38 -72 -4z m132 -82 c19 -7 43 -14 54 -14 19 0 19 -2 -5 -91 -27
-103 -28 -112 -12 -107 6 2 17 24 24 49 7 24 19 70 28 102 10 33 22 57 30 57
7 0 25 9 39 20 l25 20 7 -30 c4 -16 18 -46 32 -66 l25 -37 -20 -36 c-11 -20
-52 -90 -90 -156 -49 -83 -67 -123 -60 -130 7 -7 12 -7 15 0 2 6 44 78 92 160
60 102 93 148 102 145 8 -3 42 -5 77 -5 l62 1 0 -31 c0 -25 -15 -45 -80 -110
-72 -71 -95 -105 -72 -105 4 0 41 34 82 75 l74 74 14 -30 c17 -33 52 -61 97
-76 30 -10 29 -10 -53 -52 -45 -24 -82 -47 -82 -52 0 -16 19 -10 98 30 l77 39
0 -72 c0 -39 3 -77 5 -85 4 -10 -19 -21 -87 -39 -64 -17 -93 -30 -93 -40 0 -9
7 -13 18 -9 9 2 54 15 99 27 l83 23 44 -24 44 -23 -29 -33 c-16 -18 -31 -44
-35 -58 l-6 -25 -166 -2 c-121 -2 -166 -6 -170 -15 -3 -10 35 -13 166 -13
l169 0 6 -37 c4 -21 19 -51 34 -68 l28 -30 -34 -17 c-33 -17 -37 -16 -139 12
-95 27 -137 31 -115 10 4 -4 52 -20 106 -35 96 -27 97 -28 80 -47 -14 -15 -18
-37 -18 -88 0 -78 5 -78 -97 -8 -63 42 -68 44 -68 25 0 -8 34 -35 76 -62 l77
-48 -50 -23 c-28 -12 -59 -33 -69 -47 l-19 -26 -72 72 c-49 47 -76 68 -83 61
-6 -6 15 -35 65 -84 71 -71 75 -77 75 -120 l0 -45 -71 2 -71 1 -65 109 c-69
116 -88 140 -96 126 -3 -5 26 -60 63 -123 38 -63 69 -120 70 -127 0 -7 -6 -16
-14 -20 -19 -11 -56 -74 -56 -95 0 -23 -9 -22 -41 5 -20 17 -33 47 -55 130
-17 65 -33 107 -41 107 -17 0 -17 -3 12 -101 32 -109 32 -109 -10 -109 -36 0
-86 -20 -115 -46 -13 -11 -15 -3 -15 74 0 126 -19 121 -23 -6 l-3 -103 -33 35
c-20 22 -49 40 -78 47 l-45 12 23 91 c28 107 28 106 11 106 -9 0 -22 -36 -37
-101 -23 -96 -26 -103 -56 -115 -18 -8 -35 -18 -39 -24 -11 -17 -25 -11 -25
10 0 25 -23 72 -43 89 -13 10 -4 31 59 147 75 136 84 159 62 152 -10 -4 -137
-225 -150 -261 -2 -5 -24 -3 -50 4 -34 10 -56 10 -81 2 l-35 -11 5 37 c4 28
23 53 84 116 44 44 79 84 79 88 0 21 -32 0 -95 -63 l-71 -71 -25 38 c-14 22
-42 47 -66 58 l-41 20 79 43 c72 39 97 62 68 62 -11 0 -77 -35 -156 -82 l-33
-19 16 38 c15 36 15 96 0 134 -6 12 12 21 89 44 52 15 95 31 95 35 0 17 -18
16 -110 -12 l-100 -30 -26 21 c-15 12 -33 21 -40 21 -21 0 -17 14 11 40 13 12
29 38 35 56 l11 34 165 2 c101 2 164 7 164 13 0 6 -62 10 -164 10 l-164 0 -6
34 c-3 19 -19 51 -35 71 l-29 37 33 12 c28 10 48 8 139 -15 99 -25 133 -26
110 -5 -5 5 -51 19 -102 31 -51 12 -91 25 -89 29 28 51 38 91 34 128 -5 48 -8
49 90 -14 28 -18 57 -33 63 -33 28 0 -3 29 -80 75 l-84 50 43 8 c29 6 55 21
80 46 l38 38 69 -69 c38 -37 72 -68 77 -68 20 0 1 26 -65 89 -71 67 -72 70
-73 119 0 50 1 51 25 44 14 -4 46 -6 72 -5 l47 2 90 -155 c81 -136 111 -176
111 -145 0 5 -40 78 -90 162 l-90 153 31 32 c17 17 36 47 43 67 l12 35 28 -23
c22 -18 34 -43 56 -125 30 -107 35 -118 47 -106 6 6 -24 140 -42 188 -5 13 3
16 41 16 32 1 59 9 86 27 l38 25 0 -90 c0 -49 4 -90 9 -90 5 0 12 45 16 101
l7 100 24 -26 c13 -14 40 -33 59 -41z"/>
<path d="M2941 5551 c-20 -38 -24 -41 -63 -41 l-42 0 33 -34 c29 -29 32 -38
26 -70 -8 -41 -6 -42 35 -21 27 14 33 14 60 0 41 -21 43 -20 36 23 -5 33 -2
42 19 62 34 32 31 40 -10 40 -32 0 -38 4 -55 41 l-18 42 -21 -42z m33 -46 c3
-8 15 -15 27 -15 21 0 21 -1 6 -18 -10 -11 -14 -26 -10 -41 5 -21 4 -22 -16
-12 -15 9 -26 9 -42 0 -19 -10 -20 -9 -14 11 4 14 1 28 -11 41 -16 18 -16 19
5 19 12 0 24 7 27 15 4 8 10 15 14 15 4 0 10 -7 14 -15z"/>
<path d="M2581 5321 c-19 -36 -25 -41 -56 -41 -42 0 -44 -8 -10 -40 22 -21 25
-29 19 -67 l-6 -44 35 21 36 21 39 -20 40 -20 -10 42 c-9 39 -7 44 21 69 34
30 31 38 -16 38 -30 0 -36 5 -53 41 l-18 42 -21 -42z m33 -46 c3 -8 15 -15 26
-15 23 0 26 -13 6 -29 -8 -7 -12 -21 -9 -33 5 -18 4 -19 -16 -9 -15 9 -26 9
-42 0 -19 -10 -20 -9 -14 11 4 14 1 28 -11 41 -16 18 -16 19 5 19 12 0 24 7
27 15 4 8 10 15 14 15 4 0 10 -7 14 -15z"/>
<path d="M2826 5321 c-17 -36 -23 -41 -51 -41 -45 0 -49 -10 -19 -41 23 -24
26 -33 20 -69 l-6 -41 37 20 c38 19 39 19 75 0 l38 -19 -6 42 c-5 37 -2 46 20
67 35 33 33 41 -12 41 -35 0 -40 4 -58 41 l-20 41 -18 -41z m56 -61 c19 0 24
-15 8 -25 -5 -3 -10 -18 -10 -32 0 -21 -3 -23 -14 -14 -11 9 -20 10 -35 1 -19
-9 -21 -8 -21 14 0 14 -4 28 -10 31 -17 10 -11 25 9 25 12 0 23 9 27 23 l7 22
10 -22 c6 -13 18 -23 29 -23z"/>
<path d="M3068 5320 c-15 -36 -20 -40 -51 -40 -47 0 -50 -8 -16 -38 28 -25 30
-30 21 -69 l-10 -42 40 20 39 20 36 -21 35 -21 -6 44 c-6 38 -3 46 19 67 34
32 32 40 -10 40 -30 0 -37 5 -55 40 -11 22 -21 40 -23 40 -1 0 -10 -18 -19
-40z m36 -45 c3 -8 15 -15 27 -15 21 0 21 -1 5 -19 -12 -13 -15 -27 -11 -41 6
-20 5 -21 -14 -11 -16 9 -27 9 -42 0 -20 -10 -21 -9 -16 9 3 12 -1 26 -9 33
-20 16 -17 29 6 29 11 0 23 7 26 15 4 8 10 15 14 15 4 0 10 -7 14 -15z"/>
<path d="M3311 5321 c-19 -36 -25 -41 -56 -41 -42 0 -44 -8 -10 -40 22 -21 25
-29 19 -67 l-6 -44 35 21 36 21 39 -20 39 -20 -8 42 c-7 38 -6 44 21 69 33 30
30 38 -17 38 -30 0 -36 5 -53 41 l-18 42 -21 -42z m33 -46 c3 -8 15 -15 26
-15 23 0 27 -15 5 -24 -11 -4 -14 -13 -9 -32 6 -24 5 -25 -15 -15 -15 9 -26 9
-42 0 -19 -10 -20 -9 -14 11 4 14 1 28 -11 41 -16 18 -16 19 5 19 12 0 24 7
27 15 4 8 10 15 14 15 4 0 10 -7 14 -15z"/>
<path d="M2704 5098 c-14 -31 -24 -38 -56 -43 l-40 -7 27 -28 c24 -25 27 -34
21 -70 -4 -23 -3 -40 1 -38 5 2 20 10 36 18 24 12 32 11 64 -4 19 -9 37 -16
38 -14 2 2 0 19 -4 38 -7 30 -4 39 21 66 l30 32 -41 7 c-35 6 -45 13 -60 43
l-19 37 -18 -37z m63 -68 c13 0 13 -2 2 -17 -8 -9 -13 -24 -11 -35 3 -19 -13
-25 -23 -8 -4 7 -13 7 -26 0 -16 -9 -19 -7 -19 11 0 12 -8 28 -17 35 -17 12
-16 13 4 14 12 0 27 9 34 21 l11 21 14 -21 c9 -12 22 -21 31 -21z"/>
<path d="M2947 5096 c-13 -28 -23 -35 -57 -41 l-42 -7 30 -32 c25 -27 28 -36
21 -66 -4 -19 -6 -36 -4 -38 1 -2 19 5 38 14 32 15 40 16 64 4 16 -8 31 -16
36 -18 4 -2 5 15 1 38 -6 34 -3 45 16 65 30 32 40 31 73 -3 23 -24 25 -32 18
-65 -5 -20 -7 -37 -5 -37 2 0 19 8 39 17 33 16 37 16 71 0 l36 -18 -7 42 c-7
38 -5 43 26 68 l33 28 -45 7 c-40 6 -48 11 -63 44 l-18 37 -19 -37 c-15 -30
-26 -37 -58 -43 -22 -3 -60 -3 -84 0 -38 6 -47 12 -58 36 -17 42 -24 43 -42 5z
m67 -66 c19 -1 19 -2 4 -11 -10 -5 -18 -20 -18 -32 0 -18 -6 -22 -35 -23 -29
0 -35 3 -35 21 0 11 -5 26 -12 33 -9 9 -8 12 5 12 9 0 22 9 29 20 l13 21 14
-21 c7 -11 23 -20 35 -20z m239 0 c19 0 19 -1 2 -20 -9 -10 -15 -25 -12 -32 3
-10 -6 -13 -34 -13 -31 0 -39 3 -37 16 2 9 -3 23 -11 32 -12 15 -11 17 3 17 9
0 21 9 28 20 l13 21 14 -21 c7 -11 23 -20 34 -20z"/>
<path d="M2582 4856 c-11 -30 -18 -35 -57 -41 l-45 -6 31 -26 c28 -24 30 -30
24 -70 l-6 -44 38 19 c37 19 39 19 68 1 41 -26 44 -24 34 19 -7 33 -5 40 23
69 l31 32 -42 7 c-36 6 -45 12 -59 40 -8 19 -18 34 -22 34 -3 0 -11 -15 -18
-34z m36 -46 c7 -11 19 -20 28 -20 14 0 15 -2 3 -17 -8 -9 -13 -24 -11 -35 3
-19 -13 -25 -23 -8 -4 7 -12 7 -25 0 -26 -14 -29 -13 -23 10 4 13 -1 26 -12
34 -17 12 -16 14 8 20 15 3 27 13 27 21 0 21 13 19 28 -5z"/>
<path d="M2824 4857 c-14 -29 -24 -36 -57 -41 l-40 -7 28 -29 c24 -25 27 -34
21 -69 -3 -23 -4 -41 -2 -41 3 0 20 9 38 20 34 19 34 19 66 0 18 -11 35 -20
37 -20 3 0 2 18 -1 41 -6 35 -3 44 21 69 l28 29 -41 7 c-32 5 -43 12 -53 35
-17 43 -27 44 -45 6z m68 -67 c9 0 9 -3 0 -12 -7 -7 -12 -23 -12 -35 0 -20 -3
-22 -18 -14 -11 6 -24 6 -35 0 -14 -8 -17 -6 -17 14 0 12 -5 28 -11 34 -8 8
-6 13 9 17 11 4 23 14 26 23 6 14 9 13 27 -5 11 -12 25 -22 31 -22z"/>
<path d="M3068 4856 c-14 -28 -23 -34 -59 -40 l-42 -7 31 -32 c28 -29 30 -36
23 -69 -5 -21 -7 -38 -5 -38 2 0 19 8 39 17 33 16 37 16 71 0 l36 -18 -7 41
c-6 35 -3 45 16 66 28 30 49 30 78 0 18 -19 21 -30 15 -65 l-7 -42 37 17 c34
17 38 17 71 1 20 -9 37 -17 39 -17 2 0 0 17 -5 38 -7 33 -5 40 22 68 l31 32
-42 7 c-34 6 -44 13 -57 41 -9 19 -19 34 -23 34 -3 0 -11 -15 -18 -34 -11 -30
-18 -35 -57 -41 -25 -3 -65 -3 -90 0 -39 6 -46 11 -57 41 -7 19 -15 34 -18 34
-4 0 -14 -15 -22 -34z m70 -66 c15 -1 15 -2 -2 -15 -12 -9 -17 -22 -13 -35 6
-23 3 -24 -23 -10 -13 7 -21 7 -25 0 -10 -17 -26 -11 -23 8 2 11 -3 26 -11 35
-12 15 -11 17 3 17 9 0 21 9 28 20 12 19 12 19 31 0 10 -11 25 -20 35 -20z
m210 20 c7 -11 19 -20 28 -20 14 0 15 -2 3 -17 -8 -9 -13 -24 -11 -35 3 -19
-13 -25 -23 -8 -4 7 -12 7 -25 0 -26 -14 -30 -13 -23 5 3 9 -2 24 -11 34 -16
18 -16 19 9 25 14 4 25 13 25 21 0 21 13 19 28 -5z"/>
<path d="M2945 4639 c-22 -43 -31 -49 -74 -49 l-35 0 33 -34 c29 -29 32 -38
26 -70 -8 -41 -6 -42 35 -21 27 14 33 14 60 0 41 -21 43 -20 37 22 -6 33 -2
42 25 70 l32 33 -35 0 c-44 0 -55 8 -72 50 l-15 34 -17 -35z m56 -69 c21 0 21
-1 6 -18 -10 -11 -14 -26 -10 -41 5 -21 4 -22 -16 -12 -15 9 -26 9 -42 0 -19
-10 -20 -9 -14 11 4 14 1 28 -11 41 -16 18 -16 19 4 19 12 0 27 10 33 22 l12
22 8 -22 c5 -13 17 -22 30 -22z"/>
<path d="M1392 4456 c-16 -86 -17 -82 28 -94 24 -6 40 -6 40 -1 0 5 -13 12
-30 16 -30 5 -36 17 -24 46 4 12 12 13 35 7 16 -5 31 -5 34 0 3 5 -8 11 -25
15 -23 5 -30 12 -30 31 0 23 3 24 38 18 25 -4 34 -3 27 4 -5 5 -26 12 -46 16
l-35 6 -12 -64z"/>
<path d="M1587 4463 c-6 -10 -37 -114 -37 -125 0 -18 18 -6 24 16 5 19 12 23
42 22 26 -1 40 5 50 20 13 19 12 24 -3 42 -19 23 -68 39 -76 25z m51 -22 c23
-14 10 -46 -21 -49 -29 -4 -30 0 -21 36 7 23 20 27 42 13z"/>
<path d="M1689 4368 c-13 -35 -25 -66 -27 -71 -3 -6 57 -37 73 -37 16 0 1 19
-20 24 -30 8 -30 12 -5 76 22 56 24 70 11 70 -4 0 -19 -28 -32 -62z"/>
<path d="M1792 4339 c-36 -86 -24 -119 42 -119 20 0 33 11 56 48 29 46 37 72
23 72 -5 -1 -21 -24 -38 -53 -32 -55 -59 -67 -79 -35 -8 13 -5 30 12 70 12 28
18 56 14 60 -5 5 -19 -14 -30 -43z"/>
<path d="M1942 4288 c-6 -13 -22 -42 -37 -65 -14 -24 -21 -44 -16 -48 6 -3 17
8 26 25 14 27 19 29 32 19 11 -10 13 -23 9 -51 -4 -23 -2 -38 4 -38 5 0 13 18
16 40 4 22 12 40 19 40 20 0 37 27 31 47 -5 16 -53 53 -68 53 -3 0 -10 -10
-16 -22z m58 -24 c11 -12 11 -18 -2 -30 -12 -13 -20 -14 -37 -5 -17 10 -19 15
-11 31 13 24 33 26 50 4z"/>
<path d="M2035 4189 c-20 -28 -39 -57 -42 -65 -9 -24 11 -15 31 14 11 15 30
41 43 59 13 17 20 34 14 37 -5 3 -26 -17 -46 -45z"/>
<path d="M2072 4143 l-43 -58 28 -22 c42 -34 83 -25 83 19 0 9 9 22 20 28 28
15 25 45 -6 69 -15 12 -30 21 -33 21 -4 0 -26 -26 -49 -57z m78 22 c24 -30
-10 -61 -37 -34 -9 9 -9 16 0 30 14 23 21 24 37 4z m-32 -78 c-3 -24 -25 -32
-48 -18 -12 8 -12 13 -1 35 12 21 17 23 33 15 12 -6 18 -19 16 -32z"/>
<path d="M2186 4077 c-20 -25 -36 -55 -36 -69 0 -28 28 -58 55 -58 23 0 105
67 105 86 0 23 -13 17 -55 -26 -43 -44 -69 -50 -85 -21 -8 16 -3 29 30 70 49
62 36 78 -14 18z"/>
<path d="M2316 3988 c-17 -10 -21 -44 -7 -67 25 -38 -27 -57 -53 -19 -9 12
-18 19 -21 16 -11 -11 37 -58 60 -58 33 0 45 25 33 68 -13 47 3 64 35 34 31
-29 41 -28 22 2 -18 28 -45 37 -69 24z"/>
<path d="M4237 4454 c-4 -4 -7 -35 -7 -68 l0 -60 -42 47 c-29 32 -47 45 -56
39 -10 -7 -7 -22 12 -72 13 -35 29 -66 35 -68 7 -2 4 17 -8 49 -11 29 -19 54
-17 56 2 2 21 -16 41 -41 20 -25 41 -43 46 -40 5 3 9 33 10 67 l0 62 22 -52
c12 -29 27 -53 34 -53 7 0 0 26 -17 67 -28 66 -39 80 -53 67z"/>
<path d="M4066 4382 c-4 -6 5 -34 19 -61 25 -51 25 -75 -1 -85 -24 -9 -41 4
-68 55 -15 27 -32 47 -37 44 -19 -12 48 -109 82 -118 23 -6 69 31 69 55 -1 25
-57 121 -64 110z"/>
<path d="M3927 4303 c-4 -3 0 -18 10 -32 50 -79 52 -73 -17 -45 -90 36 -100
27 -48 -43 23 -32 44 -60 45 -62 2 -2 6 -1 10 2 3 4 -8 27 -25 51 -18 24 -32
47 -32 50 0 2 29 -8 65 -25 73 -33 75 -33 75 -18 0 9 -69 129 -75 129 -1 0 -5
-3 -8 -7z"/>
<path d="M3790 4203 c0 -5 14 -26 30 -47 33 -44 37 -67 16 -85 -20 -16 -47 -1
-82 44 -27 35 -44 45 -44 24 0 -18 85 -99 104 -99 23 0 56 36 56 63 0 24 -55
107 -71 107 -5 0 -9 -3 -9 -7z"/>
<path d="M2867 3773 c-17 -17 -4 -25 33 -20 22 3 40 1 40 -4 0 -18 49 -59 70
-59 12 0 32 12 46 26 17 17 35 24 52 22 44 -5 35 19 -12 31 -48 12 -218 15
-229 4z m152 -19 c25 -5 29 -9 20 -20 -14 -17 -41 -18 -57 -2 -26 26 -15 32
37 22z"/>
</g>
</svg>
