<?xml version="1.0" encoding="UTF-8" standalone="no"?>
<!-- Created with Inkscape (http://www.inkscape.org/) -->

<svg
   version="1.1"
   id="svg1"
   width="1102.6667"
   height="822.66669"
   viewBox="0 0 1102.6667 822.66669"
   sodipodi:docname="ss_03_CurrencyExchange .eps"
   xmlns:inkscape="http://www.inkscape.org/namespaces/inkscape"
   xmlns:sodipodi="http://sodipodi.sourceforge.net/DTD/sodipodi-0.dtd"
   xmlns="http://www.w3.org/2000/svg"
   xmlns:svg="http://www.w3.org/2000/svg">
  <defs
     id="defs1" />
  <sodipodi:namedview
     id="namedview1"
     pagecolor="#ffffff"
     bordercolor="#000000"
     borderopacity="0.25"
     inkscape:showpageshadow="2"
     inkscape:pageopacity="0.0"
     inkscape:pagecheckerboard="0"
     inkscape:deskcolor="#d1d1d1">
    <inkscape:page
       x="0"
       y="0"
       inkscape:label="1"
       id="page1"
       width="1102.6667"
       height="822.66669"
       margin="0"
       bleed="0" />
  </sodipodi:namedview>
  <g
     id="g1"
     inkscape:groupmode="layer"
     inkscape:label="1">
    <path
       id="path1"
       d="M 6152.87,2262.2 V 4051.21 H 2116.07 V 2262.2 Z"
       style="fill:none;stroke:#000000;stroke-width:420;stroke-linecap:butt;stroke-linejoin:miter;stroke-miterlimit:10;stroke-dasharray:none;stroke-opacity:1"
       transform="matrix(0.13333333,0,0,-0.13333333,0,822.66667)" />
    <path
       id="path2"
       d="m 4149.76,2580.78 c 314.36,0 569.22,254.86 569.22,569.22 0,314.36 -254.86,569.22 -569.22,569.22 -314.36,0 -569.22,-254.86 -569.22,-569.22 0,-314.36 254.86,-569.22 569.22,-569.22"
       style="fill:#000000;fill-opacity:1;fill-rule:nonzero;stroke:none"
       transform="matrix(0.13333333,0,0,-0.13333333,0,822.66667)" />
    <path
       id="path3"
       d="m 4149.76,2580.78 c 314.36,0 569.22,254.86 569.22,569.22 0,314.36 -254.86,569.22 -569.22,569.22 -314.36,0 -569.22,-254.86 -569.22,-569.22 0,-314.36 254.86,-569.22 569.22,-569.22 z"
       style="fill:none;stroke:#000000;stroke-width:18.59;stroke-linecap:butt;stroke-linejoin:miter;stroke-miterlimit:10;stroke-dasharray:none;stroke-opacity:1"
       transform="matrix(0.13333333,0,0,-0.13333333,0,822.66667)" />
    <path
       id="path4"
       d="M 3840.35,3049.13 H 3989 c 9.41,-42.89 21.79,-94.76 89.5,-114.01 l -0.18,168.49 c -92.73,13.33 -226.5,53.99 -226.5,203.12 0,167.64 185.47,219.91 226.68,219.91 v 101.37 h 139.8 v -101.37 c 94.27,-5.46 231.09,-84.26 231.09,-234.06 H 4302.2 c -3.74,44.47 -38.21,88.16 -82.43,91.28 v -154.48 c 112.38,-11.53 244.34,-54.42 244.34,-205.42 0,-131.85 -132.47,-228.01 -244.34,-233.93 V 2688.41 H 4078.5 v 103.1 c -80.95,11.84 -228.96,89.89 -238.15,257.62"
       style="fill:#ffffff;fill-opacity:1;fill-rule:nonzero;stroke:none"
       transform="matrix(0.13333333,0,0,-0.13333333,0,822.66667)" />
    <path
       id="path5"
       d="m 4079.23,3382.33 v -127.99 c -99.63,1.56 -101.57,110.23 0,127.99"
       style="fill:#000000;fill-opacity:1;fill-rule:nonzero;stroke:none"
       transform="matrix(0.13333333,0,0,-0.13333333,0,822.66667)" />
    <path
       id="path6"
       d="m 4221.41,3079.58 c 123.28,-3.12 137,-125.61 -0.14,-145.2"
       style="fill:#000000;fill-opacity:1;fill-rule:nonzero;stroke:none"
       transform="matrix(0.13333333,0,0,-0.13333333,0,822.66667)" />
    <path
       id="path7"
       d="m 4221.27,2934.38 0.14,145.2"
       style="fill:#000000;fill-opacity:1;fill-rule:nonzero;stroke:none"
       transform="matrix(0.13333333,0,0,-0.13333333,0,822.66667)" />
    <path
       id="path8"
       d="m 5082.5,1588.28 c 314.36,0 569.22,254.86 569.22,569.22 0,314.37 -254.86,569.23 -569.22,569.23 -314.37,0 -569.23,-254.86 -569.23,-569.23 0,-314.36 254.86,-569.22 569.23,-569.22"
       style="fill:#000000;fill-opacity:1;fill-rule:nonzero;stroke:none"
       transform="matrix(0.13333333,0,0,-0.13333333,0,822.66667)" />
    <path
       id="path9"
       d="m 5082.5,1588.28 c 314.36,0 569.22,254.86 569.22,569.22 0,314.37 -254.86,569.23 -569.22,569.23 -314.37,0 -569.23,-254.86 -569.23,-569.23 0,-314.36 254.86,-569.22 569.23,-569.22 z"
       style="fill:none;stroke:#000000;stroke-width:18.59;stroke-linecap:butt;stroke-linejoin:miter;stroke-miterlimit:10;stroke-dasharray:none;stroke-opacity:1"
       transform="matrix(0.13333333,0,0,-0.13333333,0,822.66667)" />
    <path
       id="path10"
       d="m 5345.45,1930.02 v -122.71 h -527.18 v 122.71 c 59.9,40.12 91.06,141.59 71.89,195.88 h -110.23 v 125.06 h 88.65 c -23.96,56.63 -23.96,75.51 -23.96,125.07 0,49.55 40.75,211.13 254,210.01 C 5295,2585 5352,2423.2 5352,2307.59 l -149.5,-0.09 c -10,70 -37.5,127.5 -102.5,127.5 -99.44,0 -99.61,-62.51 -99.61,-83.76 0,-21.23 3.58,-73.14 23.96,-101.47 h 129.4 v -122.7 h -105.44 c 13.17,-112.1 -51.52,-159.29 -55.12,-197.05 h 352.26"
       style="fill:#ffffff;fill-opacity:1;fill-rule:nonzero;stroke:none"
       transform="matrix(0.13333333,0,0,-0.13333333,0,822.66667)" />
    <path
       id="path11"
       d="m 4702.5,108.281 c 314.36,0 569.22,254.86 569.22,569.219 0,314.371 -254.86,569.23 -569.22,569.23 -314.37,0 -569.22,-254.859 -569.22,-569.23 0,-314.359 254.85,-569.219 569.22,-569.219"
       style="fill:#000000;fill-opacity:1;fill-rule:nonzero;stroke:none"
       transform="matrix(0.13333333,0,0,-0.13333333,0,822.66667)" />
    <path
       id="path12"
       d="m 4702.5,108.281 c 314.36,0 569.22,254.86 569.22,569.219 0,314.371 -254.86,569.23 -569.22,569.23 -314.37,0 -569.22,-254.859 -569.22,-569.23 0,-314.359 254.85,-569.219 569.22,-569.219 z"
       style="fill:none;stroke:#000000;stroke-width:18.59;stroke-linecap:butt;stroke-linejoin:miter;stroke-miterlimit:10;stroke-dasharray:none;stroke-opacity:1"
       transform="matrix(0.13333333,0,0,-0.13333333,0,822.66667)" />
    <path
       id="path13"
       d="m 4382.58,1026.59 h 165.35 l 153.36,-270.668 166.4,270.668 h 152.29 l -246.8,-436.481 h 184.5 V 451.129 H 4780.36 V 256.051 H 4629.4 V 451.129 H 4440.09 V 587.68 h 191.7 l -249.21,438.91"
       style="fill:#ffffff;fill-opacity:1;fill-rule:nonzero;stroke:none"
       transform="matrix(0.13333333,0,0,-0.13333333,0,822.66667)" />
    <path
       id="path14"
       d="m 2907.5,753.281 c 314.37,0 569.23,254.859 569.23,569.219 0,314.37 -254.86,569.23 -569.23,569.23 -314.36,0 -569.22,-254.86 -569.22,-569.23 0,-314.36 254.86,-569.219 569.22,-569.219"
       style="fill:#000000;fill-opacity:1;fill-rule:nonzero;stroke:none"
       transform="matrix(0.13333333,0,0,-0.13333333,0,822.66667)" />
    <path
       id="path15"
       d="m 2907.5,753.281 c 314.37,0 569.23,254.859 569.23,569.219 0,314.37 -254.86,569.23 -569.23,569.23 -314.36,0 -569.22,-254.86 -569.22,-569.23 0,-314.36 254.86,-569.219 569.22,-569.219 z"
       style="fill:none;stroke:#000000;stroke-width:18.59;stroke-linecap:butt;stroke-linejoin:miter;stroke-miterlimit:10;stroke-dasharray:none;stroke-opacity:1"
       transform="matrix(0.13333333,0,0,-0.13333333,0,822.66667)" />
    <path
       id="path16"
       d="m 2964.65,1431.06 h 143.78 v -71.89 c 31.16,35.96 67.09,74.3 143.77,74.3 v -136.6 C 3135,1282.5 3108.43,1220 3108.43,1142.5 V 970.98 h -143.78 v 460.08"
       style="fill:#ffffff;fill-opacity:1;fill-rule:nonzero;stroke:none"
       transform="matrix(0.13333333,0,0,-0.13333333,0,822.66667)" />
    <path
       id="path17"
       d="m 2925.59,1431.06 v -135.38 h -102.21 v -324.7 h -144.97 v 323.5 h -86.26 v 135.39 h 86.26 v 121 c 0,46.73 45.52,189.32 216.85,189.32 174.92,0 212.24,-137.69 212.24,-252.81 H 2965 c 0,73.87 -10,112.63 -68.55,112.63 -62.7,0 -73.07,-43.13 -73.07,-111.44 v -57.51 h 102.21"
       style="fill:#ffffff;fill-opacity:1;fill-rule:nonzero;stroke:none"
       transform="matrix(0.13333333,0,0,-0.13333333,0,822.66667)" />
  </g>
</svg>
