<?xml version="1.0" encoding="UTF-8" standalone="no"?>
<!-- Created with Inkscape (http://www.inkscape.org/) -->

<svg
   version="1.1"
   id="svg1"
   width="232"
   height="638.66669"
   viewBox="0 0 232 638.66669"
   sodipodi:docname="ss_01_Telephone.eps"
   xmlns:inkscape="http://www.inkscape.org/namespaces/inkscape"
   xmlns:sodipodi="http://sodipodi.sourceforge.net/DTD/sodipodi-0.dtd"
   xmlns="http://www.w3.org/2000/svg"
   xmlns:svg="http://www.w3.org/2000/svg">
  <defs
     id="defs1" />
  <sodipodi:namedview
     id="namedview1"
     pagecolor="#ffffff"
     bordercolor="#000000"
     borderopacity="0.25"
     inkscape:showpageshadow="2"
     inkscape:pageopacity="0.0"
     inkscape:pagecheckerboard="0"
     inkscape:deskcolor="#d1d1d1">
    <inkscape:page
       x="0"
       y="0"
       inkscape:label="1"
       id="page1"
       width="232"
       height="638.66669"
       margin="0"
       bleed="0" />
  </sodipodi:namedview>
  <g
     id="g1"
     inkscape:groupmode="layer"
     inkscape:label="1">
    <path
       id="path1"
       d="M 1099.25,4775.25 C 875,4750 61.2344,4378.07 37.25,2460.25 12.5,440 875,15 1101.25,19.25 v 1335 c -186.25,-0.31 -223.707,202.43 -266,621 -28.398,276.54 -36.609,619.18 0,960 25.27,238.72 69.75,471.98 265,472 l -1,1368"
       style="fill:#000000;fill-opacity:1;fill-rule:nonzero;stroke:none"
       transform="matrix(0.13333333,0,0,-0.13333333,0,638.66667)" />
    <path
       id="path2"
       d="m 1581.25,17.25 c 86.25,-0.0195 148.11,70.25 148,149 l 1,1 c 0,0 -0.89,1039.62 -1,1040 0.11,82.75 -66.75,147.79 -148,148 h -378 v -1338 c 0,0 377.07,-0.6016 377,0 h 1"
       style="fill:#000000;fill-opacity:1;fill-rule:nonzero;stroke:none"
       transform="matrix(0.13333333,0,0,-0.13333333,0,638.66667)" />
    <path
       id="path3"
       d="m 1581.25,3407.25 c 86.25,-0.02 148.11,70.25 148,149 l 1,1 c 0,0 -0.89,1069.62 -1,1070 0.11,82.75 -66.75,147.79 -148,148 h -378 v -1368 c 0,0 377.07,-0.6 377,0 h 1"
       style="fill:#000000;fill-opacity:1;fill-rule:nonzero;stroke:none"
       transform="matrix(0.13333333,0,0,-0.13333333,0,638.66667)" />
  </g>
</svg>
