<?xml version="1.0" encoding="UTF-8" standalone="no"?>
<!-- Created with Inkscape (http://www.inkscape.org/) -->

<svg
   version="1.1"
   id="svg1"
   width="624.91998"
   height="446.54666"
   viewBox="0 0 624.91998 446.54666"
   sodipodi:docname="ss_07_CoatCheck.eps"
   xmlns:inkscape="http://www.inkscape.org/namespaces/inkscape"
   xmlns:sodipodi="http://sodipodi.sourceforge.net/DTD/sodipodi-0.dtd"
   xmlns="http://www.w3.org/2000/svg"
   xmlns:svg="http://www.w3.org/2000/svg">
  <defs
     id="defs1" />
  <sodipodi:namedview
     id="namedview1"
     pagecolor="#ffffff"
     bordercolor="#000000"
     borderopacity="0.25"
     inkscape:showpageshadow="2"
     inkscape:pageopacity="0.0"
     inkscape:pagecheckerboard="0"
     inkscape:deskcolor="#d1d1d1">
    <inkscape:page
       x="0"
       y="0"
       inkscape:label="1"
       id="page1"
       width="624.91998"
       height="446.54666"
       margin="0"
       bleed="0" />
  </sodipodi:namedview>
  <g
     id="g1"
     inkscape:groupmode="layer"
     inkscape:label="1">
    <path
       id="path1"
       d="M 205.777,832.527 C 8.89063,716.363 -26.6406,469.043 16.0586,318.988 57.4766,173.473 203.48,0 466.211,0 h 0.586 c 0,0 3387.603,0 3729.213,0 294.17,0 428.31,168.633 469.72,314.148 42.7,150.051 42.7,382.395 -185.04,522.762 L 2505.78,2002.53 v 198.46 c 0,225.08 -245.54,322.79 -245.54,322.79 -158.93,77.45 -144.7,244.43 -144.7,244.43 0,196.02 175.55,258.95 253.81,258.95 131.43,0 260.32,-72.88 273.92,-239.59 21.36,-261.38 317.51,-195.04 317.51,14.96 0,198.44 -181.01,546.52 -593.79,546.52 -446.21,0 -574.37,-436.29 -574.37,-574.24 0,-104.05 16.45,-200.13 80.66,-309.78 109.12,-186.35 327.5,-215.64 327.5,-339.06 V 2002.53 L 205.777,832.527"
       style="fill:#000000;fill-opacity:1;fill-rule:nonzero;stroke:none"
       transform="matrix(0.13333333,0,0,-0.13333333,0,446.54667)" />
    <path
       id="path2"
       d="M 2340.9,1703.31 4275.78,572.527 c 120,-85 55,-245 -75,-245.265 H 472.129 C 350.777,322.527 275.777,492.527 395.777,567.527 L 2340.9,1703.31"
       style="fill:#ffffff;fill-opacity:1;fill-rule:nonzero;stroke:none"
       transform="matrix(0.13333333,0,0,-0.13333333,0,446.54667)" />
  </g>
</svg>
