<?xml version="1.0" encoding="UTF-8" standalone="no"?>
<!-- Created with Inkscape (http://www.inkscape.org/) -->

<svg
   version="1.1"
   id="svg1"
   width="685.33331"
   height="532"
   viewBox="0 0 685.33331 532"
   sodipodi:docname="ss_09_Escalator.eps"
   xmlns:inkscape="http://www.inkscape.org/namespaces/inkscape"
   xmlns:sodipodi="http://sodipodi.sourceforge.net/DTD/sodipodi-0.dtd"
   xmlns="http://www.w3.org/2000/svg"
   xmlns:svg="http://www.w3.org/2000/svg">
  <defs
     id="defs1" />
  <sodipodi:namedview
     id="namedview1"
     pagecolor="#ffffff"
     bordercolor="#000000"
     borderopacity="0.25"
     inkscape:showpageshadow="2"
     inkscape:pageopacity="0.0"
     inkscape:pagecheckerboard="0"
     inkscape:deskcolor="#d1d1d1">
    <inkscape:page
       x="0"
       y="0"
       inkscape:label="1"
       id="page1"
       width="685.33331"
       height="532"
       margin="0"
       bleed="0" />
  </sodipodi:namedview>
  <g
     id="g1"
     inkscape:groupmode="layer"
     inkscape:label="1">
    <path
       id="path1"
       d="m 2179.25,3298.25 c 187.49,-0.02 339.21,151.72 339,339 0.21,187.03 -151.51,338.75 -339,339 -186.82,-0.25 -338.54,-151.97 -339,-339 0.46,-187.28 152.18,-339.02 339,-339"
       style="fill:#000000;fill-opacity:1;fill-rule:nonzero;stroke:none"
       transform="matrix(0.13333333,0,0,-0.13333333,0,532)" />
    <path
       id="path2"
       d="m 2515.25,2688.25 v 213 c -0.18,455.49 -671.13,450.49 -671,0 v -871 h 1 l -634,-634 c -59.53,-59.3 -66.82,-61.9 -184,-62 -0.34,0 -388,0 -388,0 -389.82,0.1 -623.6797,-350.379 -624,-648 0.3203,-296.641 234.18,-672.25 659,-672 0,0 527.24,-0.25 690,0 163.13,-0.25 360.66,62.0391 524,215 l 2021,2016 c 43.12,38 67.08,49.97 141,50 0,0 279.04,-0.03 500,0 239.75,-0.03 579.75,272.25 580,665 -0.25,388.24 -342.75,647.25 -600,648 h -788 c -163.26,0.11 -372.82,-66.51 -498,-192 l -729,-728 v 0"
       style="fill:#000000;fill-opacity:1;fill-rule:nonzero;stroke:none"
       transform="matrix(0.13333333,0,0,-0.13333333,0,532)" />
    <path
       id="path3"
       d="m 3790.25,3273.25 h 709 c 172.19,-0.36 288.25,-193.23 288,-308 0.25,-115.27 -82.09,-329.94 -293,-330 h -426 c -180.75,0.06 -260.75,-25.25 -365,-129 l -2036,-2037 c -82.82,-82.508 -187.36,-115.18 -322,-115 h -671 c -172.762,-0.18 -324.82,145.789 -325,337 0.18,192.191 145.18,299.602 295,300 h 461 c 134.18,-0.398 222.5,37.94 299,115 l 2071,2071 c 85.58,84.99 169.77,95.64 315,96"
       style="fill:#ffffff;fill-opacity:1;fill-rule:nonzero;stroke:none"
       transform="matrix(0.13333333,0,0,-0.13333333,0,532)" />
  </g>
</svg>
