<?xml version="1.0" encoding="UTF-8" standalone="no"?>
<!-- Created with Inkscape (http://www.inkscape.org/) -->

<svg
   version="1.1"
   id="svg1"
   width="457.33334"
   height="578.66669"
   viewBox="0 0 457.33334 578.66669"
   sodipodi:docname="ss_08_BaggageLockers.eps"
   xmlns:inkscape="http://www.inkscape.org/namespaces/inkscape"
   xmlns:sodipodi="http://sodipodi.sourceforge.net/DTD/sodipodi-0.dtd"
   xmlns="http://www.w3.org/2000/svg"
   xmlns:svg="http://www.w3.org/2000/svg">
  <defs
     id="defs1" />
  <sodipodi:namedview
     id="namedview1"
     pagecolor="#ffffff"
     bordercolor="#000000"
     borderopacity="0.25"
     inkscape:showpageshadow="2"
     inkscape:pageopacity="0.0"
     inkscape:pagecheckerboard="0"
     inkscape:deskcolor="#d1d1d1">
    <inkscape:page
       x="0"
       y="0"
       inkscape:label="1"
       id="page1"
       width="457.33334"
       height="578.66669"
       margin="0"
       bleed="0" />
  </sodipodi:namedview>
  <g
     id="g1"
     inkscape:groupmode="layer"
     inkscape:label="1">
    <path
       id="path1"
       d="M 3412.31,11.2305 V 2949.13 H 10 V 11.2305 h 3402.31"
       style="fill:#000000;fill-opacity:1;fill-rule:nonzero;stroke:none"
       transform="matrix(0.13333333,0,0,-0.13333333,0,578.66667)" />
    <path
       id="path2"
       d="M 2998.8,443.398 V 2555.38 H 407.648 V 443.398 H 2998.8"
       style="fill:#ffffff;fill-opacity:1;fill-rule:nonzero;stroke:none"
       transform="matrix(0.13333333,0,0,-0.13333333,0,578.66667)" />
    <path
       id="path3"
       d="m 1140.22,2070.9 h 275.22 v 193.51 c 0,72.17 64.32,117.96 140.9,117.96 -0.98,0 293.68,0 293.68,0 76.58,0 139.82,-45.79 139.82,-117.96 V 2070.9 h 277.63 V 692.73 H 1140.22 V 2070.9"
       style="fill:#000000;fill-opacity:1;fill-rule:nonzero;stroke:none"
       transform="matrix(0.13333333,0,0,-0.13333333,0,578.66667)" />
    <path
       id="path4"
       d="M 1036.87,695.129 H 885.672 c -104.242,0 -205.41,77.082 -205.41,211.082 0,0 0,954.939 0,957.379 0,119.38 98.738,209.71 205.41,209.71 H 1036.87 V 695.129"
       style="fill:#000000;fill-opacity:1;fill-rule:nonzero;stroke:none"
       transform="matrix(0.13333333,0,0,-0.13333333,0,578.66667)" />
    <path
       id="path5"
       d="m 2368.39,695.129 h 151.2 c 104.23,0 205.4,77.082 205.4,211.082 0,0 0,954.939 0,957.379 0,119.38 -98.74,209.71 -205.4,209.71 h -151.2 V 695.129"
       style="fill:#000000;fill-opacity:1;fill-rule:nonzero;stroke:none"
       transform="matrix(0.13333333,0,0,-0.13333333,0,578.66667)" />
    <path
       id="path6"
       d="m 1885.18,2070.9 v 199.63 H 1516.61 V 2070.9 h 368.57"
       style="fill:#ffffff;fill-opacity:1;fill-rule:nonzero;stroke:none"
       transform="matrix(0.13333333,0,0,-0.13333333,0,578.66667)" />
    <path
       id="path7"
       d="m 1058.78,3141.97 c 327.54,0 593.02,265.52 593.02,593.05 0,327.51 -265.48,593.01 -593.02,593.01 -327.53,0 -593.03,-265.5 -593.03,-593.01 0,-327.53 265.5,-593.05 593.03,-593.05"
       style="fill:#000000;fill-opacity:1;fill-rule:nonzero;stroke:none"
       transform="matrix(0.13333333,0,0,-0.13333333,0,578.66667)" />
    <path
       id="path8"
       d="m 2712.09,3486.58 -147.82,149.76 -144.29,-146.16 -141.91,143.78 -141.91,-143.78 -141.91,143.78 -184.49,-186.9 h -347.68 v 582.27 h 1300.88 l 199.86,-202.48 c 31.31,-31.76 29.56,-58.7 1.17,-87.46 l -248.34,-251.61"
       style="fill:#000000;fill-opacity:1;fill-rule:nonzero;stroke:none"
       transform="matrix(0.13333333,0,0,-0.13333333,0,578.66667)" />
    <path
       id="path9"
       d="m 799.57,3584.9 c 87.969,0 159.262,71.32 159.262,159.29 0,87.94 -71.293,159.26 -159.262,159.26 -87.968,0 -159.281,-71.32 -159.281,-159.26 0,-87.97 71.313,-159.29 159.281,-159.29"
       style="fill:#ffffff;fill-opacity:1;fill-rule:nonzero;stroke:none"
       transform="matrix(0.13333333,0,0,-0.13333333,0,578.66667)" />
    <path
       id="path10"
       d="m 799.57,3584.9 c 87.969,0 159.262,71.32 159.262,159.29 0,87.94 -71.293,159.26 -159.262,159.26 -87.968,0 -159.281,-71.32 -159.281,-159.26 0,-87.97 71.313,-159.29 159.281,-159.29 z"
       style="fill:none;stroke:#000000;stroke-width:2.38;stroke-linecap:butt;stroke-linejoin:miter;stroke-miterlimit:10;stroke-dasharray:none;stroke-opacity:1"
       transform="matrix(0.13333333,0,0,-0.13333333,0,578.66667)" />
  </g>
</svg>
