<?xml version="1.0" encoding="UTF-8" standalone="no"?>
<!-- Created with Inkscape (http://www.inkscape.org/) -->

<svg
   version="1.1"
   id="svg1"
   width="590.66669"
   height="490.66666"
   viewBox="0 0 590.66669 490.66666"
   sodipodi:docname="ss_13_Stairs-down.eps"
   xmlns:inkscape="http://www.inkscape.org/namespaces/inkscape"
   xmlns:sodipodi="http://sodipodi.sourceforge.net/DTD/sodipodi-0.dtd"
   xmlns="http://www.w3.org/2000/svg"
   xmlns:svg="http://www.w3.org/2000/svg">
  <defs
     id="defs1" />
  <sodipodi:namedview
     id="namedview1"
     pagecolor="#ffffff"
     bordercolor="#000000"
     borderopacity="0.25"
     inkscape:showpageshadow="2"
     inkscape:pageopacity="0.0"
     inkscape:pagecheckerboard="0"
     inkscape:deskcolor="#d1d1d1">
    <inkscape:page
       x="0"
       y="0"
       inkscape:label="1"
       id="page1"
       width="590.66669"
       height="490.66666"
       margin="0"
       bleed="0" />
  </sodipodi:namedview>
  <g
     id="g1"
     inkscape:groupmode="layer"
     inkscape:label="1">
    <path
       id="path1"
       d="M 14.5,430 H 815 v 814.75 h 795.34 V 2065 h 807.89 v 805 h 802.41 v 799.74 H 4412.02 V 3261.7 H 3620 V 2458.92 H 2816.68 V 1644.84 H 2015 V 835 H 1210 V 18.2891 H 14.5 V 430"
       style="fill:#000000;fill-opacity:1;fill-rule:nonzero;stroke:none"
       transform="matrix(0.13333333,0,0,-0.13333333,0,490.66667)" />
    <path
       id="path2"
       d="M 2682.07,34.1406 H 3390 c 195,0 202.5,300.0004 0,300.0004 h -362.87 l 690.12,690.119 c 152.99,152.99 -63.4,374.38 -225.93,211.85 L 2811.47,554.379 v 359.152 c 1.03,194.999 -301.47,202.499 -301.93,0 V 210 c 0,-105 70.46,-175.8594 172.53,-175.8594"
       style="fill:#000000;fill-opacity:1;fill-rule:nonzero;stroke:none"
       transform="matrix(0.13333333,0,0,-0.13333333,0,490.66667)" />
  </g>
</svg>
