<?xml version="1.0" encoding="UTF-8" standalone="no"?>
<!-- Created with Inkscape (http://www.inkscape.org/) -->

<svg
   version="1.1"
   id="svg1"
   width="586.66669"
   height="544"
   viewBox="0 0 586.66669 544"
   sodipodi:docname="ss_18_Toilets.eps"
   xmlns:inkscape="http://www.inkscape.org/namespaces/inkscape"
   xmlns:sodipodi="http://sodipodi.sourceforge.net/DTD/sodipodi-0.dtd"
   xmlns="http://www.w3.org/2000/svg"
   xmlns:svg="http://www.w3.org/2000/svg">
  <defs
     id="defs1" />
  <sodipodi:namedview
     id="namedview1"
     pagecolor="#ffffff"
     bordercolor="#000000"
     borderopacity="0.25"
     inkscape:showpageshadow="2"
     inkscape:pageopacity="0.0"
     inkscape:pagecheckerboard="0"
     inkscape:deskcolor="#d1d1d1">
    <inkscape:page
       x="0"
       y="0"
       inkscape:label="1"
       id="page1"
       width="586.66669"
       height="544"
       margin="0"
       bleed="0" />
  </sodipodi:namedview>
  <g
     id="g1"
     inkscape:groupmode="layer"
     inkscape:label="1">
    <path
       id="path1"
       d="m 2514.25,4027.25 v -3932 h -370 v 3932 h 370"
       style="fill:#000000;fill-opacity:1;fill-rule:nonzero;stroke:none"
       transform="matrix(0.13333333,0,0,-0.13333333,0,544)" />
    <path
       id="path2"
       d="m 978.25,3415.25 c 179.38,-0.03 324.51,145.08 325,324 -0.49,179.11 -145.62,324.25 -325,324 -178.629,0.25 -323.77,-144.89 -324,-324 0.23,-178.92 145.371,-324.03 324,-324"
       style="fill:#000000;fill-opacity:1;fill-rule:nonzero;stroke:none"
       transform="matrix(0.13333333,0,0,-0.13333333,0,544)" />
    <path
       id="path3"
       d="m 930.25,1360.25 1,-1134 c -0.43,-204.1016 -306.078,-204.1016 -306,0 v 1134 h -405 l 433,1503 h -68 l -255,-859 c -60.961,-186.95 -318.1289,-110 -259,91 l 283,933 c 30.469,106.01 165.031,294.64 398,295 h 215 v 0 h 231 c 230.71,-0.36 365.88,-190.58 401,-295 l 283,-933 c 57.01,-199.98 -198.14,-283.01 -259,-88 l -255,856 h -74 l 438,-1503 h -407 v -1136 c 0.44,-202.1016 -303.93,-201.0898 -304,0 v 1136 h -91"
       style="fill:#000000;fill-opacity:1;fill-rule:nonzero;stroke:none"
       transform="matrix(0.13333333,0,0,-0.13333333,0,544)" />
    <path
       id="path4"
       d="m 3291.25,3324.25 c -227.59,-0.15 -411.02,-188.82 -411,-424 v -1003 c -0.02,-195.15 281.34,-195.15 281,0 v 917 h 67 v -2541 c -0.05,-261 374.63,-253.3281 375,0 v 1487 h 64 v -1487 c 0.16,-253.3281 376.89,-261 377,0 v 2541 h 65 v -917 c -0.06,-196.66 279.84,-196.65 279,0 v 997 c 0.33,216.85 -165.81,429.4 -416,429 l -681,1"
       style="fill:#000000;fill-opacity:1;fill-rule:nonzero;stroke:none"
       transform="matrix(0.13333333,0,0,-0.13333333,0,544)" />
    <path
       id="path5"
       d="m 3633.25,3415.25 c 179.37,-0.03 324.5,145.08 325,324 -0.5,179.11 -145.63,324.25 -325,324 -178.64,0.25 -323.78,-144.89 -324,-324 0.22,-178.92 145.36,-324.03 324,-324"
       style="fill:#000000;fill-opacity:1;fill-rule:nonzero;stroke:none"
       transform="matrix(0.13333333,0,0,-0.13333333,0,544)" />
  </g>
</svg>
