<?xml version="1.0" encoding="UTF-8" standalone="no"?>
<!-- Created with Inkscape (http://www.inkscape.org/) -->

<svg
   version="1.1"
   id="svg1"
   width="428"
   height="664"
   viewBox="0 0 428 664"
   sodipodi:docname="ss_15_Elevator.eps"
   xmlns:inkscape="http://www.inkscape.org/namespaces/inkscape"
   xmlns:sodipodi="http://sodipodi.sourceforge.net/DTD/sodipodi-0.dtd"
   xmlns="http://www.w3.org/2000/svg"
   xmlns:svg="http://www.w3.org/2000/svg">
  <defs
     id="defs1" />
  <sodipodi:namedview
     id="namedview1"
     pagecolor="#ffffff"
     bordercolor="#000000"
     borderopacity="0.25"
     inkscape:showpageshadow="2"
     inkscape:pageopacity="0.0"
     inkscape:pagecheckerboard="0"
     inkscape:deskcolor="#d1d1d1">
    <inkscape:page
       x="0"
       y="0"
       inkscape:label="1"
       id="page1"
       width="428"
       height="664"
       margin="0"
       bleed="0" />
  </sodipodi:namedview>
  <g
     id="g1"
     inkscape:groupmode="layer"
     inkscape:label="1">
    <path
       id="path1"
       d="m 115.25,415.25 v 2180 c 0.039,217.25 167.25,397.85 397,398 h 2185 c 222.75,-0.15 397.25,-178.25 397,-398 v -2180 -1 C 3095,182.5 2917.5,19.5508 2700.25,19.25 h -2188 v 0 c -217.25,0.2617 -397.418,173.25 -397,396"
       style="fill:#000000;fill-opacity:1;fill-rule:nonzero;stroke:none"
       transform="matrix(0.13333333,0,0,-0.13333333,0,664)" />
    <path
       id="path2"
       d="m 526.25,2576.25 h 2157 v -2144 h -2157 v 2144"
       style="fill:#ffffff;fill-opacity:1;fill-rule:nonzero;stroke:none"
       transform="matrix(0.13333333,0,0,-0.13333333,0,664)" />
    <path
       id="path3"
       d="m 2144.25,4680.25 c -2.9,285.22 409.6,288.44 412,0 l -6,-865 222,272 c 152.75,167.75 422.13,-66.62 256,-257 l -538,-640 c -85.25,-85.25 -195.75,-84.74 -280,0 l -536,643 c -166.12,189.88 105.75,426.75 256,256 l 220,-274 -6,865"
       style="fill:#000000;fill-opacity:1;fill-rule:nonzero;stroke:none"
       transform="matrix(0.13333333,0,0,-0.13333333,0,664)" />
    <path
       id="path4"
       d="m 646.25,3339.25 c -2.398,-284.72 410.1,-287.94 413,0 l -7,866 222,-272 c 153.25,-168.25 422.63,66.13 256,256 l -538,641 c -84.75,84.75 -195.25,84.24 -280,0 l -535,-643 c -166.625,-190.37 105.25,-427.25 256,-257 l 219,275 -6,-866"
       style="fill:#000000;fill-opacity:1;fill-rule:nonzero;stroke:none"
       transform="matrix(0.13333333,0,0,-0.13333333,0,664)" />
    <path
       id="path5"
       d="m 2580.25,1348.25 c 0.3,-43.25 -34.62,-73.46 -73,-73 0,0 -482.25,-0.46 -483,0 -37.79,-0.46 -73.32,30.27 -73,73 v 525 c -0.32,60.08 47.92,101.25 101,101 -0.86,0.25 427,0 427,0 57.63,0.25 101.3,-45.5 101,-101 v -525"
       style="fill:#000000;fill-opacity:1;fill-rule:nonzero;stroke:none"
       transform="matrix(0.13333333,0,0,-0.13333333,0,664)" />
    <path
       id="path6"
       d="m 2462.25,1294.25 h -183 v -710 c -0.48,-125.762 183.25,-125.762 183,0 v 710"
       style="fill:#000000;fill-opacity:1;fill-rule:nonzero;stroke:none"
       transform="matrix(0.13333333,0,0,-0.13333333,0,664)" />
    <path
       id="path7"
       d="m 2251.25,1294.25 h -184 v -710 c -0.11,-124.805 183.59,-124.805 184,0 v 710"
       style="fill:#000000;fill-opacity:1;fill-rule:nonzero;stroke:none"
       transform="matrix(0.13333333,0,0,-0.13333333,0,664)" />
    <path
       id="path8"
       d="m 2267.25,2017.25 c 76.4,-0.14 138.14,61.6 138,138 0.14,75.9 -61.6,137.64 -138,138 -75.9,-0.36 -137.64,-62.1 -138,-138 0.36,-76.4 62.1,-138.14 138,-138"
       style="fill:#000000;fill-opacity:1;fill-rule:nonzero;stroke:none"
       transform="matrix(0.13333333,0,0,-0.13333333,0,664)" />
    <path
       id="path9"
       d="m 1920.25,1348.25 c 0.3,-43.25 -34.62,-73.46 -73,-73 0,0 -482.25,-0.46 -483,0 -37.79,-0.46 -73.32,30.27 -73,73 v 525 c -0.32,60.08 47.92,101.25 101,101 -0.86,0.25 427,0 427,0 57.63,0.25 101.3,-45.5 101,-101 v -525"
       style="fill:#000000;fill-opacity:1;fill-rule:nonzero;stroke:none"
       transform="matrix(0.13333333,0,0,-0.13333333,0,664)" />
    <path
       id="path10"
       d="m 1802.25,1294.25 h -183 v -710 c -0.48,-125.762 183.25,-125.762 183,0 v 710"
       style="fill:#000000;fill-opacity:1;fill-rule:nonzero;stroke:none"
       transform="matrix(0.13333333,0,0,-0.13333333,0,664)" />
    <path
       id="path11"
       d="m 1591.25,1294.25 h -184 v -710 c -0.11,-124.805 183.59,-124.805 184,0 v 710"
       style="fill:#000000;fill-opacity:1;fill-rule:nonzero;stroke:none"
       transform="matrix(0.13333333,0,0,-0.13333333,0,664)" />
    <path
       id="path12"
       d="m 1607.25,2017.25 c 76.4,-0.14 138.14,61.6 138,138 0.14,75.9 -61.6,137.64 -138,138 -75.9,-0.36 -137.64,-62.1 -138,-138 0.36,-76.4 62.1,-138.14 138,-138"
       style="fill:#000000;fill-opacity:1;fill-rule:nonzero;stroke:none"
       transform="matrix(0.13333333,0,0,-0.13333333,0,664)" />
    <path
       id="path13"
       d="m 1260.25,1348.25 c 0.3,-43.25 -34.62,-73.46 -73,-73 0,0 -482.25,-0.46 -483,0 -37.789,-0.46 -73.324,30.27 -73,73 v 525 c -0.324,60.08 47.918,101.25 101,101 -0.863,0.25 427,0 427,0 57.63,0.25 101.3,-45.5 101,-101 v -525"
       style="fill:#000000;fill-opacity:1;fill-rule:nonzero;stroke:none"
       transform="matrix(0.13333333,0,0,-0.13333333,0,664)" />
    <path
       id="path14"
       d="m 1142.25,1294.25 h -183 v -710 c -0.477,-125.762 183.25,-125.762 183,0 v 710"
       style="fill:#000000;fill-opacity:1;fill-rule:nonzero;stroke:none"
       transform="matrix(0.13333333,0,0,-0.13333333,0,664)" />
    <path
       id="path15"
       d="m 931.25,1294.25 h -184 v -710 c -0.113,-124.805 183.594,-124.805 184,0 v 710"
       style="fill:#000000;fill-opacity:1;fill-rule:nonzero;stroke:none"
       transform="matrix(0.13333333,0,0,-0.13333333,0,664)" />
    <path
       id="path16"
       d="m 947.25,2017.25 c 76.4,-0.14 138.14,61.6 138,138 0.14,75.9 -61.6,137.64 -138,138 -75.902,-0.36 -137.637,-62.1 -138,-138 0.363,-76.4 62.098,-138.14 138,-138"
       style="fill:#000000;fill-opacity:1;fill-rule:nonzero;stroke:none"
       transform="matrix(0.13333333,0,0,-0.13333333,0,664)" />
  </g>
</svg>
