<?xml version="1.0" encoding="UTF-8" standalone="no"?>
<!-- Created with Inkscape (http://www.inkscape.org/) -->

<svg
   version="1.1"
   id="svg1"
   width="590.66669"
   height="502.66666"
   viewBox="0 0 590.66669 502.66666"
   sodipodi:docname="ss_14_Stairs-up.eps"
   xmlns:inkscape="http://www.inkscape.org/namespaces/inkscape"
   xmlns:sodipodi="http://sodipodi.sourceforge.net/DTD/sodipodi-0.dtd"
   xmlns="http://www.w3.org/2000/svg"
   xmlns:svg="http://www.w3.org/2000/svg">
  <defs
     id="defs1" />
  <sodipodi:namedview
     id="namedview1"
     pagecolor="#ffffff"
     bordercolor="#000000"
     borderopacity="0.25"
     inkscape:showpageshadow="2"
     inkscape:pageopacity="0.0"
     inkscape:pagecheckerboard="0"
     inkscape:deskcolor="#d1d1d1">
    <inkscape:page
       x="0"
       y="0"
       inkscape:label="1"
       id="page1"
       width="590.66669"
       height="502.66666"
       margin="0"
       bleed="0" />
  </sodipodi:namedview>
  <g
     id="g1"
     inkscape:groupmode="layer"
     inkscape:label="1">
    <path
       id="path1"
       d="M 14.5,520 H 815 v 814.75 h 795.34 V 2155 h 807.89 v 805 h 802.41 v 799.74 H 4412.02 V 3351.7 H 3620 V 2548.92 H 2816.68 V 1734.84 H 2015 V 925 H 1210 V 108.289 H 14.5 V 520"
       style="fill:#000000;fill-opacity:1;fill-rule:nonzero;stroke:none"
       transform="matrix(0.13333333,0,0,-0.13333333,0,502.66667)" />
    <path
       id="path2"
       d="M 3602.93,1380.86 H 2895 c -195,0 -202.5,-300 0,-300 h 362.87 L 2567.75,390.738 c -152.99,-153 63.39,-374.3786 225.93,-211.847 l 679.85,681.73 v -359.16 c -1.03,-195 301.47,-202.5 301.93,0 V 1205 c 0,105 -70.46,175.86 -172.53,175.86"
       style="fill:#000000;fill-opacity:1;fill-rule:nonzero;stroke:none"
       transform="matrix(0.13333333,0,0,-0.13333333,0,502.66667)" />
  </g>
</svg>
