<?xml version="1.0" encoding="UTF-8" standalone="no"?>
<!-- Created with Inkscape (http://www.inkscape.org/) -->

<svg
   version="1.1"
   id="svg1"
   width="421.33334"
   height="632"
   viewBox="0 0 421.33334 632"
   sodipodi:docname="ss_29_Rail-Transportation.eps"
   xmlns:inkscape="http://www.inkscape.org/namespaces/inkscape"
   xmlns:sodipodi="http://sodipodi.sourceforge.net/DTD/sodipodi-0.dtd"
   xmlns="http://www.w3.org/2000/svg"
   xmlns:svg="http://www.w3.org/2000/svg">
  <defs
     id="defs1" />
  <sodipodi:namedview
     id="namedview1"
     pagecolor="#ffffff"
     bordercolor="#000000"
     borderopacity="0.25"
     inkscape:showpageshadow="2"
     inkscape:pageopacity="0.0"
     inkscape:pagecheckerboard="0"
     inkscape:deskcolor="#d1d1d1">
    <inkscape:page
       x="0"
       y="0"
       inkscape:label="1"
       id="page1"
       width="421.33334"
       height="632"
       margin="0"
       bleed="0" />
  </sodipodi:namedview>
  <g
     id="g1"
     inkscape:groupmode="layer"
     inkscape:label="1">
    <path
       id="path1"
       d="m 1578.25,734.25 v 0 h 676 l 494,-724 h 398 l -690,1035 c 229.97,37.25 459.04,277.25 459,570 v 2138 c 0.04,302.25 -253.96,579.39 -599,579 l -735,1 v 0 l -741,-1 c -345.32,0.39 -599.32,-276.75 -599,-579 v -2138 c -0.32,-292.75 228.75,-532.75 459,-570 l -690,-1035 h 398 l 494,724 h 675 1"
       style="fill:#000000;fill-opacity:1;fill-rule:nonzero;stroke:none"
       transform="matrix(0.13333333,0,0,-0.13333333,0,632)" />
    <path
       id="path2"
       d="m 1357.25,4395.25 c -91.22,-0.21 -165.48,74.07 -165,166 -0.48,91.35 73.78,165.63 165,166 92.06,-0.37 166.34,-74.65 166,-166 0.34,-91.93 -73.94,-166.21 -166,-166"
       style="fill:#000000;fill-opacity:1;fill-rule:nonzero;stroke:none"
       transform="matrix(0.13333333,0,0,-0.13333333,0,632)" />
    <path
       id="path3"
       d="m 1798.25,4395.25 c 91.94,-0.21 166.2,74.07 166,166 0.2,91.35 -74.06,165.63 -166,166 -91.34,-0.37 -165.62,-74.65 -166,-166 0.38,-91.93 74.66,-166.21 166,-166"
       style="fill:#000000;fill-opacity:1;fill-rule:nonzero;stroke:none"
       transform="matrix(0.13333333,0,0,-0.13333333,0,632)" />
    <path
       id="path4"
       d="m 2322.25,1357.25 c 145.43,0.12 263.01,117.71 263,263 0.01,144.8 -117.57,262.38 -263,262 -144.67,0.38 -262.25,-117.2 -262,-262 -0.25,-145.29 117.33,-262.88 262,-263"
       style="fill:#ffffff;fill-opacity:1;fill-rule:nonzero;stroke:none"
       transform="matrix(0.13333333,0,0,-0.13333333,0,632)" />
    <path
       id="path5"
       d="m 1578.25,2746.25 v 0 h 718 c 164.97,0.49 299.97,113.75 298,299 v 385 c 0.45,159.75 -103.03,299.37 -298,299 h -718 -1 -717 c -195.25,0.37 -298.73,-139.25 -299,-299 v -385 C 560,2860 695,2746.74 860.25,2746.25 h 717 1"
       style="fill:#ffffff;fill-opacity:1;fill-rule:nonzero;stroke:none"
       transform="matrix(0.13333333,0,0,-0.13333333,0,632)" />
    <path
       id="path6"
       d="m 1578.25,3845.25 v 0 h 290 c 55.47,-0.38 98.63,44.75 99,97 v 170 c -0.37,52.75 -46.03,96.85 -99,97 h -290 v 0 h -1 -290 c -52.25,-0.15 -97.91,-44.25 -98,-97 v -170 c 0.09,-52.25 43.25,-97.38 98,-97 h 290 1"
       style="fill:#ffffff;fill-opacity:1;fill-rule:nonzero;stroke:none"
       transform="matrix(0.13333333,0,0,-0.13333333,0,632)" />
    <path
       id="path7"
       d="m 827.25,1357.25 c -144.801,0.12 -262.379,117.71 -262,263 -0.379,144.8 117.199,262.38 262,262 145.301,0.38 262.88,-117.2 263,-262 -0.12,-145.29 -117.699,-262.88 -263,-263"
       style="fill:#ffffff;fill-opacity:1;fill-rule:nonzero;stroke:none"
       transform="matrix(0.13333333,0,0,-0.13333333,0,632)" />
  </g>
</svg>
