<?xml version="1.0" encoding="UTF-8" standalone="no"?>
<!-- Created with Inkscape (http://www.inkscape.org/) -->

<svg
   version="1.1"
   id="svg1"
   width="672"
   height="421.33334"
   viewBox="0 0 672 421.33334"
   sodipodi:docname="ss_28_Ground-transportation.eps"
   xmlns:inkscape="http://www.inkscape.org/namespaces/inkscape"
   xmlns:sodipodi="http://sodipodi.sourceforge.net/DTD/sodipodi-0.dtd"
   xmlns="http://www.w3.org/2000/svg"
   xmlns:svg="http://www.w3.org/2000/svg">
  <defs
     id="defs1" />
  <sodipodi:namedview
     id="namedview1"
     pagecolor="#ffffff"
     bordercolor="#000000"
     borderopacity="0.25"
     inkscape:showpageshadow="2"
     inkscape:pageopacity="0.0"
     inkscape:pagecheckerboard="0"
     inkscape:deskcolor="#d1d1d1">
    <inkscape:page
       x="0"
       y="0"
       inkscape:label="1"
       id="page1"
       width="672"
       height="421.33334"
       margin="0"
       bleed="0" />
  </sodipodi:namedview>
  <g
     id="g1"
     inkscape:groupmode="layer"
     inkscape:label="1">
    <path
       id="path1"
       d="m 1195.25,465.25 v 0 h -635 v -199 c 0.281,-241.3789 -352.648,-244.2617 -353,0 v 199 h -187 v 621 c -0.4883,166.72 135,254.86 212,264 l 193,489 c 36.031,92.86 114.809,172.35 263,172 h 276 v 128 c 0.25,50.87 28.191,76.76 74,77 h 157 v 0 0 0 h 161 c 45.1,-0.24 73.04,-26.13 73,-77 v -128 h 273 c 148.31,0.35 227.09,-79.14 263,-172 l 194,-489 c 76.12,-9.14 211.75,-97.28 212,-264 v -621 h -188 v -199 c -0.09,-244.2617 -353.02,-241.3789 -353,0 v 199 h -635 v 0 0"
       style="fill:#000000;fill-opacity:1;fill-rule:nonzero;stroke:none"
       transform="matrix(0.13333333,0,0,-0.13333333,0,421.33333)" />
    <path
       id="path2"
       d="m 1195.25,1362.25 v 0 h -763 l 145,378 c 18.109,53.86 45.391,92.86 109,93 h 509 v 0 0 h 509 c 63.75,-0.14 91.02,-39.14 109,-93 l 146,-378 h -764 v 0"
       style="fill:#ffffff;fill-opacity:1;fill-rule:nonzero;stroke:none"
       transform="matrix(0.13333333,0,0,-0.13333333,0,421.33333)" />
    <path
       id="path3"
       d="m 389.25,844.25 c -89.59,0.441 -162.59,74.18 -163,165 0.41,91.09 73.41,164.83 163,165 90.461,-0.17 163.449,-73.91 163,-165 0.449,-90.82 -72.539,-164.559 -163,-165"
       style="fill:#ffffff;fill-opacity:1;fill-rule:nonzero;stroke:none"
       transform="matrix(0.13333333,0,0,-0.13333333,0,421.33333)" />
    <path
       id="path4"
       d="m 2001.25,844.25 c 89.72,0.441 162.71,74.18 163,165 -0.29,91.09 -73.28,164.83 -163,165 -90.34,-0.17 -163.33,-73.91 -163,-165 -0.33,-90.82 72.66,-164.559 163,-165"
       style="fill:#ffffff;fill-opacity:1;fill-rule:nonzero;stroke:none"
       transform="matrix(0.13333333,0,0,-0.13333333,0,421.33333)" />
    <path
       id="path5"
       d="m 3763.25,3145.25 c -287.82,-0.5 -685.82,-81.6 -851,-149 -164.2,-67.76 -273.99,-135.33 -308,-304 l -124,-937 v -1290 h 213 v -203 c -0.09,-246.6211 366.58,-246.6211 367,0 v 203 h 677 2 703 v -203 c 0.44,-246.6211 367.12,-246.6211 367,0 v 203 h 213 v 1290 l -124,937 c -33.99,168.67 -143.78,236.24 -308,304 -165.15,67.4 -563.15,148.5 -851,149"
       style="fill:#000000;fill-opacity:1;fill-rule:nonzero;stroke:none"
       transform="matrix(0.13333333,0,0,-0.13333333,0,421.33333)" />
    <path
       id="path6"
       d="m 4626.25,869.25 c 96.76,0.121 175.51,77.691 176,173 -0.49,96.01 -79.24,173.58 -176,174 -97.5,-0.42 -176.26,-77.99 -176,-174 -0.26,-95.309 78.5,-172.879 176,-173"
       style="fill:#ffffff;fill-opacity:1;fill-rule:nonzero;stroke:none"
       transform="matrix(0.13333333,0,0,-0.13333333,0,421.33333)" />
    <path
       id="path7"
       d="m 2876.25,869.25 c -96.74,0.121 -175.49,77.691 -175,173 -0.49,96.01 78.26,173.58 175,174 97.53,-0.42 176.28,-77.99 176,-174 0.28,-95.309 -78.47,-172.879 -176,-173"
       style="fill:#ffffff;fill-opacity:1;fill-rule:nonzero;stroke:none"
       transform="matrix(0.13333333,0,0,-0.13333333,0,421.33333)" />
    <path
       id="path8"
       d="m 3737.25,2756.25 h -509 c -102.79,-0.07 -102.79,151.97 0,152 h 511 535 c 102.81,-0.03 102.81,-152.07 0,-152 h -537"
       style="fill:#ffffff;fill-opacity:1;fill-rule:nonzero;stroke:none"
       transform="matrix(0.13333333,0,0,-0.13333333,0,421.33333)" />
    <path
       id="path9"
       d="m 3737.25,2602.25 h -786 c -109.08,0.41 -137.48,-54 -151,-137 l -96,-679 c -8.78,-64.96 10.34,-129.59 102,-130 h 933 957 c 91.68,0.41 110.8,65.04 102,130 l -96,679 c -13.49,83 -41.9,137.41 -151,137 h -814"
       style="fill:#ffffff;fill-opacity:1;fill-rule:nonzero;stroke:none"
       transform="matrix(0.13333333,0,0,-0.13333333,0,421.33333)" />
  </g>
</svg>
