<?xml version="1.0" encoding="UTF-8" standalone="no"?>
<!-- Created with Inkscape (http://www.inkscape.org/) -->

<svg
   version="1.1"
   id="svg1"
   width="562.66669"
   height="594.66669"
   viewBox="0 0 562.66669 594.66669"
   sodipodi:docname="ss_23_Hotel-Information.eps"
   xmlns:inkscape="http://www.inkscape.org/namespaces/inkscape"
   xmlns:sodipodi="http://sodipodi.sourceforge.net/DTD/sodipodi-0.dtd"
   xmlns="http://www.w3.org/2000/svg"
   xmlns:svg="http://www.w3.org/2000/svg">
  <defs
     id="defs1" />
  <sodipodi:namedview
     id="namedview1"
     pagecolor="#ffffff"
     bordercolor="#000000"
     borderopacity="0.25"
     inkscape:showpageshadow="2"
     inkscape:pageopacity="0.0"
     inkscape:pagecheckerboard="0"
     inkscape:deskcolor="#d1d1d1">
    <inkscape:page
       x="0"
       y="0"
       inkscape:label="1"
       id="page1"
       width="562.66669"
       height="594.66669"
       margin="0"
       bleed="0" />
  </sodipodi:namedview>
  <g
     id="g1"
     inkscape:groupmode="layer"
     inkscape:label="1">
    <path
       id="path1"
       d="m 912.25,1656.25 c 215.6,-0.4 390.58,174.59 391,390 -0.42,216.33 -175.4,391.35 -391,391 -216.141,0.35 -391.141,-174.67 -391,-391 -0.141,-215.41 174.859,-390.4 391,-390"
       style="fill:#000000;fill-opacity:1;fill-rule:nonzero;stroke:none"
       transform="matrix(0.13333333,0,0,-0.13333333,0,594.66667)" />
    <path
       id="path2"
       d="m 1756.25,2157.25 h 1562 c 229.25,0.28 364.27,-147.25 364,-345 v -565 h -1926 v 910"
       style="fill:#000000;fill-opacity:1;fill-rule:nonzero;stroke:none"
       transform="matrix(0.13333333,0,0,-0.13333333,0,594.66667)" />
    <path
       id="path3"
       d="m 1330.25,1955.25 v -339 h -600 c -290.25,-1.29 -290.719,-374.07 0,-374 h 787 c 115.25,-0.07 187.25,92.75 187,198 v 515 c 0.25,282.15 -373.56,282.15 -374,0"
       style="fill:#000000;fill-opacity:1;fill-rule:nonzero;stroke:none"
       transform="matrix(0.13333333,0,0,-0.13333333,0,594.66667)" />
    <path
       id="path4"
       d="m 446.25,2483.25 c 0.23,307.96 -426.7891,307.96 -427,0 v -2468 h 437 v 637 h 3321 v -632 h 427 v 1906 c -0.09,324.95 -431.83,324.95 -432,0 v -761 h -3326 v 1318"
       style="fill:#000000;fill-opacity:1;fill-rule:nonzero;stroke:none"
       transform="matrix(0.13333333,0,0,-0.13333333,0,594.66667)" />
    <path
       id="path5"
       d="m 2104.25,2488.25 c 534.76,0.24 968.63,438.46 969,979 -0.37,540.51 -434.24,978.72 -969,979 -535.61,-0.28 -969.49,-438.49 -969,-979 -0.49,-540.54 433.39,-978.76 969,-979"
       style="fill:#000000;fill-opacity:1;fill-rule:nonzero;stroke:none"
       transform="matrix(0.13333333,0,0,-0.13333333,0,594.66667)" />
    <path
       id="path6"
       d="m 2104.25,2714.25 c 411.39,-0.12 745.23,337.06 745,753 0.23,415.91 -333.61,753.08 -745,753 -412.24,0.08 -746.09,-337.09 -746,-753 -0.09,-415.94 333.76,-753.12 746,-753"
       style="fill:#ffffff;fill-opacity:1;fill-rule:nonzero;stroke:none"
       transform="matrix(0.13333333,0,0,-0.13333333,0,594.66667)" />
    <path
       id="path7"
       d="m 2003.25,3122.25 h 219 v 170 c -0.46,45.72 21,89.21 78,127 57.83,37.53 218.11,113.92 218,315 0.11,200.65 -168.21,338.72 -310,368 -141.15,29.3 -294.43,10.03 -403,-109 -97.61,-106.84 -118.13,-191.25 -118,-377 h 218 v 43 c 0.12,99.04 11.6,203.79 153,232 77.75,16.07 150.28,-8.2 193,-50 49.52,-48.4 49.92,-156.83 -29,-211 l -123,-84 c -71.28,-45.54 -95.89,-96.79 -96,-172 v -252"
       style="fill:#000000;fill-opacity:1;fill-rule:nonzero;stroke:none"
       transform="matrix(0.13333333,0,0,-0.13333333,0,594.66667)" />
    <path
       id="path8"
       d="m 2002.25,2811.25 v 225 h 221 v -225 h -221"
       style="fill:#000000;fill-opacity:1;fill-rule:nonzero;stroke:none"
       transform="matrix(0.13333333,0,0,-0.13333333,0,594.66667)" />
  </g>
</svg>
