<?xml version="1.0" encoding="UTF-8" standalone="no"?>
<!-- Created with Inkscape (http://www.inkscape.org/) -->

<svg
   version="1.1"
   id="svg1"
   width="489.33334"
   height="609.33331"
   viewBox="0 0 489.33334 609.33331"
   sodipodi:docname="ss_20_DrinkingFountain.eps"
   xmlns:inkscape="http://www.inkscape.org/namespaces/inkscape"
   xmlns:sodipodi="http://sodipodi.sourceforge.net/DTD/sodipodi-0.dtd"
   xmlns="http://www.w3.org/2000/svg"
   xmlns:svg="http://www.w3.org/2000/svg">
  <defs
     id="defs1" />
  <sodipodi:namedview
     id="namedview1"
     pagecolor="#ffffff"
     bordercolor="#000000"
     borderopacity="0.25"
     inkscape:showpageshadow="2"
     inkscape:pageopacity="0.0"
     inkscape:pagecheckerboard="0"
     inkscape:deskcolor="#d1d1d1">
    <inkscape:page
       x="0"
       y="0"
       inkscape:label="1"
       id="page1"
       width="489.33334"
       height="609.33331"
       margin="0"
       bleed="0" />
  </sodipodi:namedview>
  <g
     id="g1"
     inkscape:groupmode="layer"
     inkscape:label="1">
    <path
       id="path1"
       d="m 2320.25,3654.25 c 247.36,-0.07 448.08,200.65 448,448 0.08,247.83 -200.64,448.57 -448,449 -247.85,-0.43 -448.58,-201.17 -449,-449 0.42,-247.35 201.15,-448.07 449,-448"
       style="fill:#000000;fill-opacity:1;fill-rule:nonzero;stroke:none"
       transform="matrix(0.13333333,0,0,-0.13333333,0,609.33333)" />
    <path
       id="path2"
       d="M 1290.25,4015.25 C 1545,4145 1900,3905 1902.25,3641.25 v -853 l 407,-448 c 185.75,-210.25 -109.28,-497.76 -315,-288 l -460,506 c -28.01,27.26 -49.34,60.81 -49,139 v 408 l -801,-433 v -2172 C 683.969,10 19.5,10.1016 19.25,496.25 v 2575 c 0.25,143.28 57.1602,282.88 199,364 l 1072,580"
       style="fill:#000000;fill-opacity:1;fill-rule:nonzero;stroke:none"
       transform="matrix(0.13333333,0,0,-0.13333333,0,609.33333)" />
    <path
       id="path3"
       d="m 2955.25,1810.25 h 705 v 1285 l -1420,2 c -182.75,0.25 -251.09,-205.58 -138,-335 l 853,-952"
       style="fill:#000000;fill-opacity:1;fill-rule:nonzero;stroke:none"
       transform="matrix(0.13333333,0,0,-0.13333333,0,609.33333)" />
    <path
       id="path4"
       d="m 2546.25,3155.25 c 29.79,0.13 54.32,24.67 54,55 0.32,30.2 -24.21,54.74 -54,55 -30.74,-0.26 -55.28,-24.8 -55,-55 -0.28,-30.33 24.26,-54.87 55,-55"
       style="fill:#000000;fill-opacity:1;fill-rule:nonzero;stroke:none"
       transform="matrix(0.13333333,0,0,-0.13333333,0,609.33333)" />
    <path
       id="path5"
       d="m 2692.25,3146.25 c 30.55,-0.47 55.09,24.07 55,54 0.09,30.6 -24.45,55.13 -55,55 -29.98,0.13 -54.51,-24.4 -55,-55 0.49,-29.93 25.02,-54.47 55,-54"
       style="fill:#000000;fill-opacity:1;fill-rule:nonzero;stroke:none"
       transform="matrix(0.13333333,0,0,-0.13333333,0,609.33333)" />
    <path
       id="path6"
       d="m 2702.25,3307.25 c 29.95,0.49 54.49,25.03 54,55 0.49,30.56 -24.05,55.1 -54,55 -30.58,0.1 -55.11,-24.44 -55,-55 -0.11,-29.97 24.42,-54.51 55,-55"
       style="fill:#000000;fill-opacity:1;fill-rule:nonzero;stroke:none"
       transform="matrix(0.13333333,0,0,-0.13333333,0,609.33333)" />
    <path
       id="path7"
       d="m 2556.25,3318.25 c 29.77,-0.29 54.3,24.24 54,55 0.3,29.77 -24.23,54.31 -54,54 -30.76,0.31 -55.3,-24.23 -55,-54 -0.3,-30.76 24.24,-55.29 55,-55"
       style="fill:#000000;fill-opacity:1;fill-rule:nonzero;stroke:none"
       transform="matrix(0.13333333,0,0,-0.13333333,0,609.33333)" />
    <path
       id="path8"
       d="m 2603.25,3468.25 c 31.75,-0.08 57.51,25.68 58,57 -0.49,32.24 -26.25,58 -58,58 -31.81,0 -57.57,-25.76 -58,-58 0.43,-31.32 26.19,-57.08 58,-57"
       style="fill:#000000;fill-opacity:1;fill-rule:nonzero;stroke:none"
       transform="matrix(0.13333333,0,0,-0.13333333,0,609.33333)" />
    <path
       id="path9"
       d="m 2781.25,3439.25 c 32.14,0.13 57.9,25.89 58,58 -0.1,31.45 -25.86,57.21 -58,57 -31.42,0.21 -57.18,-25.55 -57,-57 -0.18,-32.11 25.58,-57.87 57,-58"
       style="fill:#000000;fill-opacity:1;fill-rule:nonzero;stroke:none"
       transform="matrix(0.13333333,0,0,-0.13333333,0,609.33333)" />
    <path
       id="path10"
       d="m 2718.25,3587.25 c 33.34,0.43 60.39,27.48 60,61 0.39,33.22 -26.66,60.27 -60,60 -33.39,0.27 -60.45,-26.78 -60,-60 -0.45,-33.52 26.61,-60.57 60,-61"
       style="fill:#000000;fill-opacity:1;fill-rule:nonzero;stroke:none"
       transform="matrix(0.13333333,0,0,-0.13333333,0,609.33333)" />
    <path
       id="path11"
       d="m 2925.25,3491.25 c 32.9,0.45 59.95,27.5 60,61 -0.05,33.23 -27.1,60.28 -60,60 -33.83,0.28 -60.89,-26.77 -61,-60 0.11,-33.5 27.17,-60.55 61,-61"
       style="fill:#000000;fill-opacity:1;fill-rule:nonzero;stroke:none"
       transform="matrix(0.13333333,0,0,-0.13333333,0,609.33333)" />
    <path
       id="path12"
       d="m 2859.25,3640.25 c 33.15,0.22 60.2,27.27 60,61 0.2,33.01 -26.85,60.06 -60,60 -33.58,0.06 -60.63,-26.99 -61,-60 0.37,-33.73 27.42,-60.78 61,-61"
       style="fill:#000000;fill-opacity:1;fill-rule:nonzero;stroke:none"
       transform="matrix(0.13333333,0,0,-0.13333333,0,609.33333)" />
    <path
       id="path13"
       d="m 3022.25,3640.25 c 36.52,0.02 66.35,29.84 66,67 0.35,36.42 -29.48,66.24 -66,66 -37.05,0.24 -66.88,-29.58 -67,-66 0.12,-37.16 29.95,-66.98 67,-67"
       style="fill:#000000;fill-opacity:1;fill-rule:nonzero;stroke:none"
       transform="matrix(0.13333333,0,0,-0.13333333,0,609.33333)" />
    <path
       id="path14"
       d="m 3073.25,3434.25 c 37.18,-0.34 67,29.49 67,66 0,37.06 -29.82,66.89 -67,67 -36.4,-0.11 -66.22,-29.94 -66,-67 -0.22,-36.51 29.6,-66.34 66,-66"
       style="fill:#000000;fill-opacity:1;fill-rule:nonzero;stroke:none"
       transform="matrix(0.13333333,0,0,-0.13333333,0,609.33333)" />
    <path
       id="path15"
       d="m 3175.25,3561.25 c 38.92,0.1 70.24,31.42 70,70 0.24,38.67 -31.08,69.99 -70,70 -38.33,-0.01 -69.65,-31.33 -70,-70 0.35,-38.58 31.67,-69.9 70,-70"
       style="fill:#000000;fill-opacity:1;fill-rule:nonzero;stroke:none"
       transform="matrix(0.13333333,0,0,-0.13333333,0,609.33333)" />
    <path
       id="path16"
       d="m 3309.25,3426.25 c 40.56,-0.37 73.44,32.51 73,73 0.44,40.63 -32.44,73.51 -73,74 -40.56,-0.49 -73.44,-33.37 -73,-74 -0.44,-40.49 32.44,-73.37 73,-73"
       style="fill:#000000;fill-opacity:1;fill-rule:nonzero;stroke:none"
       transform="matrix(0.13333333,0,0,-0.13333333,0,609.33333)" />
    <path
       id="path17"
       d="m 3182.25,3296.25 c 40.74,0.06 73.62,32.94 74,74 -0.38,40.06 -33.26,72.94 -74,73 -40.37,-0.06 -73.25,-32.94 -73,-73 -0.25,-41.06 32.63,-73.94 73,-74"
       style="fill:#000000;fill-opacity:1;fill-rule:nonzero;stroke:none"
       transform="matrix(0.13333333,0,0,-0.13333333,0,609.33333)" />
  </g>
</svg>
