<?xml version="1.0" encoding="UTF-8" standalone="no"?>
<!-- Created with Inkscape (http://www.inkscape.org/) -->

<svg
   version="1.1"
   id="svg1"
   width="589.33331"
   height="594.66669"
   viewBox="0 0 589.33331 594.66669"
   sodipodi:docname="ss_22_Information.eps"
   xmlns:inkscape="http://www.inkscape.org/namespaces/inkscape"
   xmlns:sodipodi="http://sodipodi.sourceforge.net/DTD/sodipodi-0.dtd"
   xmlns="http://www.w3.org/2000/svg"
   xmlns:svg="http://www.w3.org/2000/svg">
  <defs
     id="defs1" />
  <sodipodi:namedview
     id="namedview1"
     pagecolor="#ffffff"
     bordercolor="#000000"
     borderopacity="0.25"
     inkscape:showpageshadow="2"
     inkscape:pageopacity="0.0"
     inkscape:pagecheckerboard="0"
     inkscape:deskcolor="#d1d1d1">
    <inkscape:page
       x="0"
       y="0"
       inkscape:label="1"
       id="page1"
       width="589.33331"
       height="594.66669"
       margin="0"
       bleed="0" />
  </sodipodi:namedview>
  <g
     id="g1"
     inkscape:groupmode="layer"
     inkscape:label="1">
    <path
       id="path1"
       d="m 2210.25,10.25 c 1213.34,0.3516 2197.19,994.05 2197,2220 0.19,1225.47 -983.66,2219.15 -2197,2219 -1213.82,0.15 -2197.6914,-993.53 -2198,-2219 0.3086,-1225.95 984.18,-2219.6484 2198,-2220"
       style="fill:#000000;fill-opacity:1;fill-rule:nonzero;stroke:none"
       transform="matrix(0.13333333,0,0,-0.13333333,0,594.66667)" />
    <path
       id="path2"
       d="m 2210.25,522.25 c 933.59,0.012 1690.61,764.6 1691,1708 -0.39,942.92 -757.41,1707.49 -1691,1707 -934.07,0.49 -1691.102,-764.08 -1691,-1707 -0.102,-943.4 756.93,-1707.988 1691,-1708"
       style="fill:#ffffff;fill-opacity:1;fill-rule:nonzero;stroke:none"
       transform="matrix(0.13333333,0,0,-0.13333333,0,594.66667)" />
    <path
       id="path3"
       d="m 1982.25,1446.25 495,1 v 385 c 0.25,104.63 48.91,203.25 179,289 130.3,85.03 493.75,258.27 494,714 -0.25,455.25 -381.92,768.33 -703,835 -320.53,66.17 -668.1,22.47 -915,-248 -220.62,-241.72 -267.16,-433.12 -267,-855 h 495 v 98 c -0.25,224.76 25.78,462.29 347,527 175.71,35.71 340.19,-19.33 438,-115 111.35,-108.87 112.25,-354.75 -66,-477 l -279,-190 c -162.26,-104.35 -218.06,-220.56 -218,-391 v -573"
       style="fill:#000000;fill-opacity:1;fill-rule:nonzero;stroke:none"
       transform="matrix(0.13333333,0,0,-0.13333333,0,594.66667)" />
    <path
       id="path4"
       d="m 1979.25,742.25 v 510 h 502 v -510 h -502"
       style="fill:#000000;fill-opacity:1;fill-rule:nonzero;stroke:none"
       transform="matrix(0.13333333,0,0,-0.13333333,0,594.66667)" />
  </g>
</svg>
