<?xml version="1.0" encoding="UTF-8" standalone="no"?>
<!-- Created with Inkscape (http://www.inkscape.org/) -->

<svg
   version="1.1"
   id="svg1"
   width="521.33331"
   height="490.66666"
   viewBox="0 0 521.33331 490.66666"
   sodipodi:docname="ss_26_Taxi.eps"
   xmlns:inkscape="http://www.inkscape.org/namespaces/inkscape"
   xmlns:sodipodi="http://sodipodi.sourceforge.net/DTD/sodipodi-0.dtd"
   xmlns="http://www.w3.org/2000/svg"
   xmlns:svg="http://www.w3.org/2000/svg">
  <defs
     id="defs1" />
  <sodipodi:namedview
     id="namedview1"
     pagecolor="#ffffff"
     bordercolor="#000000"
     borderopacity="0.25"
     inkscape:showpageshadow="2"
     inkscape:pageopacity="0.0"
     inkscape:pagecheckerboard="0"
     inkscape:deskcolor="#d1d1d1">
    <inkscape:page
       x="0"
       y="0"
       inkscape:label="1"
       id="page1"
       width="521.33331"
       height="490.66666"
       margin="0"
       bleed="0" />
  </sodipodi:namedview>
  <g
     id="g1"
     inkscape:groupmode="layer"
     inkscape:label="1">
    <path
       id="path1"
       d="m 1950.25,749.25 v 0 h -1048 v -330 c 0.262,-402.9609 -582.121,-407.75 -582,0 v 330 h -310 v 1036 c -0.0898,277.86 223.488,424.75 350,441 l 318,814 c 60.488,154.75 190.488,287.23 435,287 h 456 v 213 c -0.12,84.75 45.98,127.91 121,128 h 260 v 0 0 0 h 265 c 74.75,-0.09 120.85,-43.25 121,-128 v -213 h 450 c 245.01,0.23 375.01,-132.25 435,-287 l 319,-814 c 126.01,-16.25 349.82,-163.14 350,-441 v -1036 h -310 v -330 c -0.15,-407.75 -582.53,-402.9609 -583,0 v 330 h -1047 v 0 0"
       style="fill:#000000;fill-opacity:1;fill-rule:nonzero;stroke:none"
       transform="matrix(0.13333333,0,0,-0.13333333,0,490.66667)" />
    <path
       id="path2"
       d="m 1950.25,2245.25 h -1260 l 240,630 c 29.73,89.75 74.75,154.75 180,156 h 839 1 v 0 h 840 c 104.77,-1.25 149.77,-66.25 180,-156 l 240,-630 h -1260 v 0"
       style="fill:#ffffff;fill-opacity:1;fill-rule:nonzero;stroke:none"
       transform="matrix(0.13333333,0,0,-0.13333333,0,490.66667)" />
    <path
       id="path3"
       d="m 620.25,1382.25 c -148.219,0.39 -268.668,123.3 -269,275 0.332,151.48 120.781,274.38 269,274 148.898,0.38 269.34,-122.52 269,-274 0.34,-151.7 -120.102,-274.61 -269,-275"
       style="fill:#ffffff;fill-opacity:1;fill-rule:nonzero;stroke:none"
       transform="matrix(0.13333333,0,0,-0.13333333,0,490.66667)" />
    <path
       id="path4"
       d="m 3279.25,1382.25 c 148.73,0.39 269.17,123.3 269,275 0.17,151.48 -120.27,274.38 -269,274 -148.39,0.38 -268.84,-122.52 -269,-274 0.16,-151.7 120.61,-274.61 269,-275"
       style="fill:#ffffff;fill-opacity:1;fill-rule:nonzero;stroke:none"
       transform="matrix(0.13333333,0,0,-0.13333333,0,490.66667)" />
  </g>
</svg>
