<?xml version="1.0" encoding="UTF-8" standalone="no"?>
<!-- Created with Inkscape (http://www.inkscape.org/) -->

<svg
   version="1.1"
   id="svg1"
   width="594.66669"
   height="369.33334"
   viewBox="0 0 594.66669 369.33334"
   sodipodi:docname="ss_33_Coffee-Shop.eps"
   xmlns:inkscape="http://www.inkscape.org/namespaces/inkscape"
   xmlns:sodipodi="http://sodipodi.sourceforge.net/DTD/sodipodi-0.dtd"
   xmlns="http://www.w3.org/2000/svg"
   xmlns:svg="http://www.w3.org/2000/svg">
  <defs
     id="defs1" />
  <sodipodi:namedview
     id="namedview1"
     pagecolor="#ffffff"
     bordercolor="#000000"
     borderopacity="0.25"
     inkscape:showpageshadow="2"
     inkscape:pageopacity="0.0"
     inkscape:pagecheckerboard="0"
     inkscape:deskcolor="#d1d1d1">
    <inkscape:page
       x="0"
       y="0"
       inkscape:label="1"
       id="page1"
       width="594.66669"
       height="369.33334"
       margin="0"
       bleed="0" />
  </sodipodi:namedview>
  <g
     id="g1"
     inkscape:groupmode="layer"
     inkscape:label="1">
    <path
       id="path1"
       d="m 4445.25,487.25 h -4431 c 0,-320.57 244.488,-469.3711 441,-469 h 3550 c 234.68,-0.3711 440.44,184.262 440,469"
       style="fill:#000000;fill-opacity:1;fill-rule:nonzero;stroke:none"
       transform="matrix(0.13333333,0,0,-0.13333333,0,369.33333)" />
    <path
       id="path2"
       d="m 960.25,2751.25 v -1736 c -0.379,-235.301 202.63,-421.621 422,-422 h 1715 c 248.03,0.379 416.8,208.371 417,422 v 145 c 488.68,-0.28 843.88,367.3 844,795 -0.12,437.29 -348.25,795.8 -753,796 h -2645"
       style="fill:#000000;fill-opacity:1;fill-rule:nonzero;stroke:none"
       transform="matrix(0.13333333,0,0,-0.13333333,0,369.33333)" />
    <path
       id="path3"
       d="m 4046.25,1954.25 c 1.25,153.25 -106.25,470.61 -441,471 v 0 h -91 v -935 c 348.25,-22.75 531.97,215.31 532,465 v -1"
       style="fill:#ffffff;fill-opacity:1;fill-rule:nonzero;stroke:none"
       transform="matrix(0.13333333,0,0,-0.13333333,0,369.33333)" />
  </g>
</svg>
