<?xml version="1.0" encoding="UTF-8" standalone="no"?>
<!-- Created with Inkscape (http://www.inkscape.org/) -->

<svg
   version="1.1"
   id="svg1"
   width="637.33331"
   height="614.66669"
   viewBox="0 0 637.33331 614.66669"
   sodipodi:docname="ss_39_TicketPurchase.eps"
   xmlns:inkscape="http://www.inkscape.org/namespaces/inkscape"
   xmlns:sodipodi="http://sodipodi.sourceforge.net/DTD/sodipodi-0.dtd"
   xmlns="http://www.w3.org/2000/svg"
   xmlns:svg="http://www.w3.org/2000/svg">
  <defs
     id="defs1" />
  <sodipodi:namedview
     id="namedview1"
     pagecolor="#ffffff"
     bordercolor="#000000"
     borderopacity="0.25"
     inkscape:showpageshadow="2"
     inkscape:pageopacity="0.0"
     inkscape:pagecheckerboard="0"
     inkscape:deskcolor="#d1d1d1">
    <inkscape:page
       x="0"
       y="0"
       inkscape:label="1"
       id="page1"
       width="637.33331"
       height="614.66669"
       margin="0"
       bleed="0" />
  </sodipodi:namedview>
  <g
     id="g1"
     inkscape:groupmode="layer"
     inkscape:label="1">
    <path
       id="path1"
       d="m 1203.25,3856.25 c 205.21,-0.14 371.75,166.37 372,372 -0.25,205.21 -166.79,371.75 -372,372 -205.621,-0.25 -372.148,-166.79 -372,-372 -0.148,-205.63 166.379,-372.14 372,-372"
       style="fill:#000000;fill-opacity:1;fill-rule:nonzero;stroke:none"
       transform="matrix(0.13333333,0,0,-0.13333333,0,614.66667)" />
    <path
       id="path2"
       d="m 227.25,2537.25 h 327 l 198,719 h 80 l -193,-719 h 1156 l -207,719 h 84 l 110,-352 c 52.75,-149.25 184.57,-183.64 286,-57 l 401,484 c 124.5,162.5 -101.75,333.75 -233,191 l -236,-282 c -0.25,-4.94 -45,155 -45,155 -55.25,189.75 -235.25,376.5 -505,377 h -510 c -240.25,-0.5 -429.199,-210.58 -468,-342 l -245,-893"
       style="fill:#000000;fill-opacity:1;fill-rule:nonzero;stroke:none"
       transform="matrix(0.13333333,0,0,-0.13333333,0,614.66667)" />
    <path
       id="path3"
       d="m 2684.25,3517.25 v 743 h -333 v -743 h 333"
       style="fill:#000000;fill-opacity:1;fill-rule:nonzero;stroke:none"
       transform="matrix(0.13333333,0,0,-0.13333333,0,614.66667)" />
    <path
       id="path4"
       d="m 3810.25,3852.25 c 205.04,0.31 371.57,166.83 372,372 -0.43,205.67 -166.96,372.2 -372,372 -205.79,0.2 -372.32,-166.33 -372,-372 -0.32,-205.17 166.21,-371.69 372,-372"
       style="fill:#000000;fill-opacity:1;fill-rule:nonzero;stroke:none"
       transform="matrix(0.13333333,0,0,-0.13333333,0,614.66667)" />
    <path
       id="path5"
       d="m 4280.25,339.25 v 2057 h 273 v 1120 c 0.26,145.95 -131.25,258.67 -319,259 h -874 c -173.43,-0.33 -215.7,-56.69 -263,-104 l -727,-874 c -148.43,-182.12 114.52,-395.36 262,-225 l 701,829 v -3064 c -0.08,-309.3711 431.75,-319.5312 432,-10 v 1739 l 86,1 v -1732 c -0.21,-306.4297 429.02,-307.3711 429,4"
       style="fill:#000000;fill-opacity:1;fill-rule:nonzero;stroke:none"
       transform="matrix(0.13333333,0,0,-0.13333333,0,614.66667)" />
    <path
       id="path6"
       d="m 4768.25,2029.25 v 423 h -4758 v -423 h 4758"
       style="fill:#000000;fill-opacity:1;fill-rule:nonzero;stroke:none"
       transform="matrix(0.13333333,0,0,-0.13333333,0,614.66667)" />
  </g>
</svg>
