<?xml version="1.0" encoding="UTF-8" standalone="no"?>
<!-- Created with Inkscape (http://www.inkscape.org/) -->

<svg
   version="1.1"
   id="svg1"
   width="549.33331"
   height="525.33331"
   viewBox="0 0 549.33331 525.33331"
   sodipodi:docname="ss_35_Shops.eps"
   xmlns:inkscape="http://www.inkscape.org/namespaces/inkscape"
   xmlns:sodipodi="http://sodipodi.sourceforge.net/DTD/sodipodi-0.dtd"
   xmlns="http://www.w3.org/2000/svg"
   xmlns:svg="http://www.w3.org/2000/svg">
  <defs
     id="defs1" />
  <sodipodi:namedview
     id="namedview1"
     pagecolor="#ffffff"
     bordercolor="#000000"
     borderopacity="0.25"
     inkscape:showpageshadow="2"
     inkscape:pageopacity="0.0"
     inkscape:pagecheckerboard="0"
     inkscape:deskcolor="#d1d1d1">
    <inkscape:page
       x="0"
       y="0"
       inkscape:label="1"
       id="page1"
       width="549.33331"
       height="525.33331"
       margin="0"
       bleed="0" />
  </sodipodi:namedview>
  <g
     id="g1"
     inkscape:groupmode="layer"
     inkscape:label="1">
    <path
       id="path1"
       d="m 22.25,3849.25 h 684 v -367 c 0,-85.2 60.809,-114.6 144,-80 l 1112,506 c 32.97,14.54 73.77,-2.68 88,-31 l 89,-191 c 13.25,-31.01 2.85,-67.85 -31,-84 l -1553,-702 c -268.41,-141 -532.8906,43.47 -533,295 v 654"
       style="fill:#000000;fill-opacity:1;fill-rule:nonzero;stroke:none"
       transform="matrix(0.13333333,0,0,-0.13333333,0,525.33333)" />
    <path
       id="path2"
       d="m 4102.25,2997.25 h -374 l 360,291 -206,277 -323,-239 149,483 -323,101 -168,-512 v 0 l -167,512 -323,-101 148,-483 -335,244 -206,-277 372,-296 h -374 v -2982 h 1770 v 2977 5"
       style="fill:#000000;fill-opacity:1;fill-rule:nonzero;stroke:none"
       transform="matrix(0.13333333,0,0,-0.13333333,0,525.33333)" />
    <path
       id="path3"
       d="m 1347.25,3002.25 c -1.05,-1.73 -1092,-487 -1092,-487 C 80,2430 16.4688,2307.23 16.25,2140.25 v -1646 c 0.2188,-263.102 210.93,-478.1211 454,-478 h 1461 v 301 c -178.71,23.07 -178.7,278.68 -4,302 v 2041 h -581 l 1,342"
       style="fill:#000000;fill-opacity:1;fill-rule:nonzero;stroke:none"
       transform="matrix(0.13333333,0,0,-0.13333333,0,525.33333)" />
    <path
       id="path4"
       d="m 3769.25,2643.25 h -375 v -473 h 375 v 473"
       style="fill:#ffffff;fill-opacity:1;fill-rule:nonzero;stroke:none"
       transform="matrix(0.13333333,0,0,-0.13333333,0,525.33333)" />
    <path
       id="path5"
       d="m 3039.25,2643.25 h -375 v -473 h 375 v 473"
       style="fill:#ffffff;fill-opacity:1;fill-rule:nonzero;stroke:none"
       transform="matrix(0.13333333,0,0,-0.13333333,0,525.33333)" />
    <path
       id="path6"
       d="m 3769.25,1822.25 h -375 v -1458 h 375 v 1458"
       style="fill:#ffffff;fill-opacity:1;fill-rule:nonzero;stroke:none"
       transform="matrix(0.13333333,0,0,-0.13333333,0,525.33333)" />
    <path
       id="path7"
       d="m 3039.25,1822.25 h -375 v -1458 h 375 v 1458"
       style="fill:#ffffff;fill-opacity:1;fill-rule:nonzero;stroke:none"
       transform="matrix(0.13333333,0,0,-0.13333333,0,525.33333)" />
    <path
       id="path8"
       d="m 1482.25,575.25 h -1020 c -158.961,-0.078 -159.531,-224.648 0,-225 h 1029 c -74.7,48.129 -79.39,172.359 -9,225"
       style="fill:#ffffff;fill-opacity:1;fill-rule:nonzero;stroke:none"
       transform="matrix(0.13333333,0,0,-0.13333333,0,525.33333)" />
    <path
       id="path9"
       d="m 1600.25,895.25 h -893 l 639,287 v 1146 h 254 v -1433"
       style="fill:#ffffff;fill-opacity:1;fill-rule:nonzero;stroke:none"
       transform="matrix(0.13333333,0,0,-0.13333333,0,525.33333)" />
  </g>
</svg>
