<?xml version="1.0" encoding="UTF-8" standalone="no"?>
<!-- Created with Inkscape (http://www.inkscape.org/) -->

<svg
   version="1.1"
   id="svg1"
   width="488"
   height="489.33334"
   viewBox="0 0 488 489.33334"
   sodipodi:docname="ss_34_Bar.eps"
   xmlns:inkscape="http://www.inkscape.org/namespaces/inkscape"
   xmlns:sodipodi="http://sodipodi.sourceforge.net/DTD/sodipodi-0.dtd"
   xmlns="http://www.w3.org/2000/svg"
   xmlns:svg="http://www.w3.org/2000/svg">
  <defs
     id="defs1" />
  <sodipodi:namedview
     id="namedview1"
     pagecolor="#ffffff"
     bordercolor="#000000"
     borderopacity="0.25"
     inkscape:showpageshadow="2"
     inkscape:pageopacity="0.0"
     inkscape:pagecheckerboard="0"
     inkscape:deskcolor="#d1d1d1">
    <inkscape:page
       x="0"
       y="0"
       inkscape:label="1"
       id="page1"
       width="488"
       height="489.33334"
       margin="0"
       bleed="0" />
  </sodipodi:namedview>
  <g
     id="g1"
     inkscape:groupmode="layer"
     inkscape:label="1">
    <path
       id="path1"
       d="m 18.25,3651.25 h 3625 l -1575,-1945 v -1246 h 872 c 292.25,-0.289 294.75,-441.1992 0,-441 h -2175 c -295.25,-0.1992 -295.25,440.711 0,441 h 857 v 1255 l -1604,1936"
       style="fill:#000000;fill-opacity:1;fill-rule:nonzero;stroke:none"
       transform="matrix(0.13333333,0,0,-0.13333333,0,489.33333)" />
    <path
       id="path2"
       d="m 2120.25,2278.25 c 155.07,0.49 281,126.41 281,282 0,155.07 -125.93,281.02 -281,281 -155.59,0.02 -281.51,-125.93 -282,-281 0.49,-155.59 126.41,-281.51 282,-282"
       style="fill:#ffffff;fill-opacity:1;fill-rule:nonzero;stroke:none"
       transform="matrix(0.13333333,0,0,-0.13333333,0,489.33333)" />
  </g>
</svg>
