<?xml version="1.0" encoding="UTF-8" standalone="no"?>
<!-- Created with Inkscape (http://www.inkscape.org/) -->

<svg
   version="1.1"
   id="svg1"
   width="481.33334"
   height="650.66669"
   viewBox="0 0 481.33334 650.66669"
   sodipodi:docname="ss_31_Car-Rental.eps"
   xmlns:inkscape="http://www.inkscape.org/namespaces/inkscape"
   xmlns:sodipodi="http://sodipodi.sourceforge.net/DTD/sodipodi-0.dtd"
   xmlns="http://www.w3.org/2000/svg"
   xmlns:svg="http://www.w3.org/2000/svg">
  <defs
     id="defs1" />
  <sodipodi:namedview
     id="namedview1"
     pagecolor="#ffffff"
     bordercolor="#000000"
     borderopacity="0.25"
     inkscape:showpageshadow="2"
     inkscape:pageopacity="0.0"
     inkscape:pagecheckerboard="0"
     inkscape:deskcolor="#d1d1d1">
    <inkscape:page
       x="0"
       y="0"
       inkscape:label="1"
       id="page1"
       width="481.33334"
       height="650.66669"
       margin="0"
       bleed="0" />
  </sodipodi:namedview>
  <g
     id="g1"
     inkscape:groupmode="layer"
     inkscape:label="1">
    <path
       id="path1"
       d="m 2160.25,3101.25 h 414 c 225.78,-0.01 345.42,-123.17 401,-267 l 293,-757 c 116.19,-14.85 322.17,-151.41 322,-410 v -962 h -285 v -308 c -0.1,-378.6406 -536.09,-374.1797 -536,0 v 308 h -964 -1 1 v 0 h -964 v -308 c -0.371,-374.1797 -536.359,-378.6406 -536,0 v 308 h -286 v 962 c 0.3594,258.59 206.129,395.15 322,410 l 294,757 c 54.898,143.83 174.551,266.99 400,267 h 419 706"
       style="fill:#000000;fill-opacity:1;fill-rule:nonzero;stroke:none"
       transform="matrix(0.13333333,0,0,-0.13333333,0,650.66667)" />
    <path
       id="path2"
       d="m 1039.25,3388.25 c 405.12,0.18 733.31,331.72 733,741 0.31,408.66 -327.88,740.2 -733,740 -404.578,0.2 -732.801,-331.34 -733,-740 0.199,-409.28 328.422,-740.82 733,-741"
       style="fill:#000000;fill-opacity:1;fill-rule:nonzero;stroke:none"
       transform="matrix(0.13333333,0,0,-0.13333333,0,650.66667)" />
    <path
       id="path3"
       d="m 1586.25,4497.25 h 1566 l 251,-254 c 46.4,-47.16 45.22,-79.52 0,-125 l -306,-309 -180,182 -180,-182 -178,180 -173,-175 -181,182 -235,-237 h -384 v 738"
       style="fill:#000000;fill-opacity:1;fill-rule:nonzero;stroke:none"
       transform="matrix(0.13333333,0,0,-0.13333333,0,650.66667)" />
    <path
       id="path4"
       d="m 1804.25,2085.25 v 0 h -1159 l 221,595 c 27.52,84.02 68.949,144.44 166,145 h 772 v 0 h 1 773 c 96.39,-0.56 137.81,-60.98 165,-145 l 221,-595 h -1159 -1"
       style="fill:#ffffff;fill-opacity:1;fill-rule:nonzero;stroke:none"
       transform="matrix(0.13333333,0,0,-0.13333333,0,650.66667)" />
    <path
       id="path5"
       d="m 581.25,1285.25 c -136.559,-0.25 -247.422,114.01 -247,255 -0.422,140.86 110.441,255.11 247,255 136.891,0.11 247.73,-114.14 248,-255 -0.27,-140.99 -111.109,-255.25 -248,-255"
       style="fill:#ffffff;fill-opacity:1;fill-rule:nonzero;stroke:none"
       transform="matrix(0.13333333,0,0,-0.13333333,0,650.66667)" />
    <path
       id="path6"
       d="m 3028.25,1285.25 c 136.9,-0.25 247.74,114.01 248,255 -0.26,140.86 -111.1,255.11 -248,255 -136.55,0.11 -247.41,-114.14 -247,-255 -0.41,-140.99 110.45,-255.25 247,-255"
       style="fill:#ffffff;fill-opacity:1;fill-rule:nonzero;stroke:none"
       transform="matrix(0.13333333,0,0,-0.13333333,0,650.66667)" />
    <path
       id="path7"
       d="m 717.25,3936.25 c 107.699,-0.22 194.82,87.8 195,196 -0.18,108.89 -87.301,196.9 -195,197 -107.199,-0.1 -194.32,-88.11 -194,-197 -0.32,-108.2 86.801,-196.22 194,-196"
       style="fill:#ffffff;fill-opacity:1;fill-rule:nonzero;stroke:none"
       transform="matrix(0.13333333,0,0,-0.13333333,0,650.66667)" />
  </g>
</svg>
