<?xml version="1.0" encoding="UTF-8" standalone="no"?>
<!-- Created with Inkscape (http://www.inkscape.org/) -->

<svg
   version="1.1"
   id="svg1"
   width="590.66669"
   height="617.33331"
   viewBox="0 0 590.66669 617.33331"
   sodipodi:docname="ss_30_Water-Transportation.eps"
   xmlns:inkscape="http://www.inkscape.org/namespaces/inkscape"
   xmlns:sodipodi="http://sodipodi.sourceforge.net/DTD/sodipodi-0.dtd"
   xmlns="http://www.w3.org/2000/svg"
   xmlns:svg="http://www.w3.org/2000/svg">
  <defs
     id="defs1" />
  <sodipodi:namedview
     id="namedview1"
     pagecolor="#ffffff"
     bordercolor="#000000"
     borderopacity="0.25"
     inkscape:showpageshadow="2"
     inkscape:pageopacity="0.0"
     inkscape:pagecheckerboard="0"
     inkscape:deskcolor="#d1d1d1">
    <inkscape:page
       x="0"
       y="0"
       inkscape:label="1"
       id="page1"
       width="590.66669"
       height="617.33331"
       margin="0"
       bleed="0" />
  </sodipodi:namedview>
  <g
     id="g1"
     inkscape:groupmode="layer"
     inkscape:label="1">
    <path
       id="path1"
       d="m 2525.25,120.25 c 224.58,97.082 329.49,83.91 515,-13 184.57,-96.7109 369.6,-96.7109 588,15 218.08,110.949 395.7,47.48 494,-12 C 4205,60 4287.5,40 4411.25,40.25 v 445 c -186.25,-0.25 -266,63 -266,63 -192.15,118.582 -368.29,95.109 -610,-31 -138.27,-71.512 -357.14,-52.629 -512,28 -213.6,111.469 -334.48,84.25 -558,-15 -173.62,-77.328 -330.09,-77.281 -503,0 -223.38,99.539 -338.7,126.469 -552,15 -155.15,-80.629 -377.23,-99.512 -515,-28 -242.219,126.109 -415.148,149.582 -607,31 0,0 -83.25,-62.949 -266,-63 v -445 c 115.25,-0.25 205.25,22.25 283,70 98.109,60.031 281.59,122.949 500,12 218.1,-111.7109 403.14,-111.7109 588,-15 185.22,96.91 287.77,114.359 513,17 217.84,-111.3008 433.7,-101.0508 619,-4"
       style="fill:#000000;fill-opacity:1;fill-rule:nonzero;stroke:none"
       transform="matrix(0.13333333,0,0,-0.13333333,0,617.33333)" />
    <path
       id="path2"
       d="m 2520.25,780.25 c 177.25,89.75 336.85,84.609 522,-12 184.93,-97 369.97,-97 588,14 218.46,111.66 401.67,55.398 503,1 89.25,-48.25 151.75,-73.25 280,-83 v 435 c -163.25,3.67 -266,63 -266,63 -377.25,205.67 -541.53,-45.14 -745,-45 v 1004 l 314,721 c 47.07,111.53 -0.38,213.18 -114,262 l -190,77 v 624 h -366 v 329 h -512 v 441 h -318 -318 v -441 h -512 v -329 h -365 v -624 l -190,-77 c -113.918,-48.82 -161.371,-150.47 -114,-262 l 313,-721 v -1004 0 c -202.641,-0.14 -375.25,246.75 -745,41 v 0 c 0,0 -105.25,-59.25 -265,-63 v -431 c 124.75,9.75 184.75,29.75 280,83 100.219,56.02 284.238,110.66 502,-1 218.74,-111 403.77,-111 589,-14 184.86,96.609 346.17,101.461 519,14 218.59,-111 389.75,-112.25 610,-2"
       style="fill:#000000;fill-opacity:1;fill-rule:nonzero;stroke:none"
       transform="matrix(0.13333333,0,0,-0.13333333,0,617.33333)" />
    <path
       id="path3"
       d="m 2216.25,3909.25 h -559 v -324 h -366 v -252 l 925,382 926,-382 v 252 h -366 v 324 h -560"
       style="fill:#ffffff;fill-opacity:1;fill-rule:nonzero;stroke:none"
       transform="matrix(0.13333333,0,0,-0.13333333,0,617.33333)" />
  </g>
</svg>
