<?xml version="1.0" encoding="UTF-8" standalone="no"?>
<!-- Created with Inkscape (http://www.inkscape.org/) -->

<svg
   version="1.1"
   id="svg1"
   width="590.66669"
   height="441.33334"
   viewBox="0 0 590.66669 441.33334"
   sodipodi:docname="ss_44_Smoking.eps"
   xmlns:inkscape="http://www.inkscape.org/namespaces/inkscape"
   xmlns:sodipodi="http://sodipodi.sourceforge.net/DTD/sodipodi-0.dtd"
   xmlns="http://www.w3.org/2000/svg"
   xmlns:svg="http://www.w3.org/2000/svg">
  <defs
     id="defs1" />
  <sodipodi:namedview
     id="namedview1"
     pagecolor="#ffffff"
     bordercolor="#000000"
     borderopacity="0.25"
     inkscape:showpageshadow="2"
     inkscape:pageopacity="0.0"
     inkscape:pagecheckerboard="0"
     inkscape:deskcolor="#d1d1d1">
    <inkscape:page
       x="0"
       y="0"
       inkscape:label="1"
       id="page1"
       width="590.66669"
       height="441.33334"
       margin="0"
       bleed="0" />
  </sodipodi:namedview>
  <g
     id="g1"
     inkscape:groupmode="layer"
     inkscape:label="1">
    <path
       id="path1"
       d="m 11.25,114.25 v 604 h 3775 v -604 h -3775"
       style="fill:#000000;fill-opacity:1;fill-rule:nonzero;stroke:none"
       transform="matrix(0.13333333,0,0,-0.13333333,0,441.33333)" />
    <path
       id="path2"
       d="m 2605.25,3130.25 c -358.65,-0.25 -504.88,-290.25 -505,-514 0.12,-255 209.87,-529.57 607,-506 -137.13,-233.57 -16.54,-612.75 309,-613 1.25,0.25 544,0 544,0 289.75,0.25 440.27,-153.91 440,-392 v -277"
       style="fill:none;stroke:#000000;stroke-width:202.35;stroke-linecap:butt;stroke-linejoin:round;stroke-miterlimit:10;stroke-dasharray:none;stroke-opacity:1"
       transform="matrix(0.13333333,0,0,-0.13333333,0,441.33333)" />
    <path
       id="path3"
       d="m 2779.25,2933.25 c 364.04,-0.21 605.75,-253.25 606,-563 -0.25,-120.07 -45.25,-265.25 -137,-391 h 322 c 466.79,-0.12 745.39,-389.25 745,-779 v -372"
       style="fill:none;stroke:#000000;stroke-width:202.35;stroke-linecap:butt;stroke-linejoin:round;stroke-miterlimit:10;stroke-dasharray:none;stroke-opacity:1"
       transform="matrix(0.13333333,0,0,-0.13333333,0,441.33333)" />
    <path
       id="path4"
       d="m 4000.25,728.25 v -611"
       style="fill:none;stroke:#000000;stroke-width:202.35;stroke-linecap:butt;stroke-linejoin:round;stroke-miterlimit:10;stroke-dasharray:none;stroke-opacity:1"
       transform="matrix(0.13333333,0,0,-0.13333333,0,441.33333)" />
    <path
       id="path5"
       d="m 4317.25,728.25 v -611"
       style="fill:none;stroke:#000000;stroke-width:202.35;stroke-linecap:butt;stroke-linejoin:round;stroke-miterlimit:10;stroke-dasharray:none;stroke-opacity:1"
       transform="matrix(0.13333333,0,0,-0.13333333,0,441.33333)" />
    <path
       id="path6"
       d="m 2792.25,2790.25 v 501 h -203 v -501 h 203"
       style="fill:#ffffff;fill-opacity:1;fill-rule:nonzero;stroke:none"
       transform="matrix(0.13333333,0,0,-0.13333333,0,441.33333)" />
  </g>
</svg>
