<?xml version="1.0" encoding="UTF-8" standalone="no"?>
<!-- Created with Inkscape (http://www.inkscape.org/) -->

<svg
   version="1.1"
   id="svg1"
   width="586.66669"
   height="586.66669"
   viewBox="0 0 586.66669 586.66669"
   sodipodi:docname="ss_49_No-Entry.eps"
   xmlns:inkscape="http://www.inkscape.org/namespaces/inkscape"
   xmlns:sodipodi="http://sodipodi.sourceforge.net/DTD/sodipodi-0.dtd"
   xmlns="http://www.w3.org/2000/svg"
   xmlns:svg="http://www.w3.org/2000/svg">
  <defs
     id="defs1" />
  <sodipodi:namedview
     id="namedview1"
     pagecolor="#ffffff"
     bordercolor="#000000"
     borderopacity="0.25"
     inkscape:showpageshadow="2"
     inkscape:pageopacity="0.0"
     inkscape:pagecheckerboard="0"
     inkscape:deskcolor="#d1d1d1">
    <inkscape:page
       x="0"
       y="0"
       inkscape:label="1"
       id="page1"
       width="586.66669"
       height="586.66669"
       margin="0"
       bleed="0" />
  </sodipodi:namedview>
  <g
     id="g1"
     inkscape:groupmode="layer"
     inkscape:label="1">
    <path
       id="path1"
       d="m 2197.25,17.25 c 1207.51,-0.3984 2186.11,978.211 2186,2185 0.11,1207.51 -978.49,2186.13 -2186,2186 -1206.789,0.13 -2185.3984,-978.49 -2185,-2186 -0.3984,-1206.789 978.211,-2185.3984 2185,-2185"
       style="fill:#000000;fill-opacity:1;fill-rule:nonzero;stroke:none"
       transform="matrix(0.13333333,0,0,-0.13333333,0,586.66667)" />
    <path
       id="path2"
       d="m 3963.25,1845.25 v 719 h -3527 v -719 h 3527"
       style="fill:#ffffff;fill-opacity:1;fill-rule:nonzero;stroke:none"
       transform="matrix(0.13333333,0,0,-0.13333333,0,586.66667)" />
    <path
       id="path3"
       d="m 3963.25,1845.25 v 719 h -3527 v -719 z"
       style="fill:none;stroke:#000000;stroke-width:4.79;stroke-linecap:butt;stroke-linejoin:miter;stroke-miterlimit:10;stroke-dasharray:none;stroke-opacity:1"
       transform="matrix(0.13333333,0,0,-0.13333333,0,586.66667)" />
  </g>
</svg>
