<?xml version="1.0" encoding="UTF-8" standalone="no"?>
<!-- Created with Inkscape (http://www.inkscape.org/) -->

<svg
   version="1.1"
   id="svg1"
   width="1178.6667"
   height="1177.3333"
   viewBox="0 0 1178.6667 1177.3333"
   sodipodi:docname="ss_45_No-Smoking.eps"
   xmlns:inkscape="http://www.inkscape.org/namespaces/inkscape"
   xmlns:sodipodi="http://sodipodi.sourceforge.net/DTD/sodipodi-0.dtd"
   xmlns="http://www.w3.org/2000/svg"
   xmlns:svg="http://www.w3.org/2000/svg">
  <defs
     id="defs1" />
  <sodipodi:namedview
     id="namedview1"
     pagecolor="#ffffff"
     bordercolor="#000000"
     borderopacity="0.25"
     inkscape:showpageshadow="2"
     inkscape:pageopacity="0.0"
     inkscape:pagecheckerboard="0"
     inkscape:deskcolor="#d1d1d1">
    <inkscape:page
       x="0"
       y="0"
       inkscape:label="1"
       id="page1"
       width="1178.6667"
       height="1177.3333"
       margin="0"
       bleed="0" />
  </sodipodi:namedview>
  <g
     id="g1"
     inkscape:groupmode="layer"
     inkscape:label="1">
    <path
       id="path1"
       d="m 2974.25,3962.25 v 394 h 2460 v -394 h -2460"
       style="fill:#000000;fill-opacity:1;fill-rule:nonzero;stroke:none"
       transform="matrix(0.13333333,0,0,-0.13333333,0,1177.3333)" />
    <path
       id="path2"
       d="m 4664.25,5927.25 c -233.36,0.06 -328.65,-188.93 -329,-335 0.35,-165.92 137.04,-344.86 396,-330 -89.52,-151.71 -10.93,-398.82 201,-399 1.03,0.18 355,0 355,0 188.57,0.18 286.66,-100.29 287,-256 v -180"
       style="fill:none;stroke:#000000;stroke-width:131.87;stroke-linecap:butt;stroke-linejoin:round;stroke-miterlimit:10;stroke-dasharray:none;stroke-opacity:1"
       transform="matrix(0.13333333,0,0,-0.13333333,0,1177.3333)" />
    <path
       id="path3"
       d="m 4778.25,5799.25 c 237.01,-0.3 394.53,-165.2 395,-367 -0.47,-78.31 -29.8,-172.92 -89,-255 h 209 c 304.46,0.05 486.02,-253.54 486,-508 v -242"
       style="fill:none;stroke:#000000;stroke-width:131.87;stroke-linecap:butt;stroke-linejoin:round;stroke-miterlimit:10;stroke-dasharray:none;stroke-opacity:1"
       transform="matrix(0.13333333,0,0,-0.13333333,0,1177.3333)" />
    <path
       id="path4"
       d="m 5574.25,4362.25 v -398"
       style="fill:none;stroke:#000000;stroke-width:131.87;stroke-linecap:butt;stroke-linejoin:round;stroke-miterlimit:10;stroke-dasharray:none;stroke-opacity:1"
       transform="matrix(0.13333333,0,0,-0.13333333,0,1177.3333)" />
    <path
       id="path5"
       d="m 5780.25,4362.25 v -398"
       style="fill:none;stroke:#000000;stroke-width:131.87;stroke-linecap:butt;stroke-linejoin:round;stroke-miterlimit:10;stroke-dasharray:none;stroke-opacity:1"
       transform="matrix(0.13333333,0,0,-0.13333333,0,1177.3333)" />
    <path
       id="path6"
       d="m 4786.25,5706.25 v 326 h -132 v -326 h 132"
       style="fill:#ffffff;fill-opacity:1;fill-rule:nonzero;stroke:none"
       transform="matrix(0.13333333,0,0,-0.13333333,0,1177.3333)" />
    <path
       id="path7"
       d="m 5853.25,3005.25 -2832,2832"
       style="fill:none;stroke:#ffffff;stroke-width:550;stroke-linecap:butt;stroke-linejoin:miter;stroke-miterlimit:10;stroke-dasharray:none;stroke-opacity:1"
       transform="matrix(0.13333333,0,0,-0.13333333,0,1177.3333)" />
    <path
       id="path8"
       d="m 4420.25,2463.25 c -1078.42,0.17 -1952.72,874.45 -1953,1953 0.28,1078.36 874.58,1952.65 1953,1953 1078.49,-0.35 1952.78,-874.64 1953,-1953 -0.22,-1078.55 -874.51,-1952.83 -1953,-1953 z"
       style="fill:none;stroke:#000000;stroke-width:490;stroke-linecap:butt;stroke-linejoin:miter;stroke-miterlimit:10;stroke-dasharray:none;stroke-opacity:1"
       transform="matrix(0.13333333,0,0,-0.13333333,0,1177.3333)" />
    <path
       id="path9"
       d="m 5848.25,3008.25 -2832,2832"
       style="fill:none;stroke:#000000;stroke-width:511.2;stroke-linecap:butt;stroke-linejoin:miter;stroke-miterlimit:10;stroke-dasharray:none;stroke-opacity:1"
       transform="matrix(0.13333333,0,0,-0.13333333,0,1177.3333)" />
  </g>
</svg>
