<?xml version="1.0" encoding="UTF-8" standalone="no"?>
<!-- Created with Inkscape (http://www.inkscape.org/) -->

<svg
   version="1.1"
   id="svg1"
   width="565.33331"
   height="469.33334"
   viewBox="0 0 565.33331 469.33334"
   sodipodi:docname="ss_40_BaggageCheck-in.eps"
   xmlns:inkscape="http://www.inkscape.org/namespaces/inkscape"
   xmlns:sodipodi="http://sodipodi.sourceforge.net/DTD/sodipodi-0.dtd"
   xmlns="http://www.w3.org/2000/svg"
   xmlns:svg="http://www.w3.org/2000/svg">
  <defs
     id="defs1" />
  <sodipodi:namedview
     id="namedview1"
     pagecolor="#ffffff"
     bordercolor="#000000"
     borderopacity="0.25"
     inkscape:showpageshadow="2"
     inkscape:pageopacity="0.0"
     inkscape:pagecheckerboard="0"
     inkscape:deskcolor="#d1d1d1">
    <inkscape:page
       x="0"
       y="0"
       inkscape:label="1"
       id="page1"
       width="565.33331"
       height="469.33334"
       margin="0"
       bleed="0" />
  </sodipodi:namedview>
  <g
     id="g1"
     inkscape:groupmode="layer"
     inkscape:label="1">
    <path
       id="path1"
       d="m 960.25,2855.25 h 567 v 408 c 0.42,147.69 133.07,241.67 291,242 -2,-0.33 606,0 606,0 157.7,-0.33 288.14,-94.31 288,-242 v -408 h 573 v -2838 h -2325 v 2838"
       style="fill:#000000;fill-opacity:1;fill-rule:nonzero;stroke:none"
       transform="matrix(0.13333333,0,0,-0.13333333,0,469.33333)" />
    <path
       id="path2"
       d="m 747.25,22.25 h -312 C 220,21.8203 11.3398,180 11.25,455.25 c 0,0 0.0898,1969.75 0,1975 0.0898,244.75 203.75,430.13 424,430 h 312 v -2838"
       style="fill:#000000;fill-opacity:1;fill-rule:nonzero;stroke:none"
       transform="matrix(0.13333333,0,0,-0.13333333,0,469.33333)" />
    <path
       id="path3"
       d="m 2496.25,2855.25 v 420 h -760 v -420 h 760"
       style="fill:#ffffff;fill-opacity:1;fill-rule:nonzero;stroke:none"
       transform="matrix(0.13333333,0,0,-0.13333333,0,469.33333)" />
    <path
       id="path4"
       d="m 3493.25,22.25 h 312 c 214.75,-0.4297 423.41,157.75 423,433 0,0 0.41,1969.75 0,1975 0.41,244.75 -203.25,430.13 -423,430 h -312 v -2838"
       style="fill:#000000;fill-opacity:1;fill-rule:nonzero;stroke:none"
       transform="matrix(0.13333333,0,0,-0.13333333,0,469.33333)" />
  </g>
</svg>
