<?xml version="1.0" encoding="UTF-8" standalone="no"?>
<!-- Created with Inkscape (http://www.inkscape.org/) -->

<svg
   version="1.1"
   id="svg1"
   width="1178.6667"
   height="1178.6667"
   viewBox="0 0 1178.6667 1178.6667"
   sodipodi:docname="ss_47_NoParking.eps"
   xmlns:inkscape="http://www.inkscape.org/namespaces/inkscape"
   xmlns:sodipodi="http://sodipodi.sourceforge.net/DTD/sodipodi-0.dtd"
   xmlns="http://www.w3.org/2000/svg"
   xmlns:svg="http://www.w3.org/2000/svg">
  <defs
     id="defs1" />
  <sodipodi:namedview
     id="namedview1"
     pagecolor="#ffffff"
     bordercolor="#000000"
     borderopacity="0.25"
     inkscape:showpageshadow="2"
     inkscape:pageopacity="0.0"
     inkscape:pagecheckerboard="0"
     inkscape:deskcolor="#d1d1d1">
    <inkscape:page
       x="0"
       y="0"
       inkscape:label="1"
       id="page1"
       width="1178.6667"
       height="1178.6667"
       margin="0"
       bleed="0" />
  </sodipodi:namedview>
  <g
     id="g1"
     inkscape:groupmode="layer"
     inkscape:label="1">
    <path
       id="path1"
       d="m 3659.25,5700.25 h 1088 c 476.31,-0.33 826.94,-426.1 827,-864 -0.06,-493.09 -417.24,-861.19 -849,-861 h -571 v -842 h -495 v 2567"
       style="fill:#000000;fill-opacity:1;fill-rule:nonzero;stroke:none"
       transform="matrix(0.13333333,0,0,-0.13333333,0,1178.6667)" />
    <path
       id="path2"
       d="m 4160.25,5224.25 h 562 c 181.98,-0.19 365.27,-169.01 365,-394 0.27,-225.81 -170.5,-382.32 -371,-382 h -556 v 776"
       style="fill:#ffffff;fill-opacity:1;fill-rule:nonzero;stroke:none"
       transform="matrix(0.13333333,0,0,-0.13333333,0,1178.6667)" />
    <path
       id="path3"
       d="m 5857.25,3006.25 -2832,2833"
       style="fill:none;stroke:#ffffff;stroke-width:564.45;stroke-linecap:butt;stroke-linejoin:miter;stroke-miterlimit:10;stroke-dasharray:none;stroke-opacity:1"
       transform="matrix(0.13333333,0,0,-0.13333333,0,1178.6667)" />
    <path
       id="path4"
       d="m 4420.25,2468.25 c -1078.71,-0.07 -1953.01,874.21 -1953,1953 -0.01,1078.12 874.29,1952.41 1953,1952 1078.2,0.41 1952.49,-873.88 1952,-1952 0.49,-1078.79 -873.8,-1953.07 -1952,-1953 z"
       style="fill:none;stroke:#000000;stroke-width:490;stroke-linecap:butt;stroke-linejoin:miter;stroke-miterlimit:10;stroke-dasharray:none;stroke-opacity:1"
       transform="matrix(0.13333333,0,0,-0.13333333,0,1178.6667)" />
    <path
       id="path5"
       d="m 5860.25,3004.25 -2839,2838"
       style="fill:none;stroke:#000000;stroke-width:517.57;stroke-linecap:butt;stroke-linejoin:miter;stroke-miterlimit:10;stroke-dasharray:none;stroke-opacity:1"
       transform="matrix(0.13333333,0,0,-0.13333333,0,1178.6667)" />
  </g>
</svg>
