<?xml version="1.0" encoding="UTF-8" standalone="no"?>
<!-- Created with Inkscape (http://www.inkscape.org/) -->

<svg
   version="1.1"
   id="svg1"
   width="500"
   height="696"
   viewBox="0 0 500 696"
   sodipodi:docname="ss_43_ArrivingFlights.eps"
   xmlns:inkscape="http://www.inkscape.org/namespaces/inkscape"
   xmlns:sodipodi="http://sodipodi.sourceforge.net/DTD/sodipodi-0.dtd"
   xmlns="http://www.w3.org/2000/svg"
   xmlns:svg="http://www.w3.org/2000/svg">
  <defs
     id="defs1" />
  <sodipodi:namedview
     id="namedview1"
     pagecolor="#ffffff"
     bordercolor="#000000"
     borderopacity="0.25"
     inkscape:showpageshadow="2"
     inkscape:pageopacity="0.0"
     inkscape:pagecheckerboard="0"
     inkscape:deskcolor="#d1d1d1">
    <inkscape:page
       x="0"
       y="0"
       inkscape:label="1"
       id="page1"
       width="500"
       height="696"
       margin="0"
       bleed="0" />
  </sodipodi:namedview>
  <g
     id="g1"
     inkscape:groupmode="layer"
     inkscape:label="1">
    <path
       id="path1"
       d="m 1842.25,4232.25 c 228.2,0.25 412.81,184.86 413,413 -0.19,227.32 -184.8,411.95 -413,412 -227.26,-0.05 -411.89,-184.68 -412,-412 0.11,-228.14 184.74,-412.75 412,-413"
       style="fill:#000000;fill-opacity:1;fill-rule:nonzero;stroke:none"
       transform="matrix(0.13333333,0,0,-0.13333333,0,696)" />
    <path
       id="path2"
       d="m 3366.25,818.25 h 179 c 127.56,-0.488 192.81,99.859 193,192 0,0 -0.19,1009.75 0,1015 -0.19,91.64 -72.1,193.17 -193,193 h -179 v -1400"
       style="fill:#000000;fill-opacity:1;fill-rule:nonzero;stroke:none"
       transform="matrix(0.13333333,0,0,-0.13333333,0,696)" />
    <path
       id="path3"
       d="m 1350.25,4125.25 -868,889 c -191.879,191.53 -471.4414,-88.01 -280,-280 l 1111,-1130 v -3267 c -0.48,-322.3086 470.25,-312.8281 470,0 v 1881 h 79 v -1881 c 0.16,-313 474.41,-322.3086 474,0 v 3143 h 84 v -1070 -2 -190 h -262 v -1400 h 1112 v 1400 h -263 v 192 c -0.03,71.76 -43.16,110.1 -120,110 0,0 -44.79,0.1 -121,0 h -1 v 1088 c 0.23,251.75 -215.25,517.26 -500,517 h -915 v 0"
       style="fill:#000000;fill-opacity:1;fill-rule:nonzero;stroke:none"
       transform="matrix(0.13333333,0,0,-0.13333333,0,696)" />
    <path
       id="path4"
       d="m 2890.25,2218.25 v 189 h -359 v -189 h 359"
       style="fill:#ffffff;fill-opacity:1;fill-rule:nonzero;stroke:none"
       transform="matrix(0.13333333,0,0,-0.13333333,0,696)" />
  </g>
</svg>
