<?xml version="1.0" encoding="UTF-8" standalone="no"?>
<!-- Created with Inkscape (http://www.inkscape.org/) -->

<svg
   version="1.1"
   id="svg1"
   width="461.33334"
   height="654.66669"
   viewBox="0 0 461.33334 654.66669"
   sodipodi:docname="ss_51_FireExtinguisher.eps"
   xmlns:inkscape="http://www.inkscape.org/namespaces/inkscape"
   xmlns:sodipodi="http://sodipodi.sourceforge.net/DTD/sodipodi-0.dtd"
   xmlns="http://www.w3.org/2000/svg"
   xmlns:svg="http://www.w3.org/2000/svg">
  <defs
     id="defs1" />
  <sodipodi:namedview
     id="namedview1"
     pagecolor="#ffffff"
     bordercolor="#000000"
     borderopacity="0.25"
     inkscape:showpageshadow="2"
     inkscape:pageopacity="0.0"
     inkscape:pagecheckerboard="0"
     inkscape:deskcolor="#d1d1d1">
    <inkscape:page
       x="0"
       y="0"
       inkscape:label="1"
       id="page1"
       width="461.33334"
       height="654.66669"
       margin="0"
       bleed="0" />
  </sodipodi:namedview>
  <g
     id="g1"
     inkscape:groupmode="layer"
     inkscape:label="1">
    <path
       id="path1"
       d="M 983.25,3890.25 C 825,3860 389.602,3603.42 389.25,3105.25 v -2897 c 0.352,-71.461 33.898,-191.2812 178,-191 h 1275 c 144.21,-0.2812 177.75,119.539 178,191 v 2897 c -0.25,498.17 -420.25,754.75 -580,785 v 201 h 583 v -124 l 1427,-216 v 979 l -1427,-208 v -134 h -580 v 211 h -167 c -0.45,130.95 -142.75,299.01 -345,299 -197.121,0.01 -375.512,-153.76 -376,-386 0.488,-110.16 63.828,-208.7 120,-242 -221.82,-82.12 -518.961,-362.74 -578,-534 -81.0508,-162.63 142.73,-299.2 258,-136 114.77,162.69 243.852,362.65 627,459 l 1,-169"
       style="fill:#000000;fill-opacity:1;fill-rule:nonzero;stroke:none"
       transform="matrix(0.13333333,0,0,-0.13333333,0,654.66667)" />
    <path
       id="path2"
       d="m 926.25,4368.25 c 90.81,-0.28 164.78,73.7 165,165 -0.22,91.17 -74.19,165.15 -165,165 -91.672,0.15 -165.648,-73.83 -166,-165 0.352,-91.3 74.328,-165.28 166,-165"
       style="fill:#ffffff;fill-opacity:1;fill-rule:nonzero;stroke:none"
       transform="matrix(0.13333333,0,0,-0.13333333,0,654.66667)" />
  </g>
</svg>
