<?xml version="1.0" encoding="UTF-8" standalone="no"?>
<!-- Created with Inkscape (http://www.inkscape.org/) -->

<svg
   version="1.1"
   id="svg1"
   width="486.66666"
   height="670.66669"
   viewBox="0 0 486.66666 670.66669"
   sodipodi:docname="ss_52_Litter-Disposal.eps"
   xmlns:inkscape="http://www.inkscape.org/namespaces/inkscape"
   xmlns:sodipodi="http://sodipodi.sourceforge.net/DTD/sodipodi-0.dtd"
   xmlns="http://www.w3.org/2000/svg"
   xmlns:svg="http://www.w3.org/2000/svg">
  <defs
     id="defs1" />
  <sodipodi:namedview
     id="namedview1"
     pagecolor="#ffffff"
     bordercolor="#000000"
     borderopacity="0.25"
     inkscape:showpageshadow="2"
     inkscape:pageopacity="0.0"
     inkscape:pagecheckerboard="0"
     inkscape:deskcolor="#d1d1d1">
    <inkscape:page
       x="0"
       y="0"
       inkscape:label="1"
       id="page1"
       width="486.66666"
       height="670.66669"
       margin="0"
       bleed="0" />
  </sodipodi:namedview>
  <g
     id="g1"
     inkscape:groupmode="layer"
     inkscape:label="1">
    <path
       id="path1"
       d="m 2697.25,4198.25 c 225.43,-0.23 408.27,182.61 408,408 0.27,225.64 -182.57,408.48 -408,408 -225.59,0.48 -408.41,-182.36 -408,-408 -0.41,-225.39 182.41,-408.23 408,-408"
       style="fill:#000000;fill-opacity:1;fill-rule:nonzero;stroke:none"
       transform="matrix(0.13333333,0,0,-0.13333333,0,670.66667)" />
    <path
       id="path2"
       d="m 2172.25,3447.25 3,-3117 c -0.25,-312.0898 458.33,-309.2383 458,7 l 1,1814 h 89 v -1813 c -0.42,-316.3789 463.51,-324.3711 464,-8 v 3130 h 80 v -1118 c 0.36,-268.01 364.56,-268.01 365,-4 v 1223 c -0.44,328.31 -245.13,521.92 -504,522 h -726 c -172.25,-0.08 -297.25,-68.25 -402,-218 l -368,-536 h -637 c -256.691,0.21 -242.309,-363.19 -5,-363 h 735 c 57.26,-0.19 127.25,21.25 167,81 l 280,400"
       style="fill:#000000;fill-opacity:1;fill-rule:nonzero;stroke:none"
       transform="matrix(0.13333333,0,0,-0.13333333,0,670.66667)" />
    <path
       id="path3"
       d="m 974.25,1535.25 v 299 h -299 v -299 h 299"
       style="fill:#000000;fill-opacity:1;fill-rule:nonzero;stroke:none"
       transform="matrix(0.13333333,0,0,-0.13333333,0,670.66667)" />
    <path
       id="path4"
       d="m 1136.25,2198.25 -217,217 -218,-217 218,-218 217,218"
       style="fill:#000000;fill-opacity:1;fill-rule:nonzero;stroke:none"
       transform="matrix(0.13333333,0,0,-0.13333333,0,670.66667)" />
    <path
       id="path5"
       d="m 933.25,2609.25 -217,217 -218,-217 218,-218 217,218"
       style="fill:#000000;fill-opacity:1;fill-rule:nonzero;stroke:none"
       transform="matrix(0.13333333,0,0,-0.13333333,0,670.66667)" />
    <path
       id="path6"
       d="m 1385.25,99.25 388,2061 h -292 l -340,-1774 h -504 l -332,1774 h -292 l 380,-2061 h 992"
       style="fill:#000000;fill-opacity:1;fill-rule:nonzero;stroke:none"
       transform="matrix(0.13333333,0,0,-0.13333333,0,670.66667)" />
  </g>
</svg>
