<?xml version="1.0" encoding="UTF-8" standalone="no"?>
<!-- Created with Inkscape (http://www.inkscape.org/) -->

<svg
   version="1.1"
   id="svg1"
   width="817.33331"
   height="820"
   viewBox="0 0 817.33331 820"
   sodipodi:docname="ss_62_LeftArrow.eps"
   xmlns:inkscape="http://www.inkscape.org/namespaces/inkscape"
   xmlns:sodipodi="http://sodipodi.sourceforge.net/DTD/sodipodi-0.dtd"
   xmlns="http://www.w3.org/2000/svg"
   xmlns:svg="http://www.w3.org/2000/svg">
  <defs
     id="defs1" />
  <sodipodi:namedview
     id="namedview1"
     pagecolor="#ffffff"
     bordercolor="#000000"
     borderopacity="0.25"
     inkscape:showpageshadow="2"
     inkscape:pageopacity="0.0"
     inkscape:pagecheckerboard="0"
     inkscape:deskcolor="#d1d1d1">
    <inkscape:page
       x="0"
       y="0"
       inkscape:label="1"
       id="page1"
       width="817.33331"
       height="820"
       margin="0"
       bleed="0" />
  </sodipodi:namedview>
  <g
     id="g1"
     inkscape:groupmode="layer"
     inkscape:label="1">
    <path
       id="path1"
       d="m 828.25,5961.25 c -413.102,-0.03 -645.461,-213.74 -645,-650 v -4502 c -0.461,-408.039 208.449,-621.891 621,-622 h 4521 c 412.73,0.109 621.96,203.313 622,622 v 4502 c -0.04,425.61 -209.27,649.97 -635,650 0,0 -4485.18,1.39 -4484,0"
       style="fill:#000000;fill-opacity:1;fill-rule:nonzero;stroke:none"
       transform="matrix(0.13333333,0,0,-0.13333333,0,820)" />
    <path
       id="path2"
       d="m 828.25,5961.25 c -413.102,-0.03 -645.461,-213.74 -645,-650 v -4502 c -0.461,-408.039 208.449,-621.891 621,-622 h 4521 c 412.73,0.109 621.96,203.313 622,622 v 4502 c -0.04,425.61 -209.27,649.97 -635,650 0,0 -4485.18,1.39 -4484,0 z"
       style="fill:none;stroke:#ffffff;stroke-width:34.08;stroke-linecap:butt;stroke-linejoin:miter;stroke-miterlimit:10;stroke-dasharray:none;stroke-opacity:1"
       transform="matrix(0.13333333,0,0,-0.13333333,0,820)" />
    <path
       id="path3"
       d="m 2608.25,1389.25 -1802,1802 1802,1802 h 1188 l -1370,-1371 h 2693 v -872 h -2684 l 1364,-1363 -1191,2"
       style="fill:#ffffff;fill-opacity:1;fill-rule:nonzero;stroke:none"
       transform="matrix(0.13333333,0,0,-0.13333333,0,820)" />
  </g>
</svg>
